<mxfile host="app.diagrams.net" agent="Mozilla/5.0 (Macintosh; Intel Mac OS X 10_15_7) AppleWebKit/537.36 (KHTML, like Gecko) Chrome/130.0.0.0 Safari/537.36" version="24.8.3">
  <diagram name="페이지-1" id="ghIf9zY1elbtd8kbVStN">
    <mxGraphModel dx="1687" dy="935" grid="1" gridSize="10" guides="1" tooltips="1" connect="1" arrows="1" fold="1" page="1" pageScale="1" pageWidth="827" pageHeight="1169" math="0" shadow="0">
      <root>
        <mxCell id="0" />
        <mxCell id="1" parent="0" />
        <mxCell id="Fu-hgY2Prab3ta5RPqmp-11" value="" style="rounded=0;whiteSpace=wrap;html=1;" parent="1" vertex="1">
          <mxGeometry x="500" y="120" width="306" height="190" as="geometry" />
        </mxCell>
        <mxCell id="Fu-hgY2Prab3ta5RPqmp-3" value="Front End&lt;br&gt;(Next.js)" style="rounded=0;whiteSpace=wrap;html=1;" parent="1" vertex="1">
          <mxGeometry x="120" y="350" width="120" height="60" as="geometry" />
        </mxCell>
        <mxCell id="Fu-hgY2Prab3ta5RPqmp-7" value="" style="shape=image;verticalLabelPosition=bottom;labelBackgroundColor=default;verticalAlign=top;aspect=fixed;imageAspect=0;image=data:image/png,iVBORw0KGgoAAAANSUhEUgAAAKMAAACVCAYAAAA0T0owAAABXWlDQ1BJQ0MgUHJvZmlsZQAAKJFtkE9LAlEUxY9pmNkio2gTNK0imKR0ECIITMiCFmL2x3bjaDPBqI9xJIIWfYGgVdAyiGjV1pZBLYMWQYH0AYLaGbMped2nlVo9uO/8OJz3uBygq0dlzPQAyBdsKxmflzbSm5L3GX64MUy3omolFk0klimCb+08zgNcQu8nxV8HZd9c+sT3UpsZPb4eP4/8zXec3myupJF+0AQ1ZtmASyZO7NhM8B7xoEVLER8K1pt8KjjT5MtGJpWMEd8S92uGmiV+IpYzbb7exnmzrH3tILbvyxVWV0gHaEaQwgLiCCNEOo0I1qif//NKIx9DEQy7sLANHQZsSIiSw2AiR7yEAjQEIROHMEWjiJ5/99fy9gPA7CLBa8tL3QEXb0Cg2vLGHGDoBrgymGqpP626HE9pKxxqsr8CdB9xXlsHvBNA/ZHz9wrn9TPAXaW3zidE5GOWIz0/wAAAADhlWElmTU0AKgAAAAgAAYdpAAQAAAABAAAAGgAAAAAAAqACAAQAAAABAAAAo6ADAAQAAAABAAAAlQAAAAC+f1fBAABAAElEQVR4Ae2deZRdV3Xm96t5UKlUo2apSpMtjzIGzzZgBmNICKFJICRxVgdI0mEIhIReCVmrWfkjSSdZGbpXmMIKyVohCUOaQKBJGrCNzWAMGA/yIFuzVJKqSjXP4+vvt889790qVWmwqkRV6Z2q++695555f3efvfcZbiYrZwVXaIEl0AJFS6AMhSIUWsBboADGAhCWTAsUwHhRpEDCmdZRkHQuqhmTyCULkcjllQbgm8+d7VnhvZ+v1aJ/AYyxJV7UOXBGfl0NzBRZRteZHKcsAPBCmrUAxgtprVTYrAMudM/TNikEwhWL3bfIACGwzHff3BXc2VugAMazt0/+acRVBr6nP91ns1OWzYwLisM2PjVqkxOTgmCZlRdXWWlZsRVly3RfrjSKFC7rHDPjQM0nW7jKt0CmYGfMN8b8VyAx8EIHlm6nbdzGpjuso3+/tZ8+ZgOD/TYyNKJgxVZb3WTrN6y19Y1XWEVxs0BY7AfcMt1xZ3TPf8GFFiiA8ZxICEAEflPigfDFCRuzk33P2+GTj1lbx17r7x+0yXEllIwfFJVkbNWqGtu+5Ua7svUlVl1SKzhWC4jVlp0usUw2kS3FZTPJcc5iXAYBCmA8J5GnBT91x1YqOE7boB20k73P2BPPPGine07ZVHbYiqYrbVV1nZWXl6s7nrbegQ4bGe+zyvIaa1iz1uqqmqy5doetb9pla0qutRIpOi5V6hwuIoNM881zFmzFBSiA8RwkhQ8CxjEbFfAm7cCph+2RH/+rjY6OW1HZtK1t2GG7t9/sQEOJOXjqe/b4Mw/ZwGibFRUX2fRYlWRH8dMpswYB8qbr7raWpiutfKpOXFacUpzRXAuHS0YwxvM5CrfCHhfAeA6CAsNJHSNSUg4fe8IeffJLUlY6rSq7w7bv2GVXXLHHKkrqbXSyzx7b+//sSNtjNjYxbiXlk+Kjk1JqpGOXVIh7ltvEWKmVlE3azVe9xq7Z+BqrLG4wK5EW7iBEnoz65OUJxlj7c5DkMnyMtqxqT4vbSVWxY52P2g+f+Q8bG++2qtJGu3bXHbZj+41WUlxu/aOn7LGnvmlH2/ZKbCyymqq1Vltba0OjXdYz0Wkb126zTRt22fMH91tX3wv2xAs/tFUV6237+hvU+a/K6TBBRQpWSvSay023KYDxLO8Z+si0INE9dNSePvgNGxw74UC87so77YrtV1pZpsr6J7pt7wsP25GTjws941a/apPt3HmDrWtusecOPGJ9fT02MTpt6xq2W2PdDnv4h2PW391nzxz6rtXXN1hj5S5xxFLXwrFT4ngJIhIjIKMuz6PZzrXy2Z7L8P7y7A/OQShm1WWnpbgIFSPjA/b88YekrJyQX4Xt3nmTZMQbrSLTKKCO2uETP7CDbd+TmafPVtc02J6r77Art95u9QLZmlUbrbSk1AZl9pkYy9q6iuttz45XCHpl1tN30o6efF4pDNCZ21RGurpskVM6Ejg6KB2YXl7gOPdfDH+Oai35xwXOOItEDkQ30Uh3Lh6w9u69duzkCzYxXiolZbtdteNmq8w0C6iV1jt4TOadx210qtsqK+rsqm2vtC1NN1lptta766rySoGx2EZHRmx6khEaAbJxqzU3rbWTHQfsWMc+a1zXbOWltdbXNSg2XGbrmjZadWmDAFsh5oh9MvLGWQVdgbcFMM4mqjRfsUBXPvokCx5tf8L6hzqtrKTOdu+40aqL1+t5pU1N9wpQR+x012nZDctsU/NV1rrhBoWrMJuokmYs3aSo2KRQ27S4LJjCSFRavNo2b90oID5tHYPP2yPPtNu4bOVTo0XWeXLcdmy91m676V513xusTPl4RPCocmUkvwLplQrQAhjTYFSfKP3DJqazNl00LmVjvx3vfMpNgS0bttvm5itlpql2cPUN9urZk9Kiu8TZKm331ruspnibtGZJmUVw1Q4rKpmw4uIypdlvHX1HdV9rHb177dDRfTZVNGZDU3022H3KOWLRdKkd75CidKzDpqZK7Z4732QlJbJHZmW7nEaakmIjMPKuRFNQuugr4boAxjQVIbRcNjNho9P9dqJzv/X198p4XWe7WvaIU60RMKRkCEgDo53W2XdEnGrKNq3f4dpzpnhc9yPif0XyHZH8B4CKBcxR23/iYXvs2W+6MjMt7byoVDxOQ4fTAqGJs2Z1TGUGbETj29/+3sNWlCmzV97+Kltd1qDOWuPbjsLAYUMpmZTBeDcuKXh4sGx/C2CcQTrUBQ35SZnoH2y3tlP7BAKzdXXbpSVvlyxY75rvVHbQuvuP2/B4h4+6rGvcre651PqnD9jQWLeNS5lpO3XYjp88aN3DnTZVMiYue1wAE6crL1UaGYGWDle4Fo5cLRHXmyqWIiOs94132UOPflMYHbOb9txqNWW1sqeX6ii2Csmh0xPTbrssFdctSjRwT2yZ/xTAOIOAmgomaIgvWmfvMesb6BJXrLUN63ZZeVGDCC8Opqfjk8PW2X9MsJ3QpIgaIWrKDrc/Y929J+zEqeOyO+5XGM3iyY6LQ04oHsmWCH7IfRqKUSrIlJIUxdQmxRWDljwtjuzadHGJ9Qx12EPfle3y+EGN3DTbqso1gl2Jhh2rraKs2prqWmzbRokF4ryMb68EVwBjpCJMUdyJweKRCWnRnQcku03amqpGq6tVVyk5cMq63ITTpaG+zoFjNi3ZjjHopw58zUYHswKgRl2QGct7ScZdkQMFsKC+yCXAwUd8Ut2+rjKQQaASKOGZklr1MCvu3KUx8G710BqdkVau8UUHXmlRmd2442W27g33WVn5RoE5l6ziLl9XAOMM2oGgrI1N9dip04f8SX1zlVWvmbS+qf3WI/mxo+u4H72DJ4QA8dDRSZlu0KgFLPpcgWimQ27M+6QuycqlPUyL03BHAZO/rLT50HXrmj8FmEQjn9Y4uRKY0NzJ090nbFAjPLXlDYqB1p2gP5/Vsru67MAYoQKRA+nTNBOg1EX3Dhy3oZEuISVrw2M99sSz39VIyrgNDEvBGO0TBxwQI5M9pgSgCCRuqAZACdRy3eYM6KUzmnntQAzpZFB49DSBYUib9D0PHuhaoId794lzrl+jCRuySa4Ed1mBESByQGwNOjt0ipzQwzaR6bOxrCbICmjHOvfK9DIgDpWxEx3qjjNHbFJdNh11RpxPiq/3tnSPzqqUBpfRpa/dTx45WOYu9IS8AaKeTkzKnKSpaFPZMfnzUhDJS5okG1PFX6/MxLBejkGViQTTiSbBl+HpMgBjJCK8RtqqyMfUB+yIWU0JY0hvRFrxidP77VDbfuvo7JI222aZMj2X9jqtMAAjKyUFl/VuWF2iOJjf62fm/G3wmQeHY50wYEjndJdN/OAZLqbV1U8rQNSwKfGZTqnIe3RizAaHNbLjM33y+Z0Zfvn4XAZgzBODjnTCOgXFAesfb7fOjhN2+KiWDXQfthHJidlieJS6vFIBsVhcKaAikcYCwQFMQFC4B3eBx+bzca6Wvz3rFXBzOXBCmrTmm7nCA3BJfi4sJqmNjY1aT2+3lCzJkXovQmnOmtWSf3gZgDGRwERY5LtuacJ7n/+BHWt/VhMYAKAAIDtgpnTEJuF603DCaQcgw28uBzo7S8gNGP0yTX5Qw/3c6OFJOnRERS40F8ojq5GfGW52pOQesE9Kcx8eHnbFJ+Q7O/CMlJbFzQoHI0AUoGTjm5KMOC1ud0ITFJi+lS0ekuwH9xNHglQCWdEUYJDMhoM1JdhwLOYAKT4o/zTpPZjCRwUGEEcXw8UzWjOOXzRwv5afj8Qk7BCGHF0ILY/ol5wnJ6ZsYGjAhkeHrLpaEzNiYRVxudodQ2vEmq/Is8gJegTK6eyEDNOnhDt1wxwyQAdiz1HxHPjmeDbLy7vpGQmBmIiedOC5/PLPvZgz0sk/C+kpvpcLwGVtaGhIWv9QOtCyvr4MwJjAgi5Xox19Q6cFyzFpyDIs6z4AdTYCIphS/uAggW7KN0f8GXJjBEzuqS4caWmPmdcRpvGce0q+Ooie0YX/wYUlUgyNDkqJGVB94O15bpyLu8wuVng3HUkbuuvJ6SGNapwWcVlXih/vIlROUy3e6DkIUFeKiQcgFvvQW6lNjeuZZuQUaYpXZekajYLI6Ky+NYB0ysalXIyNTshQPYyVxkUBxIG0i7ngR9oT43qedOEUKKTFwwjzEANAIg7A1eGKfUN94vgMK5IRdcIRNh7usSx+LgMwQhSRW6aZSdnwhkcG3CoT5DueQUDOs5zkTCe8AIIMyNCdjZfJzt1om+q3WPOGVVZXvd6qyzQ5tqJGaYatTdhlYny83wYHGL8+KJPRC9ajSbiRq6ZzCSUj94y04mA6Sj8X7vx9SJfP3w9+VJyh0WHnjmFqmcrpCJ6jLulEl/D1CgcjLQ/HAAoM2w179wYT8ZGTHCeaRSFxQ0jKLBnmEqJoVIkDtmy+2q7aeqetXbNTTzVXUdZv1q9kNN0rW0Q+idP0sKnqUetv3qjVgX1aYnBYkAfQWMsj94qB5SWu6hNw53gpIiAD0GIchVcBRya0aEF1mtbwYUDi8gUiNbsMwBgIhLmmS3Y5Zsjg5tQ40W7V/YWZNQoks0/pdIOtr7/Kbtj9KtvasFPQq9aDkjCOLBCgSDD7xpNVVnBTm9IeO5pYMTkqTixt10oxi8v/TBwqbnBnmHVyD+JF6qw8AzedtEFp1OPj41ZeBtD9PxVweV1eBmCEIMyFkcA/cVRndYcS/h1EznZEwcQ5ZCTbZRgq1DrnkuIaa91ys71kx73WUL1F82qSUZfIUcUNgWLYogT+m4BBSSIWdA90W68mVzD7B3CS04yXwE05xMtorfVEwKqbiEKBAjckVXF2D6tyxbwJwmz0gWc1ft6tOY+r/EWjD3Dgi/0D2OXkUn3Lcir2BZQVwDlRpENrQxy6NOeOEHcWrVyuU/jpyRLJhmusdeN1dv3uWyQbNonATmLPOILP4yuNAJdQJtLIFmmmY3bITg+0a2aNZFQ4WQKm+UoeOfZ8z2Pq3h17uQU1pTk0OKSZQ6Ohq/ZAPJxVsbMnumSernwwijABLJqN2N0jbpJWFHiScgINfCU7VWFr63faNdvutNqyTfJhpR5NlSKyg1n3OvslyXhG+tEyg4HRbk1DOy4+LM1dnBjOBgeckQZxztuFWjCdLGRERM157B+w0THNIPLM8ZtVTryWiVvZ3XQCjmkpG5MZmUEGtfgJ26L7p4CVECurrpTJEVXSkK/afqc1VV0h6VBbk2jwN4IxaNiYVpSI0srIXulLCBggFkdlR4npklHrGmxTN31CEzJGvYvODyCTb4Al5YhAPrM050JQiDHYp2ltWl5I9mLJ+gH0SfrnSmKJPV/ZYIQ+krGwyfkCKXWdXLtTd+zKRkSBzi5tZUtty4adtrHhCi3AWu28DOy69iEAst0Jf6MTgzKr9Ohq2FfxlUhTriqvV7AyrS4c1GrAQ5qOphnfGnJEWnQwK65nxw9ADKfgFzIho/N2xMc+ieGb7fqKMkyyxXkuyW/wWQ6/KxuMokmU74ZG+x2YYdxYHARzyGzni55KbWfLldrks1rEZClAQlpxQQAtnmcvHH7ajp3Yb/2agDsxJTBKWy7JlNua1c22cd0Wq6yssFM9+50rEjsjgAcwh+lo7hfzRkZVHtM+Lh49z3J20AJuOb1oKDRdPd2anT6mNdk16qSTZ2dJYqk+WtlgzLW6NGlxDwR9V4jn4UIZ2RTXrKrXXoob3YYYu1CSwU6Z0e6M+w5qA6gnHrbBkm5NuB2xYtkUizQxln6yc+igHTj+uDZ+WqU9eHrUPbPYKnApR7Xu1YfnSpW7IHru5vwuHHJo1jq6uzWVTLONMsUBiOR4oemdX66LG2qOllncDC9p6k4rjDpazSzjsJWIO8KG9A/QZji8tQVJY83VWqW8Rc/hisGU4zqDTCWDMmDvPfgd68/s14yfEed4WZmAfMKZTEJjWg2YKe6X1t7unAveq2T1I5AAHHatTfJ1f4VCNJhQvuOahcPaF+fDEcDE9ZRmFRaLgJ5Mylg+peWsPRMHbXRc26P4WmyFVSazYnhKS/0HiXcFu0ByiDww0OdDbqHbnptYTGxtqK+jc9ZBF5hvmox2dmCz+NFRbVGipaLO4RIjOYby6CKOclH9gp8Ij3iOMRLA+u2Zz/Kh5roKuXSJM/LCBRfPc4Vf2n4rGIxSXOAgzkWkcMj8McUyUtHDbX6wqFm0Z5F9ZVmFNGg4ood0rubX0rLLtE9OU906KdFaiA84PQgzfwIAHOiIoymaJ6mkfNKXwdwzPi55VElEIKdDzH0dyBar0NfbL84Y5mGS4owCzJ3AkvRdgWAECskBErSUYCoju9+Ypo6Jg6XXp5xBEY28sFA+KC40jRAioIUVgFKMiyrsut03a3eJFvWRtVI62MObVAgbmzJA8fyBRfwLdSEPykfZWK/d2ysbqnvHZxea5k8+fGzBn3xJFqwEECMczjnU145M9GrbOgze6swku/E3l5sSe2Kc10MoiE++dQBrGRfDhALcxvrdduPV91rLuhutsmituKTMKRqLRoFxU9E8ac+V34v3S+rocoReNg03dnd3hXJfkvxffMnPFnNlKzBJzUfHR2WC0UiI0Ond2DwtgnH8dE+7TW/Vmhim9ohLehctAhMvq/syq7fWtXtsjTYGPXxyre07/H3rHT6tpa1SXpxL8ipwQdedeOhqLhdeCsJwOPr9NFfYOf0S9st6GORGXrRivXAktRzdCgZjAAKbvI9qsuuUCOYuoftcxCrVZl9tJw9Z365OfS5jvXpoTQ0T9wkpARm4X7lVZFdZc5U+t9FSaaurq7S9ycPW0aP11UoUpTkXwVERY8+VY/AjThibPnfYuVJhvL27RwZ4dp3QKNJydSuwm6ZK+WqhZY5Pn9bEWraqm59l8GxK8tfA6Gk7dup5TXRgfg/hQ3o+Zu3yZNDEi2XSqSputJ3r9tgd177B1q3aoTFtKT50684UE1AkQ3RzAiTBns8k90gxVKwD57kAOtOfqZQdvSpzSZtKrHznihKTXsJnarWiHSMSAwPaUzvRNqnsfLRiUb9pLPmZF36gtdTPS+HRxFVNdPAhRbpEx3LkPAKlJteWWK01VW+32/a8RpMrtkux0chN7K/P2bLh5YCjnd+snXkSVNFOd2rrPcrv/HmecEvcewWDkapp0oL+fH0xIxTM8QtazRlkcX8sOlo/3T1ySJ/HeMB6Ro6KQw6KQyoVYTAHGO+6pc5kNZtnqlZy5CaN2lxr1+x6udWUaJYP3PAC1OmJMeyUAJPXZL5XRY9mOMKpPsoLUWJU357p6ukL78uMcMvnZgWCEaJywMHoavmyFduAaOeF2BUGhjSLSolsqClmU9pYvu30Xnvy2fu189hhxddsbVYTeppJNHXpDgYZwlmYVaKvH2xv3qM9E6+zYn0VgXUBdP0zp3zNyjK59W30nJvGss8+zx0PX2fYEg0mtENZx2lWPp4vmOdP8yf1ZAWDMQByfJLhOTRNwChwcDhYZzW5qBpm1ojAxWPqnLvtcMej9sT+b1hb9+OCcrewl8wbdDALvHDIwIBlzizRxnS1doU+XllTtk7yI1wZsHjgWZnNvJ2cjCM4s0F47rieElPflFtHV6d+wy5mM3NYHncrWJt2KOiLVvrQWrJoCYP32Uw7zmagm8Kxp/vQ1JAdaHtWS0KHbXLHuG1dd7W+/6IFWAKeTyB07ijAOODgSaXWULPJ1jY3W28bu5dpYsb5Ou+hAZ8uzhODMWlermkB8lSnNqcXHEvUA8Dnz192jSn9ZM8rGIw0rObaaGMktrML9IXiZ6F0ggNXgAmp7k/6tbVJU518esq3L95YVyNiV4JXOf/RmZEdgV+moFLTkGFjgz5kxAg3bPMs+fHUbUHnDKYA87uQQ9ba27VbRq5MIe3lBMgV2E1TJUASZLYxbR03Hhc7pQg1g7RwNsmKSJhhhIaFVphplIaGEye06P/U8NP2yFNf8l1txTf1DM6LC1BAkWCmT7G2RK4qXSc5Mo7IRMCG0HP9ApgA7uRprmsP9ZgrTvQjd7poXiB2JRvLtqPWKL3lxxlXIBghUwSjNGntujA2lmzmFFleLkggJX1ydrJMioe+eqpnRZIvi7QFSkaf2MhITswUD0upGdWaljZtOi8lQVPFgjIEICMoQ64kDTJ8r+75wO+Bwk/kjJFBph7p8txAzofXLruqK1ue4GK6+edL/2qFgpGGh39NalKtwKgvDwT+dSZB4Gh8vPxKfedlS4M+TD5eb5lRzcqZEmfRWHVG8hezw0mNr10NDvU6RAInm5mq3/HjU7dVAl3nmNyZWbsPoAWIc4NxnkizvDOyesPRsTOeOnVK10zqTYzvXqhZEZbo7QqWGem82O5OyzjjJk/wvUgcgOJE0ezuyibbsXGPNVTtsANH9tr+wz+yvuF2LeJSXEXAfFIk4laWr7b6RmnKQmWaZ7nGrEBwI/IcncCURFZhyxNNgZ2b/A5CxdGSA7c6xbLNHTrlGwPmKuHd8rjG4Hu1VtsXnXldCZcuaSqJJXi5YsGIhjk+NWj9Y20yXMskw8L9PO0CKcQVM+qeG9Zstcbiq60mu8Wu3brBNtRvs6OnnrH23iPq+rSJqPbBKZnm24EvtdUVWwU0xUvwkCO1wAhHmiju0zi1ZoLrA0MMIQb0zw3GwBG1n7fmM3pyJJake3aszArE20JU5d/eedIVL3+D2OoZ2fHsiS2ZpysWjFB1XIuUMMuwcg51hi437RgTLpZ1sGHNeu0mViteUq2PT1bYhrpKa1rTon1sum2Az/NqWUC5ZnfXKRxLV+E20J80+WfqmHpbiYpjvh1zj3Y6Y2uUgFheiySsZ56GhlJQkRjdictMPYj/EIsDl44TfIJ3fM6d6ifsdZw+5RtcwbvR5+eJmUpk6VyuWDA6Z9QOEhPaJzu4M8nCGueKshpbU7tWn+LVyjqBCZfRAF9Jpt7Kq2rVdUNwKSSs8MPG6CEiqLnjUBjJlYgE7d1HpOR0SvEBjAQOzyNs3AtvOaDiC7ZUDkd38A6/Ho1Y6RjpALOuxapZlNXT1yvb6piWzVYCz1mBlvbtylNgnOqMSGupgUZfxrWG2c0cdK2xbxVNnF+pC1u9psaqa9inBmDIH5bnRAQqfOcv7DRWrKGW/NhGIDLEdoJrSQKAHZ0esH0H9okja312LhUvkO7mckrH8+OZrhElVEaUI3KPJp9QbtKJR5KW4oYSKI4Kn9F3aeDkKG2envy8TknwpX5aeWDMtThgHNZHhLQqEELjklOOpnAzyZN8zTQrWU8/brg2TQ8zjS+H1YExEtwQ2Y+ZMRFgUm/QWlmSav22/8jjdvTkPt0TTkBxoMWw8prtkqTjCxBz8oLmb5JYEYhzpSc/QCwwj2mbvJ4+bSCqv7PFmF2UpXC/Mrtp2IGAhn1xTLNZguO9m6lIoPue7m3XF7C+Y5krzDZUX2/lxdoVYqoqicN6mDTxMfGI2/jIjECo9DhMYD7a+bQ9/tz9NqnvTIOjPBAVI8WRk4T9BF9zWRHQOnBn8QaPx7N0rDOvyU9vj+RWNkSdtH5NmaNuy82tTDAKiHzxBeO0E4nZz3MBwjnjsLjZ8zbY32/X7uixLet2a6JDi7pkfS2V3Wv5A9sAR/1n2B4FQrPDhJYziLOeOLXXvv/E121wXJpsGV10MOkQ5VwOOS8AmjTPI0KSoGPXY/jr4WWjq8bWeLpXCpS/JLx8y4fEy6ekCRHO7wRRtPn6SJu6YM3xk50R4rE8JI9JdWt0ZQLktD7D0T101L71w25rbnrCrth2ldXVbNRM7q1WVcH0sBIrLSqRVFgqzgOwtdHJRJe2vDtkx9v3aTLF921gUtP+WZeFwAcnc1wFcOXzjP6hFozihIm1ADEXiURCgHl+84/JC24aOapqND1ubX379aq8UjCUEYo6nz25eXK59N4rEowQmUVKYyP65rPO2VJXV5zGeWBASKgEt5PsWKIhvuIeOzEwaO2PHbHqigZr5qPntWu0h40MOuXlWrxfZqP6RNq4Fnd1q3vv0uKtfn09YbJo0MVN4BRdvPYc8uhJQBpCUaqpaXX1DnDFiJFiImc554IqgyASJGkqLd/KRYpbRRHcXSGXCRpXHBghMLRlpg47dHkXC+VARXTxmqlgcr4kVav7ZNvRPES4qnb3Gmu33hOdVnyySLZH2ezYx0bx+LIAm8FPCkSeuD50FDaTmk82DJnFlyC8FqEgdP1T/gFLL0QATQ5lIcx8v7EKM59LUlTl2VrZ9y+X6Du76jPDL627FQdGmndK3ICF7UODkhsnZJoREjICDd+BATj5eY2yBYpaTPXKaj1LVuPR3Dm4GEJUH8efOvnwvWfSURAwTMfqYb2LpMsPdwFL4d6DJD9p5pjzn8GxEtnPH86Cmiea8guZ5JIJkNOv0mNIEtPOwNCgNWlJN4bv5eJWJBizsglOy0xTVlxntRUbtIC/S18d0GSJYnXFMkYH7iQiSfZzkctFNviUuBwA1LSxnMtdAha5ZB9vpLQ85JQW3SEO2sdr9wAkyYU/zt+Qoz9MxIVcvFyexCN8Pk70iUHyT4IPv3zksq9fsnKD7vIBiLqk3YoDo3Mscb9VVXV28w13i0PeoA8RdVpvn2S8/nZtc8IX7Ef00SDNc5Qma8VhHiO2wYx/VZVuN0Uzv9aP0zUBZPKYRwECAVNRJIh+qVTmuCT27OP8YpIYMc901D7jE4oHBsL3sucJeGbUJeCz4sBI40vKc+G9Qgvti2ybbahRN7xeXFGzcCbsuA2MD2t2i75kr53J2jtPWFdfmzTvbj3TFiipTTvzHE3cUgDHdhm4KpTjSpnNjYoUaWcBjPDuFTTgyEQZbfG08fCFNUkSHpb8Y5JJeqyLkCNedFzxQkxKVgaMzvDjw2VwXnFgREaakqQEJBljRrrjuy5sZ8cOEZns1dYgOtatFiZW6+Pnm0dkpumx8Wyff1ewu1cmG+0EOzg4IA56WgDVYi7t64jiMi7FpVizcXy6orNg5uUoff4YvdEZhykcEcCncuGfKEqAOYRRARRkSsCfZvuxnIvX4eyw86CeQ8AwYfWgSOkzmxxzon8YiXF2bYnB/Mxq7ZZWqrF0gJkUKZfDUr5YcWCksYFhoIKT033wz0orjngoYpqNAMrOEKUlq31jp7pKLbpqZMKDzNlayDU6oY+kD7ZrbmOH9Q6pi9cXDIZHejT5YsQmJrRIS5N2p5j1jR1TqQEZXJGUoSCPiiOrNEEw5YmeO0jFU2F1OmbOyAbQCYJ0CumFcNx5vRSnGPhlKgS+StlBq2SGqrH6+kZb17zOmhvW2vYtOzXVrTHsu6P04OChZJRh6boVCcbQdc0EYiABfom/d2/iaqI/e27DXbLZKuFj0vlpRZlmfAtT66t3iffxJ/BpxIVJtwOyLQ4OdenoEUA1MWGiQ9x10OVQZNEpGZ59yFBcFPaUV3TgeIyK4AI8crtJeNEEXPzzfbJzP7hdmfaNrKlZLVlYU9lWNVhj9WYBr9nWrd1gaxvXW82qWoXVzpJFpa5BB+iSHnkm6epqKTuNIEWpZSkX88WWLQW+JAmHYoJHABNUEk0Pg0t5vxa6SKDiq/siMMCIg3JMZ4bw1F3rmJge1VcNBMyRXjenDOsb0APjbb4eZVAfzRwe6xdQh7QojL1+BMRiralBjFAXO6W11SdP9Ft315i4LAIGnFG/RZplWbFKO52ttfq6eh2N1rS63prqm6xO9421zVZd2iCIKY4vAuNlinyFklNBxAdeA4AY+gpdLGm3wsFI288GJMTBubogYkG84AgZSZn3jU+TMBr7xblCo/cYThomJcA9SVNbjWgGz2iisQ+P9WjMWmBVF98/2GXD453Wr2+3jIqDjoxN2sm2XtlDJ62qco243EZbU8d5rTapb7AGbUpat6ZeO53VWGWxFow5qARAcUrntnpRfJqZgzLWK5Qz1Jv6pGsYny3N82UARho+YYVOg/lgdr4Eit1sgHNuKM9hGDhbgLnzOI0VM6Ijzpcd1sKwAS17PaUNSbUZvWYUdWu32b7+EQGxXqBrslWrVmtGeanW2lQLXoBPMq04HnDK87YEXAJkeHVUHxc55q4XvnM/Od/6XrpwlwkYF7JBQzdOig46l3ISkjtA5K/uPvjIjC7surXGPRhyDLPJWc03KdmS0aKMNpAqLqqSRQfNn8kNgJoMAKFgCNhchAje4ZcEE5dc5ksWH+TgmvdYwlcFML5o4kTSO8rmSQW4hjmPcTIDXWyACF1t4KGADdE9KF5JUmLmMY77xGhz5DRbEEkHOVvp0uGWwnWUepdCWVZsGZxxJT+BZ4aqwjGjK2KYMe2h8OlJuTOAGiOtsHMBjC+aoLMVhrkTCtoszxIe5aCM9yFOBFo8B9/L77cAxktC8wSInlcOjd4tz+CGF1GWfKozE5nPf2aopXFXAOOi0mEuKMz0WwhuODPFRa3QoiZeAOOiNi+JrxSoLHpD5cz2i5/TZZ1DAZDnQ/5lwxnPJlu5GbhA7/Oh95IOc34q4ZKugkwg/KXNIku8vAtVPOp8ofU+V5wLTW+h6kI6y4Yzzq50ekAi7DaryVpMShWHXAilYHZ+S+0+gooz9U3XOX2dLjdh819WYGQo3HOODnsnLqY5X1ox/EKelx0Yacyu0102PprfvN1HIATCxsZGK9eS0uLiZDhtIVtqKaWlCgMgjgm2iFablJaW+sHKxXMBieW7zATv1IeMuro0eWN42NOqrNSObA0Ntn69pqTV1Fzydlw2YIxv6Jj2S/zExz9mx44dnwEPAPie977Xrtx95Qz/FXcDEPU3onZ47rnn7Nlnn3VgrVu3zl7+cn0USSCK3C3WPS1TA74f/OAH9v3vf9+efvppB+Ro8mITb9u2bfZbv/VbduONN87gtjGtxTwvGzDGRujt7bN///d/VyOyhUdwzJypWb3a3v2ed/vbDMdIEyCGW+7nyA2Z8fPtb3/bPv3pTzsgx3UPCH/82GP227/9294W1JXwONZS406cOGGf+tu/tQceeMCvfa9zdfGAkJcdDgunLdNmBbMB7Qks8s+yA+OhQ/rqaZ82NkoamvbhsrmpWXMB63yBPX7ewCvQxke929vb7Z/+6Z/skUceCe2gaWpDg0P2xf/zRXvV3a+yO+66kyZwFwF88uRJ+5M/+RP75je+YUOaAIx87b2NQIiL4eiit27desm5ImVYdtr0k089pfUpmm0touQOtWeruhfkRVzs0v1mBf3EesHh9u7d64u5UOSi/4hkv4MHD+ZeQXoHnvFB94/+zd/YN77+de/eo6JH07AgLLYj99dcc43mVa7i8pK7ZccZ9z2/zxsprgbgpkgNjqyIAJ5u6EvempcoQ7pSAJYwNe9eS0q0MZW623Xr1iYiSuB4ABL58D/+4z+8C6aIEbyEL9G2Les2aBtptR1KzZ49e3KKCyCNYS9F1ZYNGNEA0fr27dNmnDSSJvnnnNaBbNiwwTljRisAV6qLHAxlZcuWLfbkE0/4ehk2j2J5zY5t2+2mm26eUX3kws9//vPWry3/aEM3iSVN1NTUZL/2a79m99z7OhdxADigJB/kx0stNy5dMKI1qlGEOne8oT362nxfb2/S2DzQcwVYo53CNm/elFNeCDD7jfa0eCA3+1nw/cn/nk8ZKfumTZvsV3/1V+1Tn/qUdUh+pBl27NhuH/6939cqQXWxahrSIiwvL3L2lD6WCZcM/marpfC9/e1vt7e+7a1WlXTLKEGAN8aN5Xkx7RXjXkh7L1kwogFSIabd07iYbo4ePaqPfJ/WLdPzE5SqtuvVNdWurlF4uGVeDI5hSIc3Pd5fSAMR9lI4ypgmIHmmyxvv8YN7vfGNb7SXvOQlduTIEd+ub/eVuyXrVRNL2jMvaXBwz45TAqycp0dzqntGxn7FK1/pQIz5YqOku4/3IYWEKcSb5Dy7bLMen5HGucIT/5KDMQ2KKXUbyD++hyINqIama6io0H7auvZGSbBFvBdeeEF7dI8oTKrqirZp00ZbrbcaR5woU3FNOpgqaOTo5msY8sBRhpgOaXFwzxLS0tIST69YezZGk0lML5aZsLiYnt8kP+muj+fUHW7ENWUsK5VZRR89wkXjPenGPAhHGpRlq7rq1pYWlU/LZgWkkKt++U/aAYUG7RnbpDu9w6Tf0rLVWlpb3CuWlzwAJC5dTjgq/4SL5SAMZeHAEZ7r+Dztz/Poz/V8Lk+h+UIsoL83kFbGsec0xtoXnn/e2vXW0vVC8LKKcqusqnLTwo4dO+zqq6+2NWvWeEVY+vncc8/qOlRMi3dyJUNeXCUwDsq88aMf/cieksZ9ou2EAxcu0tLSYrfddptdeeWVOVDOblju4zE4OGhPPvmkl/HYsWNKd9D3r0FbZ4Rit5Sla6+/3jZu3JhLz7vAhOAQ4nnV7bvf/a6DjYKSNu5XfuVXfKSkV3V+THZBDM9ox8hraLGxrNu3b58JiIwqLndaHzh//Mc/9o1QYwvwUpSpbHe/8m4HzTPPPOPdM4bxH/3oMa3ZTvY1TyIA8q6ubvvqV78qYGrLZ5mGrrr6Kh95eeihh7y90+Ch3rRfbW3tGaBC6Xn00UddS3eZVOVEiQTw1GHnzp3+8nrhz/FzycBIQdm888FvPWhf+MIX7OCBg9bT3W2j2r5tQoRgSWdxiRZmiuNUVle5gP4bv/Eb9rrX3eOEZJu3Y8ePikAQhVYFlaatScps44ZNdvxYm33+X//VjcFxiCt2OxD5O9/5jn3gAx/wri2CLt3gvNmEB0D/9m//Zk+oe0NGxX43xSeCVT7CQJi6+jq74oor7L+85S32SnV1cHIAASBJk3oyyvHRj37UXzJogD8vBnLagQMHcnZChuRQzGJZkdvuv/9+u+++++zuu+92sBM3gvn55/bZn/7PP9W6a23xB8DVBpxbWlo9PFzwc5/7nKeB/6DAQtnTLwvl+7EA7ZYJpY1j1IUhxb+RCSiOyBCfvKnzH//xH9vNN9+cKwdxeI5M+rGPfcy/Wch9dChH73znOx2M0e9c58UHY4IbKviJT3zCNbuODn2kW11LrCyFpNKT8uMYFheEwHDF4Katu6fLTp48odt8hZWABPEaO6mPN/7RH/2RPYENMjVmTVxeArgQIMP9/d//vfulu23KAfD++Z//2T772c8qn5O5rpk4Mg9zcsAAHI6O9g4NSR5zLfWnfuqnrEoc3eujsIgSyHK8FIAMEPOsurralYmPfOQjznXhhrE7I33KSjngNIAKThQBENuKl4S0XYNOmgILwjVXX+PdOvWn1wHkOEoOEP06AR5pkT6bipIEL0mzPtiOlg43xahOGA7KDkijnyeU/FA3RoL279/v7RCfQUu0/dbW1vAyJfnH5/Od09LXfGEuyh+OQQN95jOfcW7gX/1Mdt6iohA6i+yhisUG4IzGiAGW+AjkR44ctm5xUp7lXZGNDI/al770Ze+ORrWH93yOhvve977nHC8CkbTQMgHAX/zFXzgnA2CEpUFxkaMQlrJw5g+x4vkXXrCPf/zj3qXHcvEMgEXiORhUZLquEnWJf/AHf+BloE3Ix9MjTR2SwnTWkJy+7PX003vti1/8or9IPKM8yJb7NB5N3ioMrMnJDOejrQiDSMHLlE83cDDqgh9lo4wBH6qd4sCNASIaNiMwuABij6Q20sSK/oFcm8R0yIcegK467Ujv9ttud67o7RiaMh1kzutFByOFoUvA1gWncKfCeSF1UyKFoKmxyeUvOEFZeZlzmdtvv93PtBsObgDnSDvSGBWBuru7HCgldPNSAgD5XA7iP/zww7lHhIOLYSL5yle+EgR9EYx8IJpzBe3wQDcFd4hljgkAgsOHD+tl+JLqFsbKIRScM4AxL9CrqNpX56TtfWpvDuzIbumyKqocIAtcklEWJkMAZOhJmQ4pP/JIO8rV2trqstlJyZ9wvfnagfwQhUpL9G1ttT3hkH0BI/VGVo/Y4UX04qiebW3HvaxeFuVHGZB5eXlxlIGD9GEkd2pIkt4tXb90mee6XvRumq4IeS2+rbHLy0jAbW1pddnodgnH5So4XzDdK46AUA8YcUXSGuEEx44cV9cOxwpAgxx6z/Wj70CrYbdu2eqzVtaubbaHHnrYu2UnmtrTG5XE1IDtJ085V6HhxrXfzdf/8z/t/37lq9bXI/tlQmQMw2UC4TXXXms/93M/Z1dddZUdOXTI/u7vPh24oHIOm4cSZdoe/vZD9vNvfYs1NGrnMqU7oo+Qnz6dfJzIrcxKUFvwTUyzm0SR2wKvv/46T7ejo9O+/+gjOU5KEQCDyC0l7JjqfcQyt9zqQOyWWQtlB85G/T2gTogqjCdPqZ02bdxk73v3e/TZtgH7lpSRZ599xnsewpIugN5zw0vUVneprNq3R+CBDnTVvBwoedTBMyBC4nrVe7iTH+0J4GEyOQaThOPFveWWW7xunk7ifz6nRQcj3QbcA1mEwsFN+CsvKbc77rjD3iIlgApQbwC6Y+cOe/3rX597owAUFYczIng7sbyt6KLUzasxr5HW/f73f8DlK0B000032fved+SMaWY0SL6LnvZyffnL/27H9dZDJC9EEgZN/sMf/rBdL6055HGNFJd6e8973uNdZxFfP1BYStEumRW56TqBF+0ULknXBU2j45oY1atq7BelxPzSL/2SrRU3gov+wz982j7xyU+4NSCGp57UGw47oi4dmTRMEunzdGhDhBzOjdLw6xL5epe0153ibgcOHtRL/UyoF4kpFg7QveY1r7Z3vetdKp9ebB20MbShDZD1aKPxMYYbYx3N55ASPwIMkxEWB8SNGJ/nKC6ve93rnKbcX4ibuz+7kBTOEZbGplEpcPqgmlSE6U8Q29k5ldeBXTDa2IiDTNcuhSFnzHW2QMOYupgNPhrx0pe+1LtSupG1a9ep2wmyz+ziMQGXxmYXsChDIjdCK8rEH4rTfb98n8thMT5Ev/GlN/oYeCQtTA/lHiIePnTYv0vNy3ZK3XF/bwCNp6hwSZHtNa9+tf36r/26y2bUGaXmzjvvdCI68SlHcoChQX21IFgbpu0ZKSZ8UmTGkKfC7Ny5SyBf5d25t7Fy69PXVU+f7sy9/KEEWauorJBpare3N1yR9vK2Tyra2tLiI1p+SwH0r+JYhxQiejnSR3bFfAaT4R7HmXQwAV2rlzL6+8Pz/Fl0MCJrwflwobEDwakQGu5nZYbg7Uc7RFBGrnMulVSA6+PHj6txIW4glD9SG5SVldtdd97lHBaixkYFyHSfRCC3tKM7A0GdnR3K/zshXV6CJBxlvOGGPRqdeIW/EDmA6CsIZeUlGnbcIDCHNCFDjMcLk5ViNq16YLoZV5eZyxl0yTVrq7tfl7lq9Rpt7KkyQmmeNEpmrtEOZOTlhXZf5DJp8HpReBGQ5wCAlzQpL/44hgKrxPE8vpLgI+yd+u50V7fkWBcTPJiHxo67WQZv37gXb4UP+SISFdlqye1wbNJG1YlHt+pH74aja/7hD3+Yazv8AB8mtDe96U05euN/IW7RwVinOYYYP+ke4ttC5bmme0R5+MM//EMHJsoI4OPgeTwAIw0Rmj5fvebmJrv1tlu1gWadNySzd0gbbhzAC3HzjgbGCMsG7G0yij/77HOu+MQQTlxFufd19wocNc5BnUM7wUQ0ARIu5eXy0iQl0gk/cgOQByVfRgKTNjOMOF4rm2k0ZquYzpXgTiQ1pXjEx9+PADuVQTvRSm6O4g7pRkCSdqnEEuRlXnoi0vPyQrSdOK4vPOgFUbk8AwLL1atLb9bwKZl5uYJ3aD+VBcbRuq3V04oxOaPo0cNBG8QFuuiQttLxPMzuvvtuvcg3JCnm/XMe57hYdDDSSBSytbXVKwzBnegqGBXrlKD/9a//p33kI//DPi8uSdedJiSckjFpAJZrVAgm7rZxw0YfpVFr5BqE+g4M9Ovt7eYy52iw1dqGePPmzc59SfNU+yknvHMPcRDCrBFnuPOuu3xEI014L7W64E4pEZihfAQoyRfTVJUM9cQfkXnp6JGj/ly3OUc73Pv6e92w72kBKRGfFwgiAzaHMxuBghL5E6decmqJzthKXQlMtZ8urVrbKsNxY6+gyC57MggwNpqMvIC8xG3estk1acrKkRh64uMAxoRWxPJD+UAXbJeYzx5//HFXpGIvRjowGwz1lfrWorcbL4aOC3GLDkYKgzbKVCWEW3eRSKoEAKNLO3DwgP3Zn/+52yPTlYAjYiSnW/fgnkDGzQZb1d2sV5cCUT1OUvdDkt9m274A/hYRgq6EtBhanFS+wYVyBG1yt8uMU5PqZmnM8K+TZg0JEO0d7eGlUmHwwxFvg+xzhD8t5QXzSihrrKhJ0260Heoh3AdCIWyG6M5JKa8rd4roQBHw4VIMPyLjosB5nfJJehoMhQJY5+ChMjY8NKwRkXa97AocMsy1HfJcsRRFXCqpcK+8yYsXFlkyHYA2I//hkWG3jkTFhYi8CIxEMXGDOnGfpqEnfh4/lwSMKCRoyIyS7Ni+w22JTohEngkvEN3roIaj/rc9+OCDzr0oPxwBWxa7vdKvZCXsQOiK8kp1T1j4pYnTcHKcASbjwry1aUfjILgTeVwzxU+caEu66BRJJGfu2LFNkxVC1yjerWLqUBy2MG47ekwjL4xsoMVykFxQCjZvFAGVN6aXbpU5cL9ATzDHpAZXMhQmx8VIXQ+f2/ecvyDp8tI+a8XxsAEWK86+fc+6MTx8rkE5800alXfz5o0CYx2VT6IXaWRl2C0JDmr5U5aMunq9j3bN7mtUKLWXPk1XpPYs1hFjkgCg3rQegCtNnOpHOhPSrqkbozuMfaulrVjtzbleCt8v/+Iv6Uop8QIk7kIBeUnASNkoGKvXkBHf/gtvd06SJ0poSypNd8WoBmDinhGbwOVCo3o9VV9kqZaWlkBYpR2JAQfE7EC7pB15XXvtdQ5WlAK01NmOZmxsavQws+NPKd3vfvcRvTCSXVWunFPecPytW7c4t2bKFmWI8SkGwZklE4lDfMKgtLW1tWmS7JNBU40QVnjkxNbWVje1YEWgTrOq5FVull11VbXmMCYObtgp2yXiBOFDnmE2DkboXbv09QblHcsS43HGn7Ix6QRzUdpBD7gzgwZDolEuvjJhQq+/6ERQe/As9zydyDmuFx2MswvGJNjf/d3fsQ996HdFoBbKPsMRHm2UrhmHnISm6g0byaGbVTWrnNt4paF24pjRTHz/2I/CwRVwTMJobSU/GZ+lmTpgkmc8JyRH6MJieslZ6XRLg3zggQdnxGN4EIfQjtyGcf4pjZrk6kShE9fS0upcx8srP4iOhsw49AuyUUJskTD8KYFggrlSY8ZNkikHXYzx8eiYoM5043DOSn0JLDrq1dmpDe0HhgQMuksOCsIQ60ZfW14ioOMXyxLjRj9slps3bQ6trSagA0N+pWf4jsDI/AEc4VH0GJtHZrxYt2hgjG9/fNuc2NRKR4Wmit199yvtTT/zRjU6Am+sBtwvDIWhDUMguga66ggqQiLPYC/EBEGDqKdRuspBR7tMNigm7sguNKkPOa5X94OygVxUqY/5xO49BFY6AshJTcbga/Z+YKqRH19o/aaWdzIWTRjPLETy8dzbbr3VJzWgiKBphuehUsSHI23fts2bIMQPkY9L/PhPrU3BtBVejiRRRd0iue2WW2+WCcik5LV7mHS6hGQMeL3sqQBFBfPIAPyI7H/DmgQRHP60XlY20itUd0xKKReK6R4RjCz73SxOD2Fi2xLsx1JcDh6kfiEvIiEnXqtxcb7HnRWnj+Xg2YW6RQMjBUHIBUhwDAeTcxJVRPJOucagm/TWlwoY0TlwkGHUCIANIyuEQnhOO+bKbRJHoNFCYwUQoxke0oSKAboRFISUW79+nQ/DAY5KgYPx00DcVCBFwX52vO2YTUyx+btmEeljl3s1PPn5L3w+pxTFl4cJtjeKGBCESRAsoYWTRxdfBCYgrNWsGNfA9RBAMi+RiRA/ePQHbi6KcThD2Ntuv1WWAobmGP9mguygRBLaxjHiwVFc6Kb9hUzASFszfp3n/AE4xH2pjPboz+qQPf58P8wr3aD2ZeyastLGpHf02FFp6JqMoiShZ23tanv1q17lvQK5oIDh0i+ce5znTx4J5xnhfINRIATdf/mXf/HRhltuucl2XbHLVq8KHOlZabP33/9AIoNBtnwrt7a2OhghGN01aXl3k2QOZ9u6NZEXEz9vBv08J9shjYLJJDRZCNDaui3hwpqfJzAi49C1sLzTnYKD38MiJPMQf/m+X3Ytde9TT9s//uNntDT0acl4mjxBqqHNvV6Ya+gqIdb+A0ylCjNYPHeVgWIwF/NxyZJw8traOs29PO5T1f5NEyx4WZ15K00ITDrYQt/85p/18qFQHJGpaFJybgQd+ROusaFR68UTC0WohcvccGfCputP+6JJ4yg+T2c7j6OHtC9aPKJQt75hE5xiqF2JiyO9qzRkeuNNL/NJ0WmmEEJc+O+igZGxTexRX/va17xhPve5z1qtRh7qalmrAmfocuGdRqZqTuCkhX72Z3/W5SuAGDlN0raOBLgQBGMJQGwcqs7Q4tOS2QCiA9jbIzQ923bQyGRBt3bVVVer69zu6489GCkpHlP4mZL27W9/x8MxubZHkygwPxHE81NhGcm4557XOmdAdgOormUK0eQd0+QlYgb6X/3lX/l8yarKVS4DI0pgswNUkNhfRkVjcdlv/uZv2i4N8VFnegXA5b1LTFaJA1JeAkAT6hoaD9kW85O7pD25hju3trQGf/16frm71IXioOwhqzavbfIJ0LPhS36kd8cdd1pLS54pOJgV/8W6RQMjH99Oz3VDscD2BfehkdH6ME1AN+5FMycJe7wgEEMkjKydAqSLmkkNJyVHVpRXuO0yEJL4aloddOtwtjwY4HaaMsUohYYBASGmn2JlumvXTnv9G+5Vt37IuYk3uF5vvjAwqjmSx4facm3q6VNOFZ74gP21r7nH3vGr75RNMmidcOOn9z4jImPyCS8YCWAgR/bt1pdae31Ik+f6U3gUIB8bVhkBQFYjPB/44Pvt7tfcrXw0pKnudEQv9fETpxyMoYwYU8KEhybtolEpcANlOFNG6bWdOilbZ5fuCcUBgrO2TnZQTEsEDL2GvOdxiAbNsio0NzTZPnvOQ8UvL5AXL8J1111rr1IXTe/iIEzSSl/Pk/y83osCRsDA28x8NxoZ0EQXABgaKWh6ocmKxbWukenlz/7sz1wZgIvRhbG3TtrREMy9Y+6joxg0Jw758oRMJWkHx1qvsV+M0i7oJw8rNFLwhje8wQ4ePuRzGcPEXKUVaJdLIpLU8xIYUUbe+NM/bR/64Id8Fg8BKQLj6kelbTKsx4ye6ABvvoS8gOEOYGs2obcNSgXfBPyd//5B+5mf+Rm3K1IQCM8L7GP3Sjc6nlRVVknuZTQFEpKuTgIgJiCUmNlut6aG0XahtfPlmx2Oe9Lns3EMs+ZdKDf5MH59110v1yZRrf74YgCYT1/iQfpmoa7hBDQ6owM0DFom5+BPLqy0EzdQ42AQb2xs0ISHO+2+X/mvwcgrf4b/sDHygpdLoMbASqUZV25tafFuYnZ5OxQekw4KAE5RXRveII2TbgWKBTCIzEoLYr5XU8IA9oMPPuDj1a4siWs5B/cU1EgqzyoNJbaoq3/rW99qr33ta63GbXvAJUy9YukDoIGQDowkLl04IKCbZS0NLwdOtXcFAYIzXe2d73qnveTGG3ziaw6wCtPZ0eXDekwKoT44YNGgNqN9AXt8QPti8CdPDxcK4tdXXKGZOhmJKTToWV1oI8QV0iN8SCaAkRcahe2nZQkp1jUcGaXwXNz2rFkmDxcFjHC16667zv5cw3tMwGSyLKMoyF8TE9LG5OAwzPDetn2bYRphyLBM54ltjQAABhhJREFU3IqWpQE4kAt/7ud/Xl2aCKi2cC4rGfNOTQxlvBbCpxu3SgD5eYVnooCnQ/upsVBWGiXoO+GEMiDkfb+6tU2ye37g/e+3V8ggf/8D94ujSxtPdl/AHsc8Qjjxy2TYvUMvDNPT6Hq98SmnssBh2+SlC+UJhOMZJpqbbr7J5UTEjolx1sRk3LDMsNtLNfeSycWULyvtHUeP4U6U5quqr3/9G3wFZdTGeVPQdrft3I4c4kH5pQdi/iUzmNKOMjF3FCBFoPM83XbRn/PoyJgmKD/kphxvQBqfmurEWhlkegz95AdNvBGSIOl8L/Ra9Uu9Phcae57wMclYWbgC3e3goD7kOI5pQN2MBvjhCsgcRTnbl7o0PSMeFeWIaRGHivuYqZ7nUDBHGQAv4QCr/ydVpGtElnL5yuPRggHoEBNlCg0eeRcOWSnZlG88r66pdQ08mItkMFbYIgRZpUsKcH1Gjf76f/21y63IXLGAr7/3Xvv93/891bNKmnafCK1Jq6rHaplF1sg0wzILwOdERdYkqgqYrze56cjygoVUp0hf9SAd2sqzS54RLxfXYxBUciKgmcPF8PGM3I0h/q/+6i/tCSmg0Z+cSec+LbX94Ac/6GP8MTkvA+XwlpEvRX4RblE4I+WggNHxRjY06LvJGu+UBBm9ky4mH44HMR5nGjBWlGezGxm/uRz0REfFUYwg8kPnAER/kGsx8ghh4ejY7RgTDsCjXXlByDvE8jT9Ugk7AZzP5kZ9AkFCYOq9lt0uJAas0khFvdogfJ431JMhYlojR0TKRHl5kRxUPNRTvPVhcxXFHSdyCLnoV8/d6dJBx4Polzya70T7khcvPkyDJSKf/OQnfa1OqHMoHV3xnuv32Nve9jaf/RRHn0iXrFLvXyjYeeafLteigDECKp1RBFWge2jG9PPZ1zGNeOZ5+np2+HhPw84Mp1aJDRPPMXDuHCGUyD4OMnFndeNotAAyD5gkEmkl1aB7RgxJE4hQjDTx7ehSycWRQpTNo3pZlHJyJnzapfObK4j7KUJ4FUJMQIuLPQLXM9sCn7kdE2ZZNIchHiUIRxkC79cghExI73vf+3zBFn7pdNNlzaV+AS9EjLMoYIyJp8+5wkd5KPcwNmvOI3eRi5PzOffFnHESKpFT7KxCrvzm848cMuYCCJ0kxM8Hi4/9DPc4Jbtep6aOwT1CuJAL349uXsfMcIGxKNg4c+BResidCZ6T5GPpPFsRfEZWc96kYuSez9kGuaf5CxQUlMRvaAPRL3/5y759DCY4uKQDkfxVJ+Tm//bu37SbtdAq2Gr1YEbZZt/n87iQq0sGxnyhZtQi772AV2cjBrlHAJyZ5cyynS0d4jrXUJQ2jZ/PHrLkuU/hF2cMSwxEv3nktpm5EvPSOGRdQMjmCpjRAGF0zv2EOBTFt/3CL7jSwoSM2CbxHMMvxHmuF2sh0l3SaSw08dniA44S5LwAdYjF1s5o4jhXvOZolYspy8XEpShwOSwW0XBNmdMHJiLsnu94xztm2RznqMgCeF2WYFyAdsslAXc5rFEfhP+0w7aILRDlBQIH2Ssd4id/TbmwcWJiikoMpUIJYoXkm9/8ZnuvviCRm6G/yEX+CXTTi1yjS5w8yyIAJBo4Mlh0yFlMZIXrQOjoAMBScZSLsW3mYzKPgLpg/2Uh/z333ONdM7OnolloscteAONFIgPzDRyEHTDghs4FRWRGllgJyHmpumg6e9nLXmbf+ta33FjO+nPWs2A8d2UleXmo12KDcVGM3ku18Re6XAj8HHAYCJXmIGluSL6RkPG80GV5MelRRg6UF3Y3o2verjVKlVron65Puvwxn8WoRwGMsXVfxDkSM00s/OYj1Hz+LyLrBYtCeWP5mUnkWrReLK8H9ptEqnBb4iJLGAUwLhhZCwldbAsUtOmLbcFC/AVrgQIYF6wpCwldbAsUwHixLViIv2AtUADjgjVlIaGLbYECGC+2BQvxF6wFCmBcsKYsJHSxLVAA48W2YCH+grVAAYwL1pSFhC62BQpgvNgWLMRfsBYogHHBmrKQ0MW2QAGMF9uChfgL1gIFMC5YUxYSutgW+P9ISn+UC1TUEAAAAABJRU5ErkJggg==;" parent="1" vertex="1">
          <mxGeometry x="546" y="175" width="87.52" height="80" as="geometry" />
        </mxCell>
        <mxCell id="Fu-hgY2Prab3ta5RPqmp-8" value="" style="shape=image;verticalLabelPosition=bottom;labelBackgroundColor=default;verticalAlign=top;aspect=fixed;imageAspect=0;image=data:image/png,iVBORw0KGgoAAAANSUhEUgAAAmIAAAIuCAYAAAAczGTxAAAMPmlDQ1BJQ0MgUHJvZmlsZQAASImVVwdYU8kWnluSkEBoAQSkhN4EkRpASggtgPQi2AhJgFBiDAQRO7qo4NpFBGzoqohiB8SO2FkUG/ZFEQVlXSzYlTcpoOu+8r3zfXPvf/85858z584tA4DaKY5IlI2qA5AjzBPHBPvTxycl00k9AAVaAAHqAOVwc0XMqKhwAG3o/Hd7dwt6QrtuL9X6Z/9/NQ0eP5cLABIFcSovl5sD8SEA8CquSJwHAFHKm03PE0kxbEBLDBOEeLEUp8txlRSnyvE+mU9cDAviFgCUVDgccToAqlchT8/npkMN1X6IHYU8gRAANTrEPjk5U3kQp0BsDX1EEEv1Gak/6KT/TTN1WJPDSR/G8rnITClAkCvK5sz4P8vxvy0nWzIUwxI2lQxxSIx0zrBut7OmhkmxCsR9wtSISIg1If4g4Mn8IUYpGZKQeLk/asDNZcGaAR2IHXmcgDCIDSAOEmZHhCv41DRBEBtiuELQAkEeOw5iXYgX83MDYxU+m8VTYxSx0Po0MYup4C9wxLK40lgPJVnxTIX+6ww+W6GPqRZmxCVCTIHYPF+QEAGxKsQOuVmxYQqfsYUZrIghH7EkRpq/OcQxfGGwv1wfy08TB8Uo/Etycofmi23OELAjFPhAXkZciLw+WAuXI8sfzgW7yhcy44d0+Lnjw4fmwuMHBMrnjvXwhfGxCp0Pojz/GPlYnCLKjlL446b87GApbwqxS25+rGIsnpAHF6RcH08T5UXFyfPECzM5oVHyfPAVIBywQACgAwlsqWAqyASCtr6GPngl7wkCHCAG6YAP7BXM0IhEWY8QHmNBIfgTIj7IHR7nL+vlg3zIfx1m5Ud7kCbrzZeNyAJPIc4BYSAbXktko4TD0RLAE8gI/hGdAxsX5psNm7T/3/ND7HeGCZlwBSMZikhXG/IkBhIDiCHEIKINro/74F54ODz6weaEM3CPoXl89yc8JbQTHhNuEjoJd6YIisQ/ZTkOdEL9IEUtUn+sBW4JNV1xf9wbqkNlXAfXB/a4C4zDxH1hZFfIshR5S6tC/0n7bzP44W4o/MiOZJQ8guxHtv55pKqtquuwirTWP9ZHnmvqcL1Zwz0/x2f9UH0ePIf97Iktxg5i57HT2EXsGNYA6NhJrBFrxY5L8fDqeiJbXUPRYmT5ZEEdwT/iDd1ZaSVzHWsdex2/yPvy+AXSdzRgTRXNEAvSM/LoTPhF4NPZQq7DKLqTo5MLANLvi/z19SZa9t1AdFq/cwv+AMD75ODg4NHvXOhJAPa7w8f/yHfOmgE/HcoAXDjClYjz5RwuPRDgW0INPml6wAiYAWs4HyfgBryAHwgEoSASxIEkMBlmnwHXuRhMB7PAfFAMSsEKsBZUgE1gK9gJ9oADoAEcA6fBOXAZXAU3wT24errBC9AP3oHPCIKQECpCQ/QQY8QCsUOcEAbigwQi4UgMkoSkIOmIEJEgs5AFSCmyCqlAtiA1yH7kCHIauYi0I3eQR0gv8hr5hGKoCqqFGqKW6GiUgTLRMDQOnYSmo9PQQnQhugwtR6vR3Wg9ehq9jN5EO9EX6AAGMGVMBzPB7DEGxsIisWQsDRNjc7ASrAyrxuqwJnifr2OdWB/2ESfiNJyO28MVHILH41x8Gj4HX4pX4DvxerwFv44/wvvxbwQqwYBgR/AksAnjCemE6YRiQhlhO+Ew4Sx8lroJ74hEog7RiugOn8UkYiZxJnEpcQNxL/EUsZ3YRRwgkUh6JDuSNymSxCHlkYpJ60m7SSdJ10jdpA9KykrGSk5KQUrJSkKlIqUypV1KJ5SuKT1T+kxWJ1uQPcmRZB55Bnk5eRu5iXyF3E3+TNGgWFG8KXGUTMp8SjmljnKWcp/yRllZ2VTZQzlaWaA8T7lceZ/yBeVHyh9VNFVsVVgqE1UkKstUdqicUrmj8oZKpVpS/ajJ1DzqMmoN9Qz1IfWDKk3VQZWtylOdq1qpWq96TfWlGlnNQo2pNlmtUK1M7aDaFbU+dbK6pTpLnaM+R71S/Yh6h/qABk1jjEakRo7GUo1dGhc1ejRJmpaagZo8zYWaWzXPaHbRMJoZjUXj0hbQttHO0rq1iFpWWmytTK1SrT1abVr92praLtoJ2gXaldrHtTt1MB1LHbZOts5ynQM6t3Q+jTAcwRzBH7FkRN2IayPe647U9dPl65bo7tW9qftJj64XqJelt1KvQe+BPq5vqx+tP11/o/5Z/b6RWiO9RnJHlow8MPKuAWpgaxBjMNNgq0GrwYChkWGwochwveEZwz4jHSM/o0yjNUYnjHqNacY+xgLjNcYnjZ/TtelMeja9nN5C7zcxMAkxkZhsMWkz+WxqZRpvWmS61/SBGcWMYZZmtsas2azf3Nh8nPks81rzuxZkC4ZFhsU6i/MW7y2tLBMtF1k2WPZY6VqxrQqtaq3uW1Otfa2nWVdb37Ah2jBssmw22Fy1RW1dbTNsK22v2KF2bnYCuw127aMIozxGCUdVj+qwV7Fn2ufb19o/ctBxCHcocmhweDnafHTy6JWjz4/+5ujqmO24zfHeGM0xoWOKxjSNee1k68R1qnS64Ux1DnKe69zo/MrFzoXvstHltivNdZzrItdm169u7m5itzq3Xndz9xT3KvcOhhYjirGUccGD4OHvMdfjmMdHTzfPPM8Dnn952Xtlee3y6hlrNZY/dtvYLm9Tb473Fu9OH7pPis9mn05fE1+Ob7XvYz8zP57fdr9nTBtmJnM386W/o7/Y/7D/e5YnazbrVAAWEBxQEtAWqBkYH1gR+DDINCg9qDaoP9g1eGbwqRBCSFjIypAOtiGby65h94e6h84ObQlTCYsNqwh7HG4bLg5vGoeOCx23etz9CIsIYURDJIhkR66OfBBlFTUt6mg0MToqujL6acyYmFkx52NpsVNid8W+i/OPWx53L946XhLfnKCWMDGhJuF9YkDiqsTO8aPHzx5/OUk/SZDUmExKTkjenjwwIXDC2gndE10nFk+8NclqUsGki5P1J2dPPj5FbQpnysEUQkpiyq6UL5xITjVnIJWdWpXaz2Vx13Ff8Px4a3i9fG/+Kv6zNO+0VWk96d7pq9N7M3wzyjL6BCxBheBVZkjmpsz3WZFZO7IGsxOz9+Yo5aTkHBFqCrOELVONphZMbRfZiYpFndM8p62d1i8OE2/PRXIn5TbmacEf+VaJteQXyaN8n/zK/A/TE6YfLNAoEBa0zrCdsWTGs8Kgwt9m4jO5M5tnmcyaP+vRbObsLXOQOalzmueazV04t3te8Lyd8ynzs+b/XuRYtKro7YLEBU0LDRfOW9j1S/AvtcWqxeLijkVeizYtxhcLFrctcV6yfsm3El7JpVLH0rLSL0u5Sy/9OubX8l8Hl6Uta1vutnzjCuIK4YpbK31X7lylsapwVdfqcavr19DXlKx5u3bK2otlLmWb1lHWSdZ1loeXN643X79i/ZeKjIqblf6Ve6sMqpZUvd/A23Bto9/Guk2Gm0o3fdos2Hx7S/CW+mrL6rKtxK35W59uS9h2/jfGbzXb9beXbv+6Q7ijc2fMzpYa95qaXQa7lteitZLa3t0Td1/dE7Cnsc6+bstenb2l+8A+yb7n+1P23zoQdqD5IONg3SGLQ1WHaYdL6pH6GfX9DRkNnY1Jje1HQo80N3k1HT7qcHTHMZNjlce1jy8/QTmx8MTgycKTA6dEp/pOp5/uap7SfO/M+DM3WqJb2s6Gnb1wLujcmfPM8ycveF84dtHz4pFLjEsNl90u17e6th7+3fX3w21ubfVX3K80XvW42tQ+tv3ENd9rp68HXD93g33j8s2Im+234m/d7pjY0Xmbd7vnTvadV3fz736+N+8+4X7JA/UHZQ8NHlb/YfPH3k63zuOPAh61Po59fK+L2/XiSe6TL90Ln1Kflj0zflbT49RzrDeo9+rzCc+7X4hefO4r/lPjz6qX1i8P/eX3V2v/+P7uV+JXg6+XvtF7s+Oty9vmgaiBh+9y3n1+X/JB78POj4yP5z8lfnr2efoX0pfyrzZfm76Ffbs/mDM4KOKIObJfAQw2NC0NgNc7AKAmAUCD+zPKBPn+T2aIfM8qQ+A/YfkeUWZuANTB//foPvh30wHAvm1w+wX11SYCEEUFIM4DoM7Ow21orybbV0qNCPcBmyO/puakgn9j8j3nD3n/fAZSVRfw8/lfDVF8NIYiJFkAAAA4ZVhJZk1NACoAAAAIAAGHaQAEAAAAAQAAABoAAAAAAAKgAgAEAAAAAQAAAmKgAwAEAAAAAQAAAi4AAAAA8RjBEwAAQABJREFUeAHsveeTLDly7Rml66q+qvX0yJ4hh2KNu8Z9ux/2//+8Zs/22T6K5eMjORzVMy2vKrnn54AjEMiIVJVVWXXLozsDgMPd4TiRN3EKgUDsdF13qU8cgUAgEAgEAoFAIBAIBAI3jMDuDbcXzQUCgUAgEAgEAoFAIBAIZASCiMVXIRAIBAKBQCAQCAQCgS0hEERsS8BHs4FAIBAIBAKBQCAQCAQRi+9AIBAIBAKBQCAQCAQCW0IgiNiWgI9mA4FAIBAIBAKBQCAQCCIW34FAIBAIBAKBQCAQCAS2hEAQsS0BH80GAoFAIBAIBAKBQCAQRCy+A4FAIBAIBAKBQCAQCGwJgSBiWwI+mg0EAoFAIBAIBAKBQCCIWHwHAoFAIBAIBAKBQCAQ2BICQcS2BHw0GwgEAoFAIBAIBAKBQBCx+A4EAoFAIBAIBAKBQCCwJQSCiG0J+Gg2EAgEAoFAIBAIBAKBIGLxHQgEAoFAIBAIBAKBQGBLCAQR2xLw0WwgEAgEAoFAIBAIBAJBxOI7EAgEAoFAIBAIBAKBwJYQCCK2JeCj2UAgEAgEAoFAIBAIBIKIxXcgEAgEAoFAIBAIBAKBLSEQRGxLwEezgUAgEAgEAoFAIBAIBBGL70AgEAgEAoFAIBAIBAJbQiCI2JaAj2YDgUAgEAgEAoFAIBAIIhbfgUAgEAgEAoFAIBAIBLaEQBCxLQEfzQYCgUAgEAgEAoFAIBBELL4DgUAgEAgEAoFAIBAIbAmBIGJbAj6aDQQCgUAgEAgEAoFAIIhYfAcCgUAgEAgEAoFAIBDYEgJBxLYEfDQbCAQCgUAgEAgEAoFAELH4DgQCgUAgEAgEAoFAILAlBIKIbQn4aDYQCAQCgUAgEAgEAoEgYvEdCAQCgUAgEAgEAoFAYEsIBBHbEvDRbCAQCAQCgUAgEAgEAkHE4jsQCAQCgUAgEAgEAoHAlhAIIrYl4KPZQCAQCAQCgUAgEAgEgojFdyAQCAQCgUAgEAgEAoEtIRBEbEvAR7OBQCAQCAQCgUAgEAgEEYvvQCAQCAQCgUAgEAgEAltCIIjYloCPZgOBQCAQCAQCgUAgEAgiFt+BQCAQCAQCgUAgEAgEtoRAELEtAR/NBgKBQCAQCAQCgUAgEEQsvgOBQCAQCAQCgUAgEAhsCYEgYlsCPpoNBAKBQCAQCAQCgUAgiFh8BwKBQCAQCAQCgUAgENgSAkHEtgR8NBsIBAKBQCAQCAQCgUAQsfgOBAKBQCAQCAQCgUAgsCUEgohtCfhoNhAIBAKBQCAQCAQCgSBi8R0IBAKBQCAQCAQCgUBgSwgEEdsS8NFsIBAIBAKBQCAQCAQCQcTiOxAIBAKBQCAQCAQCgcCWEAgitiXgo9lAIBAIBAKBQCAQCASCiMV3IBAIBAKBQCAQCAQCgS0hEERsS8BHs4FAIBAIBAKBQCAQCAQRi+9AIBAIBAKBQCAQCAQCW0IgiNiWgI9mA4FAIBAIBAKBQCAQCCIW34FAIBAIBAKBQCAQCAS2hEAQsS0BH80GAoHA7URg53aGFVEFAoHAe4pAELH39MJGtwKB+4TAzs5i+rSMDphdjgK32P+oWQgDgUAgEFiAAL8u4787CwyjOhAIBAKBQCAQCAQCgUDgagjsX808rAOBQCAQWA0Bn7zir8Ad/Rm4q8yO5uZ37L/Lbk8K6PCxOumR8uFwe6bzye/Jjv9nDmTlz0wyWFx2l8pecNJxQd5yOuX8uVKq9b+l5ypcXu5ID4lkMji3XK+Ti5EEAoFAILAyAoOfqpWtwyAQCAQCgRUQMHIl/T1xIggX5Gqfj8rHyhztKd3b6Q70OZTskNQ/u7uyQTfZYU/dkZzhhzKH0a2UtTIniJeRLnGpc2UgVydiXCfKn+kDxSI95SP5u/yh/kSsC91TEbB3+pycKV/87IikybfslcQRCAQCgcDKCMSM2MqQhUEgcN8RgOVMsA5VUVs+yvhMViJdIlFiSkf6QKggYBAuyNejg93u4cFO90CE7IEqHh3sWUqez7E+R6rbF+E64CN7q5OeqmxmjDbatWCQpETEEuk6g0xdXHRvlXmlD8TMSdgbld+JaL1W+vrsvHst9oWM9K0I2ZtzlU+67q18nELQlJ5rtszI3OVud7mjeTNBI5eWghL58QOUOKRAdlLPlOIUCAQC7ykC8c//Pb2w0a1A4KYR4MeEmS7xKZvdeiByZcRKs1wPIFiqpHy8v6dZLM1kiVRBpo50X9JmwCSDnB3qQ3ogfamUFNmePrsiYWrCUtraF7OT2D7c3mwPiBizVkaQxHYgRpAvm/1SyuwYMsgaMiNlzJZRtpmwC8mYFSNNs2UQOWbJmDmzGTSVIXDvVP9G02VvlE+fRNrOpCeRxdDGF+VAIBC43wjwqxV/h93v70D0PhBYCoGZH4sscDkkjCn2R4c73Qf6vHiw1z1X+vJ4v3umz/Oj/e6p7j1+cMhMl8iYWJYRMhlCpPghwld7QKDqg2Itqm1aXewgYliQ7spQE1jJgfIXtbFIFGV88OFOpxLlOXPsGIHjRiaEjRm1tyJYpMyUfa97mD9oiuzrd2f6nHdfvznvvtG9zO9OmGHbEUm76PR/OjyGXIwkEAgE7i8C8XNwf6999DwQWAkBTWzZbUVuA6a1WZrpyrNej0SqmPV6KIL1WPcaH2uq6okIF7cXH8uAW4gPJeP2Inmb8cozXLZWTL6NIHlEkCHypPxKWdaFklllrst506nyZqSTcx8nVKhkl8m/yqUNd4yxKyp1t5ZKh9ktmy1TPs2scauTGTJuaYp4nZx1P+h25is+usVJPs2QJb23Z1pvZjNqmjHTLU5m2mSqduInGejjCATuEwKxRuw+Xe3oayCwJAJGBypOsCuCsKvpJLvtKML1WJ9nmu16psVenzw86D5+oBmvBwfd00y+IF3Mdh3mBfa7Il24swX1yjDb5IfNUnlh1dQZ0gp2VdOJYNWC7Ae3HqM3QZrkukUqG26THoqIITu/2O0uDpMCtzrPLw9t9sxuVULMRMaYMftaDOzP+nyrGbNvNHv2/dvL7hu7lSnCaIwx+ZOnOAKBQOCeIMBPkP/O3JMuRzcDgUBgEQIQDRbVM+Olu4rdExGrD45EwDTz9US3F33Gi1mvZ9xyVEoe+aFuNfIkI7cq/UnGxGCYidJThvknx7eQEG+xw2elUiH/MKnO5Wbnup42HXFftXgwI9b84hV9yXHps2Yer/tBLzfpIktxd6YatuGo5tkk0W1ONXyutNzG1C3M7+z2ZZohY6aM8reaEnutGTKbPYOUcbvzlAcBeKrTmikzgKkU50AgEHifEIgZsffpakZfAoENIMB6Ld09tBmt58c73UcPdrvPHx10P3ly2H2k2S/WeEG6uL3IrNfMbUbZFwLm8cBYdDgJS6UtnMfYlMXVxJLjbaQzRdwlEjasgnDuqmJHLBJCu69btNyWfaz07EF6QIDbka9FvMpsmW5nfv36vPutWNmf9VjmtyJjF3pC0/YxM/c1ja3bI9iJjtVqkQ8EAoFbiUAQsVt5WSKoQOD6EWD45vYbs1/pNmJ+2lG/Csxs8YQjC+0/fLgnInbYffH4UAvwD6zuWNNd2PIEI0eaSVI+TzExi2XUQKd7SxGEAeiw4Sxk7IDZQKUmzKCkpy/3NRt23r042e++PjrrnhzvdX96o9uXmi377p1mxzRDpqI9pXmipwmYYWM9mZJ8lIwLIg0EAoE7hEAQsTt0sSLUQGCTCDDzJb5li+yf8nSjZr4+0VqvTzT75U842u1GFt9rEX5a95UW2mNb79dF3jhYJmY7FSGDjOTiJsO/1b7KLc6xKDNvAhf2QxNTE1Hb11Oku3qqFPzZtyztYcYif9aU/ZknMXUL8yutKXutWTKIGevP7huuY3CGLBC46wgEEbvrVzDiDwSWRICB38Z9ZdJmqJr5YsG9Ph9p1utT3Xb84slR9yPNfDkRgxwcGeuScTPxwvIlRPgtB8wgC0gak6J2nzI1BswU+q1Mw07YHkp4IECYlXwCMKrgdiRPVbI1xh/fnHZfiXmRPj5gwb/WlWlbjFfaEiPt+K/XL0lf6nEEAoHAHUQgfivv4EWLkAOBVRHgHzq3IFn7xZOOL7T269NH+91n+nwsAsYtx2fs8cV2E1r/ZXt82ROPrAFLrRlx0CmN9/27F+tYrA4ylpTKPl2I2mMri/WbIDwuCBLH1ExW1aWkWJ29H4WBVn6s29k3Jr6PWCVKDyNI0d9liR7tseksC/bTfmV6wlKzZK+0ev8bzY79WWSM25dfsZZMnx80Q8b2GfU7MfETRyAQCNx+BGJG7PZfo4gwEFgLAQZ7mwETkdJyL3uNENtOfPJQi++fHHQ/1eL7nz89tluRPPX4UCSMyS8IRSIKPXuynE61hJkdJzAeYDJP71902cbSvnHrF0WLYWMNrOaoJ2AjdgBhAQ7rEq6VTAJkNQmjluvGQxB8WOQPQfzw8sBmvr7T1heQsN/rHuWjH067P+yxgeyl1pOlVy7xpCXrx/jEEQgEArcfgSBit/8aRYSBwMoIMLinRfhd91K3HV9q6wluP7Ln10daB/ahZsA+ZO8vLcbnST7fZLVuiNkV2MTUeA5Z4JiqT7UbPKdwNujwGl0tC4r0IGGj6hlfyCZr8GzjD6W8k3Nn58BmLVlT9sUT7Ulm68guuj8wS/aajWTThrFxu/Iar3G4DgQ2hEAQsQ0BGW4CgduAAOQLgsQifN7fyCL8nzze7X72wZE+h91PlL44Tk8+st8XT/P5uxs9fiMFDTMwDmQn10rpiGiosEJpbIZtBfNbozpBq0bjA+YG6l5PFXVdmqe8tBkyru8HOn3yEMKl25O6XfknkbF/1bTY3s6p1pFJdpLWkKXZMaNxdsuzbyBygUAgcBsQCCJ2G65CxBAIXBEBCBi3Fbn1+FSzXy9YB6anIFn/xSzYZ9p+gj3APtIMGE8/GgmTvg/0vlaKMCBXnJKs37sKueujclMHBM2DWoXkLIqv7vMi3WXrLb4JkFZpDzLd6nvfuQ6s2+N1SPyAH9havn27puzfxpOu32kN2dda0P8NG8bqtiWvXWKWjNuWrd9l+xZ6gUAgcD0IBBG7HlzDayBwIwgwKDNoMzDz/scPRb5+8mS/+9lTrf/SE5CfaR2Yv3YI8sVMCoM1dosOIwMoiVigb3xIGeMZE2Rjkc+xetrhGBAEbzBV5ca9cPV00NaV3aUOFBLWxi7/lzxi6sdIvVd5OohvBHBeTm63LGXA66Me6Pbyga4vty156pWF/Xx+qzVk//79Sfe7V3qhpfxcagNZres3rDd4CT3sSAOBQGANBIKIrQFamAQCN41AGrtnR3BeP/RQrx16ebzbfajPj7QIn9uPDMY/0izYS60Dg6Axa1Kzr8t2Jfesa+viVLuj/Wdkx2DkMFLXjPxGB6VfP6m4zu1JdzvR9Eg0vah92KCvWSPngeTUi2t4mjExX5xyJ22WUEUXMSO6p9PhrjYl014YzHo+OdtTmWvPurJTLfC/0O1LXqvE7FjaFFYTZQsOR3Wh4gI/UR0IBAJTCAQRm0Im5IHALUIgDYPpnDZPvbTF+KwB4xVEv3p+qM8DI2DcjuQ1RDxtxx5gO3zUl8FQ6uNr7qPVzygtB8CyZq1eW16utVkt/NzmYzC7RaCDCzEozO/GCh2FfPEQht2qVMoecX94fdr9Tp9/114Xv/1Bm8aKhWmbMovHv1OzAawQ36xxSAKBQGAJBIKILQFSqAQCN4nAFEHR2GrkSw/K6SXcO1qsvSPita9ZsMPuF0+Pul88O9asmEiY9gNjJqQ96iEVasattLots9Bphji0jpqy+cC5ORhWWp2LBgWp2z1JX/nkSpLL19RM1TRh6O1vTU79XYRlfceyjduv1yxCreZseZ91Y2qcd1w+1C3Lh3ozAsT8od6ScKgZ1OPds+477drP+jGt8bcXjfOEpbc56zEkgUAgcF0IND+N19VM+A0EAoGrIqAxVLeY0quIfvF0v/u5bkF+IRL2xeMjLdBPm7EyyKbF22lQrf+Bt4N+IgnDYX6KOCCvNW3AbkbtWf9mZN1mTRPHmH/fj6uucyJmstxOkUEXXOZpcj/uv9Rl5SoO95lVZN/ruKy9i9vLXTd1rra1Gonr+N2OlHrwdA91HUKX1z7dbqDbFOrw6RtlfPB+SnbhZ3PY77R27Dst4v+91o/99hX7kWmG7LV28meGzBtu/EYxEAgErg+BmBG7PmzDcyBwZQQY4llg71tRfKTNWL/QYvy/0m3IX2kG7FOtA+OpSJaAcaA/GIxNmk6oMM76WOvrtswm67ksF0uSJ696W/zUhkWzz1x19op+WBNNOz6b17d0fbkay5VaIWYOBzuVBue2agb7VmFgvUQh48d1YJ3g/u6lrR17qoWFJ9ry4olmyx4dntgM2aW2vPhWG8JqGzIjbPQ7SNkSGIdKILABBIKIbQDEcBEIXAcCfiuS7ShYB/bjD/aNfP3sg2PblJXtKB7qdhO7r/vB2M1NR450tmxmNCXJwomkIT691kjFiKjXv0KuCv66mijRGeOjldt7rEU+K2ZH77QNrJHnPd37PVTppQjZsb47rCV7ebxn68d+9wPbXnTdDzxdqQct4wgEAoHrRyCI2PVjHC0EAishAK9i4OR9j9oMv/tcG7L+XJux/oVmwf7m5QN7KpI1YBAwNmOtD0oVh6mrls6bR53GZoOu6r/iBvPjUUMWx1U7M7+VVNtguIzJdeg43mNdnriJWcIwm8owlSsBmhlTSN2OyBhrCR/poY5HSnm6ltvbBzvaEHb3XN8r3cI8SS8ftwX9paXIBAKBwKYRCCK2aUTDXyBwBQQgYdyKfKC1YF/oNiSzYD/VWjA+n3MbUh9eR8R2BQyow4OBl0FWMx8a1Qe3IqsxGXm7ngtPlcrQ7aDUaC5nNPQgF046BhV3qJCQXhaz5Ts2D5e5UFeVVbY0bLKRCr5Hx1rMv6NZV9rmKduXD866/9T6sd+95tVJnW13EQv5C5SRCQQ2jkAQsY1DGg4DgfUQgCAxMLIv2HMNjF8+O+z+/pNH2pw1kbAnmrFgBkyTZEaaoERTC8mNo2lgRWdk/B2VT+nKxVLHuvYQykUzPksFcONK9Hhzx9okrAph7FqbLFeMPSCwb+vH9CTlowObGftIe409OnirGdkTkfmz7q1YmB6wtDVj82KswohsIBAIrIBAELEVwArVQOA6EGA4ZzG+dqLQS7h3uh9rMf5PtTP+L58ea1sKbUmhtWCPdQtpsCVFHliZQevJWCI0EJua3MybAav1rto3pyVjZEDrxG190lgddsiXvm151UCn7FdgGelpRu8x8aeejfWvbs7redH33EPV7nOuHpULXPX144p8P2DmzKSS/0CP5zL7yl5kD/S9fHqUNoL981s9dSlSxq3K/juHcRyBQCBwFQSCiF0FvbANBDaAAMM5W1N8+HBHa8EOur/76KE+j2x2go1ZeXUNs2BTB2QMDjE+zCYr2mjrGXTTk4+rzUhB3vCGPz6UOBGD5bMccX3YbvDoSTggXRgtegSzdnQdeQVPXMscTqII2fY8ywTOurCEg4UtKZCFOlU7y8aN3lxdVTLjyn5jn2p27JnWjb3Qgv5P9Sjlv+iRysvLs+4bFvIHC6vQj2wgcHUEgohdHcPwEAisjABPsO1qFH+g25A8FfnJIy3I155gXz4/ticjP9crinhvILMSvuZr0IiRFw2sGjyN1ORyIkkDTSvk6sSUqtHYsqUyVeOw3b9q1iO6MjQmolriyEqVu/QmcoLMbeZkzN1cGX3Ex7JkZ66zkcqpuFq59TELjciO+JonchI3T6cmYW37rV3mgK24lGv7Ol8URjLsxs/rkni6UqzM/hA4V0P7kv9We4794dVFp835bZsL1o5xbRbFMdJMiAKBQCAjEEQsvgqBwBYQ2NW9OhblP3+gtWBakP9LEbC/0Ofn2priubYSeKzKPSdhI/EZL9HJiAH1I6OsEThjL5WDEb2qNmU1qppfnUw928wOuHlnfpQn/KaqOQozjSeB8TvMtnRALMa6VMuui3xAcGsyti4EFmsd8IqOIGQ8GMKMrP5e6J7plQ4Pv9Xq/e602xEZ+1as+FxM7LpwWDHcUA8E7iwCQcTu7KWLwO8SAk5FIDPcZnzGOyL1VORPtR7sL14cd19qLRgv6/704aFtvskgWGyso7ODs9VnJW5Pjt0xWjSo923M+qdZr7cQKEuQBt62xjVm095mts4ly+gkdugWtztdlgSBIofzpWVmIpPF/PNGyJGCMxKmpnZ3tOeYXpPEzNi5LsTx/ml3LDL2tba4sMX8sefY/AsStYHAHASCiM0BJ6oCgU0hwEDLoKs7Pt2RTp8/2e3+t4+0O772BvuJbknyom421qRul5mwPDJjQ9bWI8nD2EDtJMbImHTLqE5+wYF/PvYKImcDC2yuo9r76X0Za8N1xupuncwu2uKoDHLH3dPFZqOzUG7u6RJuikpL3PDBB8w5mJ3VkjHdQj+wWbIXmrX9jXbl/+2rc300O8bMWFLV+U5dqRJ1ZAKBbSEQRGxbyEe79waB9DSa1tjoVuQTzYSxi/mvnh/agnxuSX6kdTgPRcJGh688GvqA2A5yvTzBybolJ1UMjWleraprUDfig0xPwrluPaQ26rPF0aBn1bxzy9xynEfGRjzfqKgnGwuaXVqx580r4d40P2huUGgUR4otCUMFF/7dImV9GOvGnouQPdV3lVuWh7xYXBvAnl2c2mzsO5ExvcJStisGQINxBAL3GIEgYvf44kfXrw8BH8S4l0f+WItsnmlR/i+f7nW/fvFQa8KOup9rf7AXWndzpEEN8sFhRMUyOuXxzGbHVG+DI6mtWNdwJ4HbYeKHkTEvKK3XitFMPUySt4HYK5QSMTNvJrL489CaDUubxGEy1bt9bpcim8aScqQYlOZRH7PGxPRmTu4gtz1Tf40Cj5EmvPl6RnIVwoFuwXmJmJfCZsSPx1lXWdu1oMrny1Ekbu+wU1HjgJxryezt54/S077HImiPD/XycL0e6SttcaG3I6W+Fq+RCQQCgXkIBBGbh07UBQJrIuADGsMYi/JZE/b5o73ur18+7P7Pzx53X+ipyGeaCWMnczsYvGyUg6ykwW/AVCSjGh2IEGSM19RMHXab0hwmDSNXmU4MiJr7RY0G8lH080htbXvlIE0xWH2lVLkq2inu3L8xhaKZMobDEnqN2caKbdM1CbNGJuAfE0NKa3wXBTnmY8xmRm9EMCPKjqZIWNtOjQN58S57x+kDLeJ/pD8i+EPiaP9dp/eId694QaWeqDzTd+3Cvn+0jtVUFG1rUQ4E7h8CQcTu3zWPHt8QAhqfdAsn7ZL/6xcH3a+1HuwvtTD/k7xB60GZWmoC0rg1SsYqNSdjPsC5q3ZwrUxsPGRIZExsh8YBOauMWr2qKmenNaytWYNe0pgW8tdr3OJcE7wiBfuFfa57JP2anrQe67pi1tig43Zt2/Nmwoq/VTLVl8u/b4f6kj/XHxRUsdErf3T84Y02gH2j7S309AjkjDjiCAQCgWkEgohNYxM1gcDaCDBQQcSeaibsR8yEvXjQ/RfNhH0qEsbtSPYHs9ktDaPMtNRDlRESMbFVydiiYPHLcck29xogW/LVlhf58/opAuUEwfXq1EKQQiKUdc1dyCcc60i5fuV61RVz8vU1R60u1/niQsJaXuepKGUDfvidKj7WzLSzgTTBtWNGd/9QT1RqdoxZWHvYZOekeytWdsFLw/uo1mw5zAKB9x+BIGLv/zWOHt4wAryu6KH2qPhIe4T9+sWhPg9sjzBI2AcatFj0zDobH6PIs3aKWQXI2egQKjmHDfY5nyTDc01s0u3JYT2lHTUy2obqChlTG65Hc2WQx8GSx7p2S7q/XWoTnQXnhdg1RHyhvnruOjTbHi2xb+sp812rj6ZYV83ka930xwRrxTTzy8yYtPkc7Oml4Xqa8nevL7p3Z9ymTG5q2xnHIQgE7ikCQcTu6YWPbl8PAgyMvK6Id0b+VBu18tLuv//ksRbq7+mJyT17+sxIWNt8ZlCLiBZm83V4X6AGPgXCTJXlR0a/sQHcQ2LXf3aAJySY4RJUIs+19QTBfa2S1iRyFbub0zVAZpqDjEwdmnhMB9dgQs8vj6dusm4K6bFrN+HgSiQs+yZWJ1f0a19E7AO2X1HKmjHejXqgJyp/OLnQpq9sAVvpT8QV4kDgviIQROy+Xvno98YRENfSIuYdvadvt/vy2YHNgn357Lj7THsvHbI7uQapeij3wdIHRggasxnlFletPBXtjI5ok2Qmli/zPaMjZ1k2VgWdKjNjuV30sPFYs7hKxj1VCouzazCRmyVv8wM0QjalYgD2EFzC0NaErG2iLhcC3TeV2HHTfl29KF9fc8NbBtZm45O9xo53drunquf78063J9+Jrf1ee43xNOUbzYylNWOLWoz6QOB+IRBE7H5d7+jtRhEYjqSPDkTCtFv+X2qPsP/140fdr18+ECk71NYVrJ9JJIzmh1aQG2af8qiWK50ImVijXiFUuR6yZgdlKQ3X8GSlrIIvSMJgQCUKU1tmvis7Sk2ZH3x5yAO/+NRRy5Ikn63NgaQvqM5m48x3JpF9reWs3/igz9ABx6HRu81FwybjtGycjudod104hW1uy33UbbppLavzqX6oVWb5KkW+C/jne8weY7wZ4vIJD6todownKvXC8FNeTKkvI4v64wgEAoEegSBiPRaRCwRWRIABSouVtfKcd/F9nEnY3374sPsrkbCf6pVFLGJmJswOqWPBgcTz7KTvg6TRNRvUNCslBRuzsrkZNie/TemzaanaPRtfMVHdXuNiEEtbN1qWszkhFRPIX+mDSzOBKkTS5VXqsdrgXslLlu4tE0AxmMjM8dEjOGG7ptiv8zrmYzHV/oZkfHEL+JsHpbVXN5D1B55zUDmxy8LWxNqzuHuuKWIW75/Jxw/aXIzXI32rBfyvTrI234XG/8B3FAKBe4JAELF7cqGjm9eFwKUNNo81G/ZzvTfy//j0sd4d+cBeWcQ+S3Y70gccZxhjoTR1TqxcbKSkHu08L19DMobzVDmwGWszy7yNURVVQg5t1i57Rp8Rd9EYOka2kq2dszecbecwlNSJCkqD7kYmbNRo0/I0CIMAr6w2cOBXYiBUwbFxOeWZMGYE0skyvntsbcH3+JMHh93ZM+2nJ1L2r9+e6d2U+gNDtywvpEz7I2682UgDgXuBQBCxe3GZo5ObRoABhJmsXbGND/V0JJu1/qVmwWwm7MmRDTqsmUlkqB9qanJUD0LkC7nJFYWMYY5MHx/o6hEsq+Mht2fZmXKt12uk3Ly6outxZIH3xdOi12Ra35QvdItqR4zHXfYINcZN0da/Lavc2C4syi8kzN0T5yYPv56r+vR4WrtaztowDsM2pyaoTnx3uFb1gVUjStXli5aLSur2hoURE10oBpd9ka9nTI/tHKm0273Wfck3Wr3/Wqv3X2vj16BiCbs4328Egojd7+sfvV8TAQY0XoLMTNhfvzzs/l5rwn6l90Z++ODASBhrwjia8cxkVqVRzeqaUVBrnTtbyG2a1SmPmD6QFlv8ZLWsYrMQ9S0fbLyujWceOWBtmc8O2axYM8VV+7I2UG76g0DzaSVGQrV4dcId6v5uTOraAx3Ilx9NCC5eKa3jHhjSTo5pIEdcAPf8MK5Wn7KTI68r10Rt+FFlXWSpXxePdaCX43RQ63bQq+AyX+6DioGfEV0M0uxnf9U0gTU8GidT5Nj6qy8RW1s81VOUp4/0+qOLQz1Zedr92/fn3Vttb4FO7c77PWwwSoHA+41AELH3+/pG7zaEgI99uIOgsCbsud4d+WnerJVbkp/q6chH+3ud7kgOBpfJEOQDvxxlMFLGSE0RpHrOLSmxATOzLPdTaSvbO6GeksZEI4B9De0loetYXS4UMpbLrmPtDArJz3BYNa3RE37rGEaVrkO4lUabjoAbh2JpIExyq1NljnUmZKqykHVXXL6pw/Wm6mu5ucwGfh2diBe9mWDS97LU1xl92fDDrBizwx/uaA89BcvLwt+ev+2+fidixovCq0aMvNU+Ih8I3AMEgojdg4scXbw6Aj7+QGS09MV2zP/ls/3u7z56aBu2fqSZMJ4Q0xhjgytjYzW+zAaQR+AyA5DLRbGtLxUpkwZflHS4rrI+e5S5lVW3p1LXtpldoV8P4IWMtY5Gyu7S2mgdZf0c9Yj1uMgI6HjVylK/jo7Tyg4mDAwvdy4d81+VzSyXW/GYy3k69bVJ34MxD8NrOK7RSGvHqlo0E9ZYD4u6aHUfiJM9xp4e7Wpt2IEW7Z9170TCvnpz2f1RH9aLxREI3FcEgojd1ysf/V4ZAQgEJOyJbkd+9GC3+yvdivy/PnvSfWjvjtzVa4vYfKEfUJyUTDWUBtGk35INIys6MT4VsiZH9ayYkR1vblFjY0G4bVM35mpM1pjlIrciFXeFAxWL7BfVL3SQW181mYCguKF+0SyNcYjGUUssZniG9Bf1uXFpMc34KZHOz4z5cgurqxxTntGfEbh1+o72JeVqEoYdHdWxr6niRyJj/PeF1lGm47T77t2FzYqxQeycZrJ+JIHA+4dAELH375pGj64BgXom7EvNhP1aG7X++uVDLdI/7B5oK32ejmTmiEHG1+ww/vCZOzOGTjUiTw5ElY5MyjEgY5JC1Dhs3Y4qaxJhulZpKkaWEm1SecJ/0kzVTggXqLrJwCU2fCaxWNZp8d5nJjHrVW5NzmLNpIf8dOyzgFRcyfrTkt26k61uXTeTb5Tnx9VbN2apoiZhkvD9Is7Um7RRMFtavNDrkOj8W23yylOU32jDVwiZdrmIIxC4dwgEEbt3lzw6vA4CrHHRemMtxt/t/vblsbapeNL95INDPRGmdS92O1JDjf43oiEW5AQI8sMgxDF3jEFJClO6RpgY5NDRB6JlefM86zy7k3JWzHouh1heEmeRS2CyNLy7nrv3tCZjJsOGjDtyRU+Lo5LxGkvHzMY1B2ZWcD1SjjFfqebmzimG8Ugs3lxFfpKU0pfMcgaecoe5Qi4n9f7TSydHtdx1qa+PVk7ZP7Xe0vmGhGF3yZeV1M46KVj+aHma9xh7p6322WdsVzdC35xrzzExsaLrNpEGAu85AkHE3vMLHN27OgLMdH1w0OlVRbvaI+yw+0vtE/blsyOtE9sXOUvD4GAAk6geHOv8yoMMxsWoKkgGx7KD+qqqlrVi6pybeWr6fpJBHjtNUprGTh9rSoZOFNyMtPbnun3stWbO57bqNqzGjIuHEUMXJZ26Xa+5qdSIz6ADWu800XhSq89DRXzVfRm4rVR9lgkRCIwdLp/yUWycuWXBqP6osHgomeXUFL2+YAfq6J7eTfmhHj1mLdrF5TtbuP9nBf5Ga8dOZxaolWYiEwi8dwgEEXvvLml0aJMIaBKs22WXcL3E+69fHmlx/qPul7otyTYVPJbvAx4pA1EZhBlR6yMPeK5XV3neTWxAdqFSZr9aQmPe1SB1ZfA2YVKtyZTNYuGvGnTdxlOqy5Hby+5K0xYfbZpiTQeKpcVCqTSVfblVr0nc3MaFTMzOgjBjV14qjT/Tq623mzcMOCUwSjBN0epnZEU7Eal59a5a8HTBEukyfnGDXvnetn5HnJRY9CUbqW49WNlsTDlZcO35kjw92re1Y2zweqbP3u5597vXekk4r0OKIxC4JwgEEbsnFzq6uToCjBXH2qfiqbap+LF2zf+L5w+6vxAJ+0Qk7KHtGi6fzXhReMdIc9RxNCZJWJ3zGFUk5tMdNymEa0DGZOUkzOtw5GbFKbIsrONxamm3lOoKDFXGxA+vHvPtLbZ1bXk0MG+gSq1dnczeG67qPTvj3ys2lA5mAkfiaEVt2cNwuadF3gpU4SL/XixDf9zG/Y6mhVGN1vYNr1c9tBoJiJnmI93XZ8f9N9r65VTxnF+edN+f8kRlIuI1GR86jFIg8P4gEETs/bmW0ZMNI8Cg/vSw0zsj97pfi4R9KRLG016PDng6UuOUBhdSP8jz8dmFkbHHVBmAqJuqNyVrYOjfCJdOLUlywuUDdQrOvNTZJBg556ZGalL7Xj+It4oPeWl7zIs7MD0VBJz7MixUoG/kHTvcGClU5xbxBXQ5qmaSYMPnPupxx/ShdKxVoY+50vveqtTlMR1wwMdUnduP1XudpwNC6cI6HXGy7HWo3RDsmJ31g2sOZrroT3WbclcPvrzRzvt/epN23md7iyBiAzSj8J4iEETsPb2w0a31EYBUsGEr678+eaBXFz0/0towkbDHh7pFqQEDBR3pPNtOSyhmNRZLzLdOPoh5W8uQMbzbOMpJH2zZvd4X2lNfH9YdBsxauFReVEkBGgFBn4YqJ37zshaT5yhqWWBkMstdxxR1MpLnhZFyVXW92RL0eDPzyA3Egz7Ouw7udaoZIy+uNJLad0XgYd9iWKtP+a91ZvJmNOt5RxffF+TP2Ejg39+2zp+jRM6rwh7oj5tDzY59d3LefaUd+N+enWjD185uV3q89Mnzrb8oBwJ3GYEgYnf56kXs14AA21BcataLR+x3up8/O+j+7sNHdluSR+7t/ZHe6pxRYWYgFJuoB6VUP3RAyUhHJa7L7nNAxrDRf5AAnxnz8Gpi5LNwsw1IW+3RDqk37SSq+KoyHkclmsnWcdeViazkxqjIDZpEJ/rQHk4wXD6i4lUbS2mjJ1be49SyE08reTBVlyaDyCCzvYl7RLf+Xrg79+FtzCNhbm+Yy7D27X5Ik6++Bc/Vs5B+PWq7Pt97dvLlaa+TGvK4B/JcSPh56ymuXYpyzx86P9MygJ3L8+7yO70GSbNiLBdjZqy3wBGxDCVI4wgE7iICQcTu4lWLmK8RARYMd90z7Q324yd73a90O/Kv9JTkjz/Qi7z1l3u6KZmab28R1kExTPTDlt19GQqotxGpH0zI+aA68CVHLnefTsZcz4mPkzEvl/EK5zI2e1U6yUjl5B8bDm9ryM6o7GO1kk69hP4MyzS2q0CNeKBblEvG2qtPJe5aeAvyEKGrHu5jjGziu23ByjotQ8KWiq2/AKZOMZGibF0FUM+empmCrqrnNpf0exX7rlBsvi+mkZ0yK8bs6pODfc086/up/75991Y78O/YPmOaKNNRR1DnzVOcAoE7iwB/KMcRCAQCQoB/DNreyHbO/+nTve5//+SRbdrKXmE8bu+3JB0sZo0Ss3HJ1VIGLD5jh5MkrzO9StkGP6/MabHJehCAYlIqkzJFhjbqXSflU4mh0eXZfUmm5CgMhu+s6O0UBxvKbHNo9rZrLMo1KZkNdXTCjcfQViN34k2dlV3JC42x66fQB1fRLWdT90VN5c/InoCpRGaL71rGvyfeXMEaTGafv9CeMT95smvrNHen2OtsFCEJBO4cAjEjducuWQS8aQQYPBkQICNsSfGBZsO+1AzYf/nksRbqH6m8Z5tQ1oOGsRIJ7BYeg8SgcskIbdRmhErGVsymY+6MLKlioEcBWe9m0HiRZz3TRYOyKsuAa8XkBELK7aoSA2KVewGFdKSZE9zNDtapSUPITFM5NW2DM40gXOEocVR2JU75qfMruN2YqrdfuJcyyFy+sYbwWTmtsrNN1Io5lrn6eJCC6aw6E1a3rms02c5IBUgx67yv7+UL7S92ovuRXOa356wXSwv3KY+Y1q1GPhC4cwgEEbtzlywC3jQC/sPO4vzPH+/qduRB97OnR3qf5H73WH+dsxM4x2AQcCOTi4a0f7FX9dhCbhDV4pIvbAnNnpuU+iRO5yqIFJV8mkynTAg9FL/tVNxXtrVL8slXJlMYEGkOwGb+cqGOKdkUNXdSCbyVYcPEZaG6A1ej1bqBSm5Z6ubUz6lqPW287IS2dTwvprl9xZGMuSLJxxDDup2pNkxeNVL0yIxgbz5VV/RSCHVT4/naAI3suxUX46YNGqSXTtn5+rGtxXPtMcZ+Yn/WO5C+ExH7/rTrTvKaseIrMoHAe4BAELH34CJGF9ZHwIc3fvx5hdGPHu91/8uHD23TVm6PPNC9EtaFFb2qqXqgSRp9Zb1+DD3s/YOWy8pC6cKWqC1jmel52W08mFKWQiI3aoFG/NAgbE/pqdy4dxeuOUht8Mf5yIH7uqrOo27N61SN/zNeCgmrjBOZnFFNgrpPIyptTCMqS4sIyZrLsZXyHA+sgVtjcm/SozWtU0/CUFVJMq6jlUwpXQuyLURjxBA9M2uVzePqJ7/GuPO8e8nhebFPVTGos3KS0F8OzsyMMRPN8dWbU82IXQhjvYsydtw3TOL0fiEQROz9up7RmxUR4Ec/rUvZsVcY/UKL83/1/Lj7TFtVQML2fIiTopGZ7D8NGdON2V/3PkM1omaDl+SemkrLlqr6xe1pABs4SxY2O4a8PahGPtImqhNiR8MGy+JWGSMJslsUp5OJpQdugvFYyc85iGdR+1P9crfep6JnTvvZGter0yXDq03m5yc6QUwcLXYec6qdxcDdeZqcuPYwHegMq4YlFLPywEbBDMq1lSoGdVYeSEzb+7OvGWo2TuYtFq/0cvDzi9Pu9Zl8aFbsQsx31rJuLPKBwN1BIIjY3blWEek1IaAlYfqx3+l+psXBv9QtSV5hxGwYf5XbPUX96DM4FBKhvA8WhOQDgt9yQ8ZRk7EkGZ7dh9unWmvJsl5PYaiTNP080CvmKVOKtXJ25iTtsrCORMBMFR0Z+6Bf96X2Sd4O+RibhfFqT51MeHleOm9mbsqujm1KZ1k5D2dc9ADMvwjLOm30wMM3LbXLMu9Cy9bDadwMi40SRSPprjXWBjr4ty+FK46n5n7Mh/oyFM/5Tlh7Q21vzaXczmfX/Y8e7lv8b/RC8D+9PbVZMXRcz+0iDQTuKgJBxO7qlYu4N4CAnoTUBkYPtWfYF4/3tXHrsZ7SOupeioQ90k7ffjCI2Y9+/vVn8KwHARWtPDaG1QTG/dUptoP1YwhqBpSVvY1cNJVBELXejHKqtLgJvKlviqaMbuqUktxZ+pJCS4uoawxyC9kolbZxno1pPAqu1YCcjKtpZjCTCQdhRI9ZU25Pcizbvruz1LEuBfz4jbq+QbdxyVhbLRlGZ9DPMaNV4x7zoT7MimclFrvEs73zXg3TPeH/WP8W6ftXD0+7F290PaTyw4k8xKzYEKwo3VkEgojd2UsXgV8VAX7SeULryeFO96Vmwv5Wa8M+02tWDrRQmB97Hx9LpghSnbfvul4mRebHMmSs1jc7mFAeeWnWj1oPFT9Q9fAs1cmIE5FkIwZks0GUlZ2QGOHAWTXauy6OK7E3OWyvSKczOYxphQ3U5G4t7Yl+07mrxjbWrvv01INyLIs8Z0iSn2E8ru/2y6asWxscpcEsrdtNMAzUly5gWymPxiuFQa8woLM6atskyedcwcw0ywReavH+54+00Wt3rkX7nTZ6lcdJ44GnKAQCtxoB/hiPIxC4lwiwFlh3I7vPHu51PxcRg4wxGwY547ZU/Rs/M6tAZf7k8cQwrPNToNZ+XYd/iNjarJorGBNyjdm0bstVTaZTX9fnigcXkerjM3kmdkeuTD15O7lwpthW94qWyx1S4l1rFJYrEkMTB4b1YLyM/7aLiZ2mEFr3gxmmXFm3l6w4i/YuaNy3+uhtFHvVJyfOC9yYedFRZzzvKQrk/TM0sFI5oUMI430qaqMZw1HGdbujilKAhA3ayFiO6mdh/6DJTnesP46eHR9o7eZB9+HxrmaxO9t4OT/QPM9N1AUCtx6BmBG79ZcoArwOBBgHmAljq4q//Sjdknymv7iPeaF3HiTqNUImyvKc9AOLBhqIFAMHo1o9IPsgtWhWjD7aLUrZuw0yC2YwgpnUTgO9uqC8xWgnc6KThFnHZ8bG3GJSu7KGdJqSe/2YzbJ1A5LrRmPpTCMzgjGrSRnXqW279VhuTcqLXcOMzoye6ltfbcMDUpcrDVecEYv+K5esNa7Kg7bri6g89syEDWbDBgaVI7ICASvOU0fdRK2DRWs1oysF9+3/rtxHazuQq9KxsNkCFZ7o3+YFC/dP9GLwt5eaFbvoXmvdmK+xc/tIA4G7hkAQsbt2xSLeKyPAgKA1wHqN0Y4W5h92f6NXGP3osTZu1bb6B7v2s1/aqMmYCX10UIGsDSY22OTy1Ohi+hrwNPDVRM18Vid8GiFTWlwR8MwIVxk12SpEC8riNJaQPDoBKW6l4DGhVpOPxvWViz7rgyOi8UHay6RzjwJKhY8MKvFc80WVhtU8JfDJ9YvadF+ejrpNIKgqITHP51Sd+c/fj3kkrFxvApEzWkw+pzxLhyqv9o5jr7yLKXLMfEWl4C0kjf7c2vY1OBqUrMB3kh3393cPuu9OL7rnb866N2c7tq+YinEEAncagSBid/ryRfCrIsBYcqT7GVoKps1b9/Uyb7areKCdvPdEzmxIyy4ZaTQiSAYZ89GhfvkwYmo4GDv4eBlZe6TxpTJyhWYEcx9J35XSfIyXPC06rVtV+K0dI1dmgGcNjapzMgbps3EsVRV56kmaYTF72ZS2vPEFadJvrdKeW2aqQDyOGVet2YzC9Qj8Us9rfjLmawjJvxpT8bTyQXlQ0PWrCAtVxs3nxGxtVz5K1r+g+raPzfKZSynXJKzYjrQ3qBsUht85/gWw1Qz7i/1ItyjZzoInKd9qa4vGbKSVEAUCtxeB4Z//tzfOiCwQuDICPn5oGZjWgu3qSUltV6GtKn6htWHs4p2IWNWMjcpextpJWZLx428fVaFq/5iKMFcmVSNoyUOiOJbPdlllkFCPP1I7soElEtRp1hgmUtADoRagz3YlBSxzjnod7Y+A6fdq1lZWTQZrnJ1QDEwrp219xRkSYah0e1AG3jZWGFz2Ka+KZ4jrlOKy8grwbOKY1F2vvZkcJVdUZdEtmWRhau4XvXnBu8vKxxhpW5aE5WZHiZ81wck/rpxFVbHb0ReVP4qeaL+Zz/WX1Ef640l3Km12u9aLfCBw1xBof4PvWvwRbyCwFALc2uDQml+Rrh2Rr/2OzVtfagHwsf7MZtHv8O/qkZEht5RmyHIhJzagyEc7iPvwavXSpeyyMvhgVIS93xldqxoqDnR606Q5VC21u+qsx1kPsCabsMHYbYqj68hUAdkVqOJxDD3tWcd1BJJ80jzX28Pocxtu0xsYcTtWZRiIXTnBgrjW5HXEjUTpGz6XhKFlwI97cKnpeKFKkZe91ySvXbXYWR2n6nD96mtQ1abvIMsHnmhW7Onxnv4tk9/RK5EGalEIBO4UAkHE7tTlimDXRkAjBAOqtgyzp67+UrcjfyUi9lS/4GMDXd9OM1Lkinpwdl3TlLMBYZFwvv9Ub4OUFNvWsGWMKT4RWCF5Rd9ESmePduhLGgyWTkyZGPFBz9q2k+pzWvv0wddt67p5+drV2MLqup6GUzvptih9o950dCqx5mA8pnntz6tLKM5qtPJBjLPqcyVL2c50pI+gtbey918tQ8CQJblnlOajuNb3ZikSJjtrXSfwdsxn/LnA0xwAX8+x78/MzJ30aYcPh5mnbFPIwqzPJq9sZ/H0cN+WFDzTH1bH/HHhtpEGAncMgVgjdscuWIS7PgJ6h7cW5PNi7wO7HfkjvcaIjVudWEzearEhYvZnHrvWhsHEBiKlDJDkU0ZpdSAeDDwqJzImaVthdaPi4tGjG5qmktcxUplEpzI4Zw8lnpIprjebKcHMuqUqrcHr5yaJ18giMc+xnfU2X8J1qTHAtWEz32xh7ab8TEVjMbaBe1TzOgDBdb3RNH+XsxLJmH7dtLvpZb2FEThXyGlfO3Q+1VZjXorMHrBW7LFmxT7Vrvu8CPzt+Vn3g/YWi1cfFZgic4cQCCJ2hy5WhLo+Agy8LND/7NFe98UHh91PtYP+J9qMiL+sORhMnJDVrfREazCMFJX6NiVDHX5MU+2V6WYyCKljpM7H2KANGRsbMtGt776wEJ85o+JOvrHkSGfLJiKYsqmP5ItRRSSRuaHyVvRyth8kLZMZVC5fMDxyOwk7L/Q+kNS49TVXy5U+klF/Unlepxe3Z6QRRzpW8VTr9sQm+aDOYjOnvSa5UioZyap8DqXXw8fIYd/zym4M79ovLrDJqBWPlYsiM91yGoitMGUzq5lw4N8cNmxnwR9T4mHd128v9GLw807r9u0zZhuyQOC2IlDGitsaYMQVCGwCAdaAvdB6kp9Dwj440vvrDuwvangYgyf1Y8cYORvTQ1bRIlNhsOBTH7RVHzQ70/SMYFZpTAW/U3KvG9SrQP8sJsUFtyqHlWtBqdlopoajztOIkwHkdd0YUV0rqNy99pqs5SsbecyLfNT9Md0B+Mm67feAYdUNVM5qskT3zMeCDppN5aN2TZ762q/LLFULuLd2EIwc5tpOs5UT4lnFRsLAdcQmr3rI5oXWij3VOrFH+3qqUn+tXP+3tgkmioHAFREIInZFAMP8biAA0fpYT1n9zcuHImNHdkuSpyQL0dKIwIDCk4ak9dhVdEa7KuXqsLVjzUiABgO0f2rfboqJm0HorE0XoFQ3Q9wS2doxYqW+Otb5R936qNxdS9bWNeVG6655Yy2h8fjamRvXXzd1v+var2Pn/SWF4PCeyn7mdeiR+OoYnRCBH5/B94JydZj/sS+b60jBtrRAkUMN+XeU4hgBS3LzTNaO9lq5nNRcu/9cQdGufy6vktQ4gcu+/mE/FPuyhfvH7MDPv51VPIZuILB9BNb5zd5+1BFBILAkAvwm62l3vTh4p/v0kZ6U1FYV3M54qNsafPnbcaoZM0orNnPU/ML3v/e1Vbpd06gWP56h3d7epa0sadSDo2n6aKzCVDtY1v6tnAUu9xSfPpjWMuTuZVaeaq96TpRy6KVGk5qptlu9oZfZ0hRWteZUW7XOZF4gEtPSPqwDw15Ul3akmUQysDC9oelQX1+whQvzs8XYHxpTcbRyi2XYspWKvImxKY5YjouKv6qaJ6DZmDm9hzK9+uiR/p1PzW5XppENBG4VArFG7FZdjghmEwgwEPoPPj/KT7VA/zORMAjYp48OVN7XDvqq0A+56Y79ystH7cfj8kGLv8y9jVRHCQs+nPu/zHmc36Q6GfFT6rZOBFsi5N4S02rbsiZyO6lFXzPmTCD5Ta1wLu3RtgrE08uS0GPovSvnip4OKq9eGPRsqg0CJcQScW7XO7BKGE0brYu2POW6cZPU8sVc1gdGU7q13PKZAZG3mbDU4vhZcdT2rVLZ2BVMHVc6lI/clJVSftzbuFQ+q4oq6+4trZobyClY9FOG1OcGWBvGcSg2xobMb88Pum9Pzro/v2HT4Grj4KQW50Dg1iLApEAcgcB7hUD9G85fzS8f7HY/+2Cv+/zJYfehdoB8rCcljYjlXjNTMjpbIkdOlFqAbIYs0auqqm65Fw9uVzIC+adXKe24h3qgMlJX6Y5li75ncurF2qbua10/1Ve3re1cduXUOzziiPG2HtRrlSl5rTObT0iO9cP7XuMxa7+kZKJPmY5n8jPry/s0Y54rkE/djjQVFOaQMHQKCZtt3iQew0S1ETya4dMeJh+raBXnlM3cfUxcDKprMsq/5edaJ/ahnqB8arcn01OV/K0VRyBwFxAIInYXrlLEuDYCWr/bff5wr/trrQ374tGR3caAnJWZHvcsPRugR368fZB21ZKO6I4PUTSXbpkwiPAxU51sForCiK9aZBSCAGthCSSJbc1YJfOsd9fLgzT785m+QV1TmGi60Vqt6GMuVjbL6ADNcdOShdrHHLOVqhb1tW2zLluekwKt5e7TUlVw67CubwM0F5XQdCcM8NnqV6Yp67ZSTjNhQ40ZXE3gRkPdttSqLowlO3A9TwfMu2ra6z2t2+cPHTZ5fcxaMS05eP5A68Z0i3KZ73TtJ/KBwLYQCCK2LeSj3WtHAMLF4l32Dfu1Xuz9uW5NchuDEcsGQztVYVPfsSsAAEAASURBVKhsXCenVY3NWEHIWlJmM2My8jTZ+HBBWh/opbLX1O1RZW1UJlm9SCBkFnxbkTXcRzGo5Y3QXHggTd1UcaLZKfVJeetnXhjllqkyM2RhsoXlKuo42mu7nAfXUg/mdIK429vZbV/cU0mTkRWnXJuP3PTcNWGVgyo7aKoUlPHbfy7DZsyO+rYfU3rua5B6Hz3NlbUPX9iPrJ4JQxUzruGB/iHxhoynejKa15dpBYLktRe04wgEbicCQcRu53WJqK6IADNhj3V6oVsVH2urCkgYu+jzlBW/3HN/ovllRy2n9ktPPh+rDdjDliBSTsY8dY3Sngu8PW+4lM1LI01FwmSGwP5hewPFrjfxKtKqa02h1y+5rEwysBspF5uJjHcTP/VgXssx7fH2mlmH1EzXzuoXSduJUjGbqVXr/KwmsUzPdhnnsPpZL4M++EXKDdQYIfKyzaz1II2FU7AppLbScj8uaklYkc+G61WD1K7FhK73z3Rk5ak5yP1tdahLmJlWOXncpq/2uEXJv/GPdYvysZ7Q4TeggbDYRiYQuE0IxGL923Q1IpaNIcD+YE/0V/HHui35ib0geL/7QDtxlxd78+s9MViUIPghL4V+4ENUj3v14Oa3Q4aD2bCxQsY0kqDPYn7XKAOHC6r26yzVJTgrzNRa9WVxqHofuVyVOoshVVns6CDGvZ3IJL3SDKDkgmchfuCATdGTbPKo3nU0o4/T6sDvzGxSVW/ZGSetwnTZIGrjVpv0ycMEm/qaWnPEmdtlpsb85Ga4xqZf9aVSN612xmamC/l6+YxQdm3X1eMC8Bm7rNiuB6u/p+1Xoe4b5mM+/Ts/Y+uB5dS6POaA+hoEOTLd/P3iu8jBecY8283Ipesu+SOL1x6dPrzs/vj6XO+Vveh28or+MTvaiiMQuA0I2B/OtyGQiCEQ2CQC/HX8kUjYz5+yQH/f9hrih7oMljYCrNai2WLnn2zuA1TtjYHbiE0RjgwFORiFZYcPrkY8qvimyI0ROgUzbCf5wpx/3JWbVDFyHoms2NX2hGvlMYMRvxsR1QFsxOG4k75L03jOWPZGVlUXjR7l2J24lNtqUqx1MXYdb8PrSS3vAi+jOIeEUW0Xy2OocJxpqxWY8fipCsMU2vK4VeqD98NIX9UmZer4tKRzyl8t9xh8K4snehjniZ6U5vakeFn/b742inwgcIsQiBmxW3QxIpTNIaAdKjQTxr5hx3rJt7ar0K80xGRXo5P/cNet8bj7wkODWTWembqPJzUZq2cejCTJdT/U1K24Nwb/1L5HUUiP1JGx0SyNl/rsppQzqbN2XJhMik02WZhMEb+FhptUUB/oRtWVTXqf8QV8Y21xhcbkAwe1kpQX6lfGptsYJFn6xhh5a+q9gVbsbvlOQtKd3ZXvo+StzTIzYfg1u2zc+vB2p9Kib4EBVn9QVwhqLy45//dVBPMycm0vBNeCfZ6M/uDwrDs93+nO9AJK/yNnnnnUBQLbQiBmxLaFfLR7LQjwV7F+h3Vbcqf7kf4k/vL5sfYYOtB6kTTTUQaFpnUI2nCIaBSmiiNGNSkzsxGd1h2ts7arPjxWxE1VURta5AG41Bp3W69flQ/LegBzYpkxSYZrtV/33f22fXX5RlKcNw0Qg8cx1oYTnJosuH5JPTPmoJK5mqXZocsqNQsI+dTCfI/FaJz64zHio/XXkrBBOxOF1seE2qy4BNZ7IDdJwlTpJsXZjKDUWIZ/Qyw9ONRTOqwR+1B7i+mNZrbp61AzSoHA7UIgZsRu1/WIaK6AAOMoT0o+ZJG+9g77kX6FeZ3Rcy3gdR6RhqNmxM1t8kPuNavOkNVjhPnox5vMhtyzDzAo1EoE0ZMxn9lyDY9/px655JJ6PLueeZFya4983tH6KLreQBHMtldVleykv6IxlhH+sFiMdYCp48rMohGHXDfocFK/0tnWU1nQtO+NEA8xpNmpqQbm1yYrYORgZqb0Iwu9ztLcYfKp3IdjeCCfYfp4xi8n6q0499SSMGursvC2K9FakCc/rXcL00iYQV43Ql7qsxaSl+vSGuQyRnJ4oBNrxT57dNG90VvA//hWa9G0VmzU54SrEAcCN4lAzIjdJNrR1rUiwA8tj7F/oNmwj/TX8OcPD7vPtVCf2xRlkb6P8gsiYYZs3WPmB78RMJ6Mrevy4YdB0vhIM/AQ0UBU+aWuHoCdUiLnHzlpe4zdpE2ER5rWWGvR+/E4xvvR27XDH3udcVzW6/VUTuvkUodsdlLtG06mndvNnai6nWuvmGSHluSO5WXkiTRNuHdM23h2MplqzYoYQxlh57aWct1rI69ET/mqWGtZ3ogkOgMHvVpp23zN85TbqVTIVsXe6YKc/TFjfZoNyv15WlxJgAyLWauiNZNB1wczbSmmf/O7WiPKWzR27RVn/n2dMQxBIHALEIgZsVtwESKEzSGgu5DdJ493uy+0XcUzrQ070hSZL4ZftZW0nqwfKvpc40mjwNSgYTY6lUmMrIjcyZJ7S6RFg7HpJEXLVw23A623iwrryCpVd9uncrargbGeVKMSH/i1VA7qNk2OX2+o95Zy8scA6D6NmOVRn1joo/VL9llsdsmm1JqeR19mjKTp/TFfxGHWOdacv1JS+XQ/3kYpI7D+575QkftTE03r34Q/9+n6lHsZDlPZ5V6H3Nc3OY7IirFniccqlHomly2RLInrc62Q8labVNxsVmlM0lxfVPjO873hqeD2aNvxetf01OWLUvT9O8p38Eibuz6RkHdP6lmd7vVZp7ViPZaL/EV9IHCTCAQRu0m0o61rR+CBFol9on2EfvT4qHuh7Sps37ArtFqTJR9E3R3ji5EWBBpwRo92RPEy+q2N15mjVLD2az01eiEWY4v30ZOajXNZh2Tgxnyl2QLIEnU1ccrVfSxSSLNiZPS/ErPRycmW2xS9LOjbrgzrul4hS1Mb1ofRqL2llNpASzD5mHHnFSuk7s4HcS8XFiFfXONEJmhReKTE8pwMz2zId8R9pPmtVOYa9TXF1DLWDylg57aeSdd21tLklZs+JvNW1SSntYfSxlArNTlV2egOigBkHRwaU3ISOdCnoMqh9ozGUoIpH1qN0O3pyrDb/pHI2OGJYlEw7Xd4qUZCKRC4ZgT4DYkjEHhPEGB37a77TLckfqz3Sj7i13iDhy/oZ6izD6cFB2OUkTVPs77demxGEYhNTfyS6lCJJgczX9kvcj4cnqZSPhdhynjRYsOGZvRx+bjtQDootHZ11N4n1/EUB9bjLHC92rHH5zJUa3uXL5emTrYkZtRWqr6Oqu6L2VqdrEiVTA7uUq5tvR3jLF5oUwz0KX3UhRn4UKGO33xlZcsPKtHFvvfQ5/qGkZlcJ8972mtN51IbfT22YDKDiztVSvaqx7SP1IDNjGlG/Jk9RamF/DHaXRXysL8mBOKreU3AhtttIHBprzT6WLcluTXJ2jCOeiC6alRGHBJ9sJmQpfxpoHQy1o+wydIIUO3EdMswnGs0t5JHHQYXJ4Q+EDEbYhYS1JZ1npGvxCCvg7qK7bjPOqR5eeKZOqjxastnRbewNwCo4OU+I1kOxNO6jaJfC5fIJ6KyhGJWgWDYZrtGbvLDAqqz0HJ8jleSeUk6fdYMSrFkUiMUrR33m8TWhtXlsiUSmN/sw2bB7Bec2GrFlK+/9zO+snrxh+9ZF3MlieJhmD/uUxdoxhcqqvePO17lWrqtp+6jTS2c/GU64rVHeoJSf5tdeXa8bSfKgcCmEIhbk5tCMvxsCQF+yi87rcnVbNhO9yE76Wuh2AstDHnA9vo60lovy274BC1jWBges5JELIwwjY08GFRyK8JgsiMb8DIjsdtdytvsUR596aWTsdqVDdSEJqHJsz9jR9mW6l35Y/bCQ/AqyuYj29Hm1NOkposvfXwmxJuTaOZAv27TCJsMkk3y5u3TdeQJ7aQx4/AKAo99wGasQdVkMJzUWOs5hPMcreNlKc50WKw58KTen7N5spYRZfdhxpTt4zc3s8ArcxtWNGfZ4yBJhSxyyxxxKc6U+5rZ3IyvVpBNSl+q+io7cDwlHygNCvMtStu5Z0daqvD8eK/7/vSi+/rdeff6NGE7cBmFQGDLCAQR2/IFiOavikD6YT4SCXuu90p+JALGBq4vtKOrveC7jLJXbWfc3ghRUwU5czLiVYUUIZgZSCWrxxev97SuK4oapMVeqGK8x0EhTSonHtd33l2h6YfXMnilfKI6Hp8NapUhlCHNgFmDM+TB2vS2UZGtxab0UsGZKwmSda5DTQLHh1mydnG32VU6Hv+m0gsaUGc9LvySZ6YqHaYw6C/xWtxZxW7PWaDYJv20VQVl/ed62aMVc5v1d8X0KoySHrGoPa43jepwf9ldklnUtDd+uC+vndLz+jrNrSbnXGgdyKZ8jMVnRkucpnxiuqrfh/pj7KV+D745Odds+YWenr7sztfws0TYoRIIrI1AmjJY2zwMA4HbgQBPRn2svcN4wTcv/mVTxz0el5z3q35toY/Rs4nGFKKNa2lsMyXGWoouYgC2jyStZ3QgBU5k8hiZ/JgPbK1YZF5CXFUpX4PV11hOpxRDskZWnkZ11cq81sXCY/AeeB/NG77RsQJ+U8nLWbwwGVKpheq9QjO6N8Wkp75V3RMh6MnVoAJt6rJ3z3n/rdpUElmvSZgZCRi3NUS8XYHhs5ElPldEJwtdlJs3X8hMnitL2ZUmUtdLZjqnjGnbLdvWLhuU+Nr6JcpVE1k7O1Xj3scl3CQVYcarzh7p1uQTrRPjN4LVCmz6HEcgcJsQCCJ2m65GxLIWAgz6jzQj9ql20v9Ue4c90pNS9l5JDe31ALiW8zWNIBy+lmuhCw0MM2NDHn9awoIi/U1HNWwpW5WaJsEh2fAPnhzxAY57agx63HCKKslIA7hNvpIefnqfKefhemo6ZkdO+sSRHKWyzoXkmWTZU9/yshamVweWcay7aqTLHdKEPlYvO1KjTrlpSIjbegpuestOf0gJdert+mZFZrsGTxlKz0iN6lGxj+tSx385xXmuImuH2ybD3ofXz0vNFw7Kp9euSRjQ1SptDL3VeA79+lNrWd/qEFZ0Dsb8DrBE4ZEYGBs9s3whiFiNcuRvAwJBxG7DVYgYroaARoIn+qv3s8cHer/kgf4C1oPr+mbzsSMPkldrZD1rSMpSzUtpx1lS25QGIBuwK7l5tYEpjU5GZnJ9zSvG2jZYqgqHCXNsvcryXrBKnYilaCRdVKyfMnB760r2ZS6yn1TfF7xtJHza1zzRbzuySS7NJqofzujNqiwj8eZaXZdDOs45cXiasxSpKZ9cDwej31ZfyyT3w21cDyfIAMVnO5Mg+zFDJ4JZ150pNducuu+qem7WbHOctSJy+uK+uSQjarXJTB6bdQ+wWfWAdDE7DgHjtUePlV51S5tVYwj9QGARArFGbBFCUX+rEWDmhMH8yeGOtqw40mtNDsoifUaM8ttdMn13/IfdBxNPe43N5IykTLjy201ebWE6O8lCG/jyCGj1OtkaJXUg3a5JQyNkzMoo1X1PRcOC9VCQG3A7rxhCNkktZp1L+TMiJGCMDGSfiRjQK+ZkKowp0Ir+Jw66cUFDZpeMDWP3rwplywJ/a0snc2OecgtSYnYRAlT6qPr6wA/xFuO6cok8beLDZqTMGUZk8MvMUypZdMqjz4cKyyOjeTDVkWK1aiunma6si8SMc2K2nIpY9movx6GsHelap3yqSjWGadbxxG28PDf1700VlPVlxImJspxkRGVuUxmegU7dr0HFkoV5cfB92RNAkDGenvzu6LL74ey8e6VF+3EEArcFgeYn/7aEFXEEAsshwBdYf+Tq5b57dmuSNWLH+jOYwcl/oKcGC9OZqlyu+c1rMcI2h4lquWL2IgNNfXjRpA6AFKysE2THdJQyW2Dy4i15KrrZMWWzcz8TKX6Tv0SwzK7yQbboKEM9IQ6OSmBx5kondlZMjQzMKEyIZ/RckL4jalAZ+mdNN06cJJhYp4GO7Cjjh8NTe5oS3UqOpumaYvLjthcQvcqePH3Hnjwnj4NifZQ2JETXP7XOonzxnY2dhLmvQapCXca3YbOgEbdJapRyTh3oSy7dXEpsO9yeFBF7rN+Ix9rcVcvF4ggEbhUCMSN2qy5HBLMqAizG1dPpdtvhxdGBFuWmhfqr+kF/OPD3HnxQ7CWbyzHT40c7O+Zy0pkYNHqZpY00eSbMhjQRHKvQADczwqW6MvDKr81aoS/dGXVrOJ9wZn6VoFi167Eh8j5kl3arkaH2wqbR8hooVZqPyjVZO9xQBY+/kKSssskEOugx1+uziJn26arFYXlKCJChkeuSqMgdD1PNdgkbV6Qm2aanIBWF+cszgGbjOrRirpOgOltcE3WoTVtWTqos+vZJhqmmzle6dXZKZVJuFX0t2Cx7jM2oTdmCj33XlXI78pGtFYOIVV+yKeOQBwI3iED8bXCDYEdTm0WAAY+noB4f7ejWpN4tp1sPD/Xn7ibWgCQyk+L1AW+z0c96Y3iYNyiNriHL41k/M5YEnFkjB//BJ2X33etKWA4eLqh0stxxcFtz4g7RrxRSG1CbpG3nDB5jH/KUpnj61rwxpSl8E2Bf/GeVOqlUa/Fa+XqAn/ErgZFJPCt/LsaGzo6Ry9ycgkVqtnZKXckSkxsxSC4SkStsNBmUrSmyy5owZ1FJal9FWGVyCB7EUik2xa7xNVVXqZXsPN15fSoONpGxIDjZt1Cz5iJi+m2AjOn/OAKBW4VAzIjdqssRwayCAD+xWp/ffaptK9griD2DNkHCPAbnGJRvgow5gbGxQw0yjLQHMbWxgIMNOapMA11aS8XTbYw5kIw0HKGYvEJwrAUV0Tl3J1k3+UM/CbjZaLM20rMYEOe6JFDBG1E2T4DVIlPzCovL21Rqa8Dkkwadn+DD4/c+2+yY5I6DuzDTFU7ur0WZLtVkgXJ9UPb+M5MGjqS8x9B0FRC+azsjeRLUsdI3j2Hg321ViY9RncogtZPOldgCMPtKSJkYOBzjVOrPgxh78dzcSOvSV/zjFXN91YR4nqL5XqEByBe/D5Ax/b1mfxBgvkaI88KKukBgLQT4nYsjELiTCDBoPNKaj48faQPX4wO75WBbRvhoo3qyDJxXPfCxCT/LxMEgCSmrwx7k+VdbCZJ+8tzPIEGdNNDoVKkacfAY6hbMpTpYt2t2bowfPnnkMiyoK+Xkze76oMd/DWComw8iSv/brcukl0gjedMh9UBJq4LfzkXPDyN+XthImpz7QO1kqnUN2WVrCucE9eAOocOu1OW83QrFcXbuWdOzQiZhubFS35tYjZl7g5VSlbUmvIyR5XViU9P2Q6wWb9ZTMvdwv9VlMH367X2e66CppO2lDu/EMso5OPYUPNb0+QNbupC2sKi/P8u4Cp1A4LoQCCJ2XciG32tHgB9S/sr9UDs1pk1c0yA+0zA/3Dd1rDMCTcRWU5HShZyxQaQZAV3HCZCnRnoq3SKv2vVqH5xKWTpsKWFlUj5NDFb2xqWPDz52kEdGwfM5TcLZeoxdP5n1bVKuj9JsydS103n8J/JmLRVShEVufYbEwmKMZGS3NJmIi3Jy0156JzWoo0u93X4ktXySW73LpKls8kWmOuqi6Zhmr0B/rE1V1m33GsqprvYzqFuhUPuo8+t4J1Y+yxyXzDy2QM8zzLoMdMyK8baNB3z0hE8s2p8HXNTdJAJxa/Im0Y62NooAQ+hDzYh9pHdLPmM3fS2KgihM/XXBEFcvyF4nmEIwZEy+HRPSPNQ6nsdtfPbHa20rhVxg9on++EAIHn5AJuiv78tF3uqlzKBHHjvSsqUFeX2MCKlj7hdN67cEZYbN83JgejoZgQEQnPLhwIALkgNF1325CmqlTQmN2OXUfJtCPg2MUjPms9ZZKS/r2kFu0Ab87MeegsxqM65dv6pHVMhCXU/HrDJhYFVZ5CBatU5gNPZdLX4JRDro+/V0NmM+qN/ggc/2GMTSVi4oL4xRClfxP9X8noA91m8GM+lsEfKOUxyBwJYRmBqzthxWNB8ILEaAMfmx/qz9SFtWPBER29Nfus04PXAyv3agulzhhn7D6dNYv2jeSA3RqjDQsUIvoe82EyaR3T6sfO5W/eAHIZkOCa3LE0nCl/Rokw95jOyjU46lyPGPjvs2G4uoCJNpspXa4HA/6KTglEhobWZNmuCzzAFXRLfiRWbGLUP3A3+kZOvAitOenJqe+ZHM0qRkcjEoZOaMpNZTHuILeXK7Ul91qCVhuCsOlXP7QsJyrclRvakjBbZSazceY46O6w0RYxb98aFmx2L0W+m6hfL1IRAzYteHbXi+RgQYlCEULL5l77Dnesl3eix9vFH0GTP4IR47ym7pY5UTsrExaMK9NT6mP+F6IK7tMn0xkmBydYc2feD33kEk0tFYS5mZBqqpgdC0Mw+MTzZYqi5tq5A80Y4b2maviOWLtq3OHCJMs3GmrhO+mBmz23IqoOttUMXhpu6nLlvfaFgjKYOp+UtmdqYdDmwWHihLEXzom+XdKDsor/BRMI4NVbna+kve1nq5rdeDh+dJVfDbkVZRB0ud/Zf0EpDIdEjP+m2nJOPaezyocNRtJcn8s/meUPHQqG71UrtoNDW1UeV3YVzZTdufysVaWXM7ERMOuT1pREy/G9/pJeB83zYdw1qBh9G9RiCI2L2+/Hez8/zO8oPKOg+2rXihJyYfaxFuemKSn+LZX+L8uz/ZYUgdOnncm9S7rRU2oBBc7qghwAkC5EJLmUmyCusK/bWyMjVGECXu2nBrk4HKyY/5VV12bTknNEnYV7pHmkPf9hJj+i39b4OgMSIEUrBYpKeSHaQQL45yG1Z62YWkOFYrWcfakLW/19HbNz8KgvriXFnvE2LIl9sbiVWl2csYvXqwxh/6dMBvYSIjEFLLp2IhYaib3yxXYkQOeX14mRkxrhyHta+0vZLUoWH9opCPxqWLF6br2rWODdexwCpFx7YSbSbbgtF45Xv0QCTsiW5N6qdjcF0b1SgGAjeGQBCxG4M6GtoUAgzsRsK0f9gHuiUJGePHlR/Z2WFpuVYZpueZ222rq4xUcm7+23Dkcx23Hq+TDXPrDShlQKdoMz+55UQmaK23Bss06CPL3iAY+k/jVCIrKhvZwh/W1k5qBP+sY7M+qFEjG7ntrJiC0cXZoSEpMEPkZAp93+zV3MrXbiZX6ZVFKaZUp7aTCwsEGe0SD/3FPa9tOlMGMpDIEr0lRs2G6jSz5k5yjnpmcEfGRiYkx785J9VBGz5jVpMwsEWXODhITUKaZRZ7qk4+stz0scl1bkAM2Ho/S33WQ14OVaYIimSQaW0HlblQ+xvV92CyPjqjetTXzihnxZrQIp4+vNdDDft+DUULS44/qd+a5E0ch3s8NxpHILB9BIKIbf8aRAQrIgDh4jVGvDuOnfTT3kCQhRUdraDOAG6votl0G+qLDTlr+oU+pSErD8MUdCSZ0uyXAawnGxJCrvQfAyN4JuLhvpIHJ0xWZ2wHuQ/3aQbJJPiWS5oatGfafbvugo1Qy+066aT21XYe6P3GqZM174u1pdOppur4nGjqC9LFgmvIETN4p2Jip5KRN3KkRo2EycmBmBizprTHZ0/9Z1sDfZVsgCY+OkE/OBNOX1Y21w1ImqnmGcNkmGwEhNtnleRXbTiRQ+4PSpgpBgrCCJgZmascD4J0VM2U65w0/eyaq6Xud9IKfPKB7kL9Snl5AuZGs+k6JKz2wvVlhvdY0+ls/HzEd0EKK/Wldhj5QGBDCAQR2xCQ4ebmEGAQ1bIwbeIqIqa/bI/LAMvMDMN4NWJsMCybTRlxTZvMlFzlMBLQOPCmbKCY4390IJFxsa9sB2RMGlQVPWUgP+lIODoZM7HqbfZKqQ2sSvW/jWQMkgxybGyKjA+EgtTaoIMiGpAe5iFsV/rM3qi3AREV8jIsZEcXG4IGvnzOxLC+Pz3v/vz2rPuTPt+enHXfvzvv3pxddCeqg4SdSp+Xb+OLg6Zplxc/H8rf8f6e1gnpyTl9d55oQP7gcN9mVm2NoYywgxPx8XVgVpYcEkXYxIceSsTlRyJ/ydYDsGq1z2EkLOsn+95PKkPgUM5KZtWcCEYH5zGtBdZmu85pqr3iSwoWT46vyNfKpJ4tIl+rNsVvR/oO6LugKV+WOEDa+cQRCGwLgSBi20I+2l0bAQZ8Hj9/oZdMsn/YkUZZbjkgz+Pd2r7XMVx1MFi5jSUGicnBNwNiM1XKQxrSmjAGzUSacA9ZgQzZkQWWCFHXo46BbEA8JMOWERh9rgEphMTlKqZK6iQ3HxK1ZCxdPVnLH3V+O9gJ1muRrdciYRCw//jhpPvdq9Puj29Ou6/eIL8QGdOMmPz7BqvEQWicuC15qPb1TIdec6Nb2ppN5fvzUluffPyAWbR+nSHx2VEcpPB5oEP/p/6hQDlpJvVc5wr1rdVk19tXZuanEE/c6j9CcN+eYoOfRccSKotczNTjc5Ffq18mwBnv44JFJGzcar6UawvhPtJWNzZDqgX7l2JhQcTm4xa114tAELHrxTe8XwMC/JgymL7UbvqPNLuxrx/VqachN9V8Ghx9hB56NcIxFE2XNFotGtDcuOipWSNSXqG01BUZNGYo9ZJFnUO3mSdsKGuk25HjXJUGeS9kFVQ5bFCUQ/pqKi6gTh+TK3OhBlKs0oKooC+5qeNIB/btzJiN31TQRko0OF52b0W+/iCG9YfXJ5b+8fVp9+3b8+5rzYJ98+5Cs2MX3atT3abUNJtUjSQ6YbLrQnCKiX7T5v5p132/dyn7S5G4i+7JqzORsnfdMz3w8Vyk/rnSZ2Jr3Lp6IPZmBF9fOK4/kZGScxLmpNTk8u88BBJms4ammmyow9bs8aHDZtBIrZBS77/rlbI7R3fkcP8jVQtFtGF4jWiWmD2gCZ3S+ZH6ZUX192SRzQI4Rs3pAn8sQMz1t5xtYYGfM33W8TfaSAgDgRURCCK2ImChvj0EfEBiQH3IjIZ21Gd9GMRsmwcUaNkQuNW31g9+0wDF2k+qHiplypCYTQaIwdaIkQYe8tAwJwM7AtJuvSFnxOKjw2bQLGNFkRp5zrYmljIzOtgn0tWTO/eRLJMvcy0brpvZyZkRQlVAmJAxGwYJ+04M69++e9f9w9dvun/7/rT7j+/Pum/ecvsxL8pXSmvEjXWKRFmKfiivpnQkIQMxLdAW+eP9cxGvM72hYbf76ZOD7gu9wPRDzZTx/tIDfdkOwAhrncyDMqROwqxtXFpllptOuQLJVjoWZrZH3crZFBeGnxxlVwkfyf1wfS97Wsu5NvgqTlxpKpWyXYepelzVwc7Rm6palmDV/ZjytVDu4I0o8i+Vh0FYK8gu+9yePNVCvUSxRwxCFAjcAAJBxG4A5GhiMwj47ysDOHsBMYPxWL+kELPrPvip3sSBnzSsp3Gy9ur983bqOpfVOsYnqJCwlrtuepoxDer4KjoqWFkC88GJEVAf5OWjjJON5BMPEqb/M2lgEGfRs9qp7O22HEY4M98py4Bvh9pk7RfXjjVjuzZSX9rMxPciX8x4/fv377rffH/S/dsP75TXLcjXF92fNJP1RtMXdvsxOZe196x4T234ma55XmkibS5IpI4F/6w/O9fnW7X/0fGZblvua486PocWZ39Lt8eFrrVhpLYS7pbXiUX5FoQMkHmkqV5n4WEykQTzmd1ixsF18Dw2Pttmle1JCugse6TvpLTnGXlQyzpVtKnL85xOO8PK+zuttVpN8SmseSIYMsb60hM94PFmNVehHQhsFIEgYhuFM5zdBALMZEDE2D+MNP3k30TLm2kjzcgMfdmi8JExq9ZlCB8dD9OIZw6dU7l3sDE7F3gqGzNTm9ikk9LcAGSXA6xtALPY5It6M5BcpIEZnKTLrBQWdrI2UaPeSRlxWFNZy0mex0x6LuHXWgP2ryJh/89Xr7v/+se3dhvxuxPdfhQBYyaMELwVWrzqAal7J6bEQn8eBPjPVxe6RXmuWbHT7tcvjmyPOgZsTb6qQ0MS5k9/+nXxPnlMxGmxWgYEXOB9UDnjScesHh0dRswkcBv7jqSqpc82O1Y7HbGcS+pG9KdEw1mvYV9aG8erlXuZ78nosaAvozYSYuam9h0U5uysf7x/2b3W2sI4AoFtIhBEbJvoR9trIcC4xQJ9NnE90gDp49hazm6JUf1Eps/Y1CSMMCFVvseWh10GF0aXPNp41nV8Zoyy61udFF23pBlMBmd0mQVKdckSKgUfgRR4jSlIlvYdk7apZv3iWL40UtM3IwfSp39o8aTmqws9CfnmvPvtq3fd//j2Xfcvuh35L9+806L8i+6tZqm0HMyehJT6xg96Qm8hZKwzY2uMMz12+VYzJdy64viQNWT6sPUBt7T4Dxt/wtG77LcpKUM2TG56iVgBBwQryZXxI+NNsbcjX2s6mMmornE3bQoRvonDmvG2CHPTR/btTVzVPd89Fu3zBOU+f1AMob2q+7APBFZCIIjYSnCF8rYRgATwpYWAMSjyY2o/otsObIPttwSsdm0UoBroIERlrK7kNq5UoxZ2HJzrmZWCnXQ9jxkEzAhBdm51qmD2i3ojd8okUpV84zxRK8iV56REddalb9Y+xEpySBi37bgd+U9fv+7++5/fdv/4zVutC2NriktbiG+zTNK7vmPoHKLE7c8zBfbPl2fdH3VL9OdP97svnx3burEPeJ2WBm8jcMInEedMzGTr1wM/dNzK9F8lk1k+temEzjSRW12yszPYWUYn2kxmyZnXJY3p87J6lYcxAsf1Gj3ytfQ6j3FK3fUs9f4MhMMCKkuoDY0mShBbX/PIHnLHeuinfyPHhFGIA4FrRiCI2DUDHO43i4AekOz0oKTNSjArxo+o/eBz2tSv9WZD3og3ujY2sPmAOdb1KUggUU7Gip07F1EyuzyaOiEzcFVBLfWQD0hZ2hU/dRFfZRNW6kwsfemmfNIzEqd61pW9Fct6LRL2O21H8Y9fv+3+25/edP/+nWbGRH6wKbf6aLQEm/xs5jzrmDb5sFksZOw7Tcft7Z6J9J+YDDLJQyJQL9BIYSWSZGRFgTu+3m90TE9YJP0UPXpEYP1URapFonxKLI9SviSlnDLzz7RVu5mvPV07iKVRa+uWaq8GofHXFldQLaZu08biJIzvLn/EsTG0/p6zPyzOB1emuIpMIHDtCAQRu3aIo4FNIcCPp3438w/orgbDtIeYUQP/5d1UYxv0Q2jtgLCq+yl7Bhbq6uHdBnUaUIXVjWADjcDKD7PJ+iajOh9JMwn8VlmatRMZk463Z3qKx/1SB3lgjZjlB1Gmuh9Ewv5DC/L/QSTsH3Ur8l+/1UzYGUQx3cbMIbjLUsw9q8rrZnsMxjycQZz0NAFbXVxenmgdGbcreVI3vWReX8FEkOinHPiGtvhyXEoLWYc6w4U0FxKhc021meCm1o4BCXPhkulathtsfyZM72ZT4aS1EW+0WM+I8Udc2oOQJiaC2mjr4SwQGEcgiNg4LiG9hQgwNkDGWLdzzD5P+dYkMp8ZqsNuB7O67ibzzZh2LU0nOpZc+xxN3dD4MNNHBoY1mTN/uRo5WQZ0n1FgRgwdeFd6YjINZeiZXKkNrPnCGGFTjclkC8Fho9Y/vT3t/umbN7ol+ab7n9+edr9/k2bPnPDVfRjmx3s01Ll6iT6zllvL1mw7jf3dc73N4VTrijq9Ykt72O3s2RBONI4fBKwmFVaHo3wUglbJ3BaV+nubbMe/3+5vYcpFWeHwSFc0S1+AFdqZp5rwsG/hPLXJuqnY/furr6L+oEtLG/jjLo5AYJsIBBHbJvrR9koIMOjzVywfe00JT7KxWB8vnHwEyV5rclYPbrn6vU2YrfKB3cZ6YWMYVT12DgCmnodV1TAWmyxEF4yBOc2IpbIZqc7x9suQynkwVT2Ejf/Fv2wn/D9po9Z/+vpd93///lX3D9+c6LVFiloXymOvwt16lqc5TxTFV3qg4P/TzN278/PuF0+PtVM/FDMdjqOTyISD+pMrKCeZUpPN9tXqdcpQmz6qbudtrZL6dWltaMOOkqmKq7RZBVcT0Ox9rWRZCua3gJdtxHEl1U+Hrh+buzYALOss9AKBDSEQRGxDQIab60fAfjzVDNsI8IoSnxGzH+1qMBiLZGowGtNtZdsgcYviXRSTD2SJaCVqU0NkpIqOZiFl8HUyYXYqI+NpRzyYatZDjgAZswxe56SD9m2QtAqUOdJTn8wwvdI2Eb99ddL9szZq/a9fnXT/U09HJidJryog2PoBeRT30gweM2PntlbsuRbts4UKWOU/B/Rkp3AycFLIjgcziMi5rkCCCnXIvFw6mXU2RWrwz+Gph2ft5piSRnV2pdqwqh7Luv+xuuuQ8f1atU3Xh3vt68Lx0I+tM+UiruztOnoVPu8jAkHE7uNVv6t91m8lf8X6rBj5a/ljdsu/yTZAbvAapdsx6fZi7dZmWtRXuuuHjUe5UOQZj5y4qhGQNlYnZZAMvzYQChsAJeO23IlOv9eriv5fLcz/H9qm4rW9X6a4de1acGvyrAF7e64F/Hqik3ddsr8Y21o80swY2BkJUx/pb+ozqeUKCaMzRrIqQJNG383Zsnvpddoc7pyAt3WUqW8PvgOjx5R8RHkF1RHr+aJVZ7zme+triZmZMH5L4tZkj0vktoNAELHt4B6troEAMzOQL2bEePWMv2PSZxnWcDlu0owsi2anxpzYgDxWsaSsGqNHLTymZdsZG6AhDjZT07QwNmAby5Ae7frgyCDuxK222RHLuMgV6Opy5YXr6TYdO5lDxP7bn19rm4rzO7WhJjNjF5rS+147/P/+9bnWK550PMn7YO/AbteCiX0y+XJoJc7MTEm+uMhM7kojqenI4TLXOflK571R2jXSwEQMfj0XxTfu8epS67fQua72mcHkPaIscfA/GDzqfHm8GGkgcO0IBBG7doijgU0hwGamh/mWpN1OwLF+qa/rx3rduJcZNOf59i0g5ulsqg6+VAbdOViaTq7323AYMlTO4C9i4kTR15KxPoyd6789ObOZpP/Uk5K/f6VXGZ1c2KL9TfXnJvxALvXe8e5PepLycI+Xhu91zw54L+VwhtZxsTRjZ/FVeeoc/7HYDV0UzMmYRiPLzpwsD2rlgxnLee25/rLNub6nFm/u1Lo+el/KXdWJOxtJmQnb18mIGOw5H33OJZEGAteLQBCx68U3vG8QAfsLVotrH+s2EH/JLjOgbLD5pV05CVna4AqK89pahhDWKELK0iCUnoisw5oZ2Mto1XuoSRm+OEhQ9XVm3+kdkmxX8RutD/u99gpj01ZNkN2Zw7vNTv9fa1Zsb++i+/iBZvUeXHQPdqrvJR3Xh936/XBbL6dU/R8KhiUzymAKyYovDPVyyTR1Gm3L5KmG782ypGysodp/H53668ooeIXLVkllv6ivq7gb02WNGH/YQcj89v2YXsgCgetGIIjYdSMc/jeHgH4wD/U5EBGLJ502B2vtKY2d6VzLmQVLt9TSEEweLQZ0JHxMB7KQy0rsMG+aJTvTiyL/+Oa0+2dtV/GbH866H1TWuvc7ebDWjReFi0/aS8K/035o/KHATG2aYUlEwshEBSfYgFZKE26jAJhCZTiqNCukPbMaM/VGVZdIOoKeSM96m5YMSLd5SSTM2/ampj1sv4Y/FiBhvife9iOKCO4rAkHE7uuVv6P9ZrcA9nCyW5NKNQmx8UOvGdzuQb/0qY91YpqaLVtmpqxu2/OElGYOMpXQaOu+LFwbfTWw59jTrIsGaLEDqrg1ydqw/67NW//zh1O909E9370UIsbBLcrvNavHi8rZqZ0NQhnYeW2THZ6qYLOKsoP6IAYX9Kau0xyalnxPnI385fhGVbxO/3Z6SjiquZQQd+7SUp0shqWst6fEdWJWrLpE2wsmWr7XCAQRu9eX/2513v561WDHgGezDncr/FsTrc1iXXH0Yfi6lKMBiXCfPipXPU4zSBfah+us+833Z9oGIm3qismIemV5e7P0CXL5WjN73HJlrZiRq+rL6UTHiZthrx471x/gd9NddeD9um2iffm8CyTM2deurpX/4bCJ7oePQGAdBIKIrYNa2GwNAcjYnk6MHdf1A7qxWbY1B6Wxfk3FtM5MGRdvIQEQwD5OT11suwrS41r4YftmSeBEw+Vnuo335vSi45VG32iB1SuRF55AXNSG29/WFIL1g7bf+Fb9eanFbvRpf9CpvMeaegpBGVTN6ZTPNM5RGVQtvJ4D7VQgHr5r636HRlwWkfldtrPF6moZx2wKC6+vW7EQ7QvM6YYDrgOJ/L1GIIjYvb78d6vz/FRyJ5K1OHxu/dGGeA2/8xA0m4HIvknaZtfBad1QuXXJLJBvnwAxg5y806r1H84uuu91PxISJk6Wt7RYJ7rbYwMReysi9r0I5ruzPfWVvdJ8HmxxnH6tCt4SlPxi814DR2sY2nen97Kx3HX5nQzQgURhRSyS6RrgTQYTFYHAaggEEVsNr9DeIgLc8WENzgNtJnZXFusP+GI9WGwQR2sj+161ibHZEPOxxrjkMw5pvjJ1EGIGMXkl5vWN1lG9Fhk7lyKy9+GgG+9ExN6e7tjifZ4APRc5hiC3MzOOT93vTaFgfpa8+G1cdTwbyyuWTfVt1ZimsEDeQkSZh0xY7nAmVs0fDXEEAjeNABMMcQQCdwIBCAeL9W0zVxXaH9U70Yk7EOS6YxEDvH2aPvKC71eaMfpWn7ciZOdbG6KbwDZQBCuIpZaI2X5op5r5Y5asvL5IX1II2BgJ20Dz67nYxD+ciX55X9f9Dq3XoeWsprrN74qtP1Xa6/S55byHViCwPgIxI7Y+dmF5wwjw02hPOpUFtvFjedVLMLX2bGm/kA6U65FX+frKQEreaKqIWTFuUc4sIFu6sVuoqL4yu8dbmtKHfcF4iEF/KNQgtKFLX/9v5LBm6rYW+Ua31r9iFEuRzCamudhU8TDjeG0HMakBSNiBPqTnAibdWL7Ohq+tR+H4jiIQROyOXrj7Gja3J/2v1/uKwa3qt64Hs2A2GE+MXb6O6gdtGsbMUbuQ/1b1Z8Vg6DL9uRAA3NrSnVcjZomcCJx5xwRe80zG6mirtMS1WMZvMRjzuHmZhdTG1cbg9Vlu/XDZ5kMyj9w654+7Pb0VYYftVOzLfE2NhdtAYAKBIGITwIT49iHAfXR+OPlrurxm5/aFef8i0vWwsTMPoGMAnGkm7J1YCmTlmsfWseavVUZ/mAWDcHIblkm/RTONS5GlFaLGH/Av49d051yrFZpdStViai46xTqEVsfqGpulGltDibbSH3ciZVzHNXyESSBwFQSCiF0FvbC9UQR48Y7NiCm1xdD6BYWUxXE7EJgiAYynLIJmCwueKnzfmJiTCG5RXoiNWappKiZXbqyvK8I69pDGjX6LiBd8xo4V+zLmYlkZPx+8tJ0Novf1kte3yxqGXiCwQQSCiG0QzHB1AwhM/XjfQNPRxHwEpkgxl4yNT7VrhRGy929OLOHCHwrM1RaCEd/V+V+YW1Br6/lyHHbduIRx3W7BlblfIQQRu1/X+873lvUwcevgbl5GZooKSbmbXRiN2h89T2M4306RMW7BDiuG9+JGPfVCfKWjz7lkJi0MghpYxBI2M07ur6DmXTaLeX+hiJ5vCYEgYlsCPppdEwEGc/3Hepw47g4C9p5Fhfs+XjYGbyNh1Sg++IMhd1p3vnQsR5Iuiq/FiPGEJgevnEqHp7l4DQkL3P1i+rWtmyEi3ZytRbcyD3aX+vB7cv2o3UoIIqhbgEAQsVtwESKE5RAwCpYHndv/E79cn+6LFg9ZcBSu8D51XDNf9E4P3mnRt3IUNKr7RgjeVZvJTTC4aJAOqmAFA8FAdcAa+Hdhxw0yiXpmMxGuEoXCToHfYDgNONNF448lsBTzhRbMnYuJvW87q0yjEDW3DYEgYrftikQ8gcB7hoBxEw1+dqfOb9e9Z33kqTtIWNpeJRGR0VvoYjBOSlsICj/IFUZaJ8hYq9v6uu4yJNOZos+IsScX4fK3EqkTsuuOZRX/NYEkwkuRMGbDeJjEHiRZxVnoBgIbQiCI2IaADDeBQCAwgYAGOSNjGp3fNx5GvyBfPMULGduXQElFU0YwGbKBpICRWaYipAbQTJxEuWIwGVbX3Gg+kUzFWB0tweznyCqlDWZH0FnLOyTsRB06k/WwR2u5C6NAYGUEgoitDFkYBAKBwKoIMFtke8CJWtgAynTPezLqpbc9pC0QIGV8ONL8kOehWXM6rKr/n73vgJslqaqvL733vvfehreBdVmXLMuy5IzKnySKIkFBUaIJlCQi6A9EARUMGAgiIMFFRYIgiiIgQUAkSRKQRXFhYRfY3bf78pfT/M+51dVd3dMz0zPfhJ6ZU+/NdHXVrVtVp+ebPnPr9q2ZyAQWSE0ZZ/Ma6/3eZqZ9GziJ3m7jCRJfPkRim9CDjI0r3n0DVYpGgoCI2EhgV6dCYLoQIDcxyxEytCK14yTjhAwtfPvgHHYAm6DOIyAVSRlv7CRSYamOZq14yiQpPLeUMBaSU7MgtXWiMwqbtBsG1UnGGB/s4oWC3ExC4ZCPveFgrfBGzD0Zm5iP5JDxV3f9QEBErB8oSocQEAItEeC9m0EzaRXj8h3XJ1k2rtaHQLI4YS5J7sO36H5sVrgHhIw3eC7b+SckcW6WP0Zsz6eYPhASI2GkZ3FFvknE3ooVQzxPLpq32HHko01+ibTHMWD4HvtkW6p22PfYhZoJgSoIiIhVQUkyQkAI7BoBki+++HQhb4BM43jvM/8tP3wjWHvBLg/Mk4j5WZGrMFAoJ+kJGZ7IS+TDISw9hnN/RBs2I0glKfiNkcGWS5Q0GkCR9d0vFt1irgMYdpNK2wEBSCoUThM0KhgyAiJiQwZc3QmBaUWAxqEF3Hj5Imfhvozjnmjp24fJHIRFbCFZew2z4nx3EsYUiBOPtgwZhMC8LAtMghWtFSa2MOmFfZtWgn0ob+fPlg69H/3wMzBEMpYYKP3I0S+emRw4ln2ASSomHAERsQm/wJqeEKgLArMgKiQiC2Acc7gjbuNkLLkYxs15kEwu4m0/rGH7F2Y9EcOESFTMqoVMkbTYOdkAEpcrU68vFBkloO6oUa8cJdVrPXX/xiFwjgNPNkH0Fs25b32WgJeEIbTuuC8oN6H3YSs420EMom+zkaIJRkBEbIIvrqYmBOqEAG91tBpxCW8PWAj3nxzXRBJmS5KwhB3cQ4vYHOblPcE4q7B86ckM3lnoTzzRQp7LlbHlieTNLDYGChqwWQJR108HJn2Zqp7e4pH1pKBFIz+hMLyAUwvh3RUDvJbLvLggJGCbiF0xxh/D3eGj1rVBwH9z1GY4GogQEAKTigBvvvNgMDAe4QlDT8qC0SLcmMdi7uAS4F/utAXnzgAJozWMJMwCutoEotlAlmQjWGJYbVTE8xHLM2svyHEpky/zAmMje3lrGf3OMlnrqM1b0kEbidFUEZtBkbzmGRWJHnu3BFwZSd+sYYCqrmiF4eo42QjIIjbZ11ezEwIjR8DfemHtQYavOVjFSMT2YImSN0DGcAIHsUTZut8UOUZa9c7cO+vOXpzD0iTsVZwbRs7goKxnsqMxTcyTZMwXZ1aaSDbhW/ATC1LkYF6T7SWZFGe1GWa+s6yG1jOvJitLum5/sDmE0bcX3X0t0epyfOi0l9HFZCz0SCsYfRRtabL4JMXuJycNQqArBETEuoJLwkJACPSCAG+g4cVlvT345uH9bxuOYnx6bSu5Q4YbZS99DKMN/fFp0VvE+E/fO+MOYY11H4gYyzkfVBnp4pKYzQVzsyVHltsAM1IWZAwXMDGSMfqJ8ZyyM2RT1IMCLlmGcqphPpesgS8xHXbupZpkcw2jE7QJG4cHH7NAlsJ5JN2HbOWRRX1xYv1JtIZtgDl7H7H+6JQWIdALAiJivaCmNkJACPSEAG+9NPQEHyuSsG0U7IBp0ErRv9tsT8Pr2IgkjE9InoYlSQZx3YvXQkKLSKFofZkBKwuEyigTymjd8rQjkA9PyKxDki3OPJk8D5QiAaOFzPI8N+HkjfryBTkBq0rqU7GgKOjJK7BSWt+8WNrKygMhC027Obby0+pGR5DNjyqUdn808o8PHH3E+CMgtpp1r00thMDuEBAR2x1+ai0EhEAXCPBGSqsRnfZnQS22cVzHEiVvhkYA+nWn7WJMVURtbHgzB32QsDOwLHkQ1rC9c3MgliRVJJg4QsbIWEpnPIWx9pw7CBRTRq94Upi0iXhCRCubb8FWWSoSh6Izf1mbPJODLnZbEORofbGv8GcU8+cF8WxAQ8v1ZwScF5cl1+AoJovY0C6eOmqBgIhYC2BULASEQK8I8GZZQi5QzCU8msRoA+JDhoxGfxBFdHRfh3Vik0uV1m2hvZWN7g2Gr8QvbMbdYBG+YdjXaN88Bm9WJW8JI7kiyWTiEl9YqjQ0jKklzuGoN2LDikKyIps6qUKJAOSLpRQPoS+CuiBjy6ItoYRUkQQmCgIBC/rCkmXZmMKcg2zxWCSNxfp+WsyKuludm48YLpAtTfoPXCtRlQuBgSMgIjZwiNWBEJg2BMrv/LTa+H+8nUMG5AuGJSNnJA7+5oiNnFGVvzeytlznoJANRMb042QPGOQB8K4z4Rd2LhzEToc1jOSMKSYtHDfbkp/R+GWj5hvJZ0x6KJRMyQ44D0XhmJIkKmqVTHfWTxBNVJt1rqypH5+/GmX1TWUJkUwHHQmEBxSCtS+qqpQNRG24hCyxiHFpMv9hqzRmCQmBfiIgItZPNKVLCAiBEgQyIkGiwLPwaoDMLIA1NEByeD/kzZx+Oxs4IZng/T8mOiXKB1LEvjlWWuxIwhim4hCd8/fSEsanPmH9MtbjrWEcBMmljdnaJpHyoYPLlTYbViKRcNjypbX3ZWzo5fw5KZJN3g55O1T6NCVE2cbUBzXQE58nxdkhqQxjSoaU1Zfk2CQdT0l9KCKRDhbCUFb1aMOKiWqFhrshbsRwE8uStIiRiHXZdYXRSUQIVEdARKw6VpIUAkKgRwRsSZJtkzu/3URx96VRiTRjL76JuF3QAkw1KyQoWz7g63aP/e2mmZECG9uMPR1J5/yz9824c7AceYAxw9LJ8AaeURnjIeiY7Vm+Q/qCE9PHsqgukDFWGslBXcCGcqR0mYWpQEWjPtlBGEHcD9UVU6gP5aFdOG919OPGeNKZ5CVzek24quZYT05LXNEy30RmW0o2V7At/RI38AGjj1gvI27WqhIh0BsCImK94aZWQkAIdIEAl8KYeLslCZnh+mMoQyF9xEha/GofSYiDz9hMEl7AW8ti/mHKBvDGMcDg5RbwWCd4F5zyfbywM7AUeRDmMZIwT6IwJkwqkBNOxeaItiHx9t6AtYXyxt1QF+SMwHHOEDYYkAkYhfZ8so8CLKecARQqcTT6AJlQZ7qj+n5m/UiraMRowoWygVVp4+dSvY9qOttJMZirOevTIgbgiJ2SEBgVAiJio0Je/QqBKUIg3JONhHHeyZ0vPUcRLUCzIECzMzuIwA9ytkmSwSUkLFUm8uEePwjoOMY59MPlSIanIAk7BCc2Bm7l05L0CWPYDUs4kmSRjLGIL1sy5Jqfmfn8gK0cgzbrGBsGYWaTcpYxTEVYciRJCwSPOFGTaUM5U2YpozLWUcjX8Z2YximcmYQXi6uL/C5XF07sYYBwUnIkWSyOyw+6RJhFRdaJok59sFmKC0+QjND6bMf3GBdiQiK2Cha2jeuoJARGiYCI2CjRV99CYCoQMKpgJCSQDU7bSAMJBO6KRhbwxi8kkjFapchnZnHD3oBlbJ4WDMhuY/8fWorYrPv7J3thr1ki0ZuFdY4kax4Ehg8PLKLzM/aBgIGMHUQBLWEcS3wj5xjic2oMc+Bm0jEXsl45YBb66doA/EggC/LmSZwvoV7fQmZXAABAAElEQVSfQ5OQsRb+zfpmf9YJiSDlY0GeZfYl1nAMNg6vIv8eBPKl3Z3Z1OJeOzTv0GeAq4OWrqpJ2sw3Dn1zOZIEn2QMfF9JCIwUARGxkcKvzoXA9CBgZMDW6vycU3KTsA2rB7lgfLEZWKX2I8+thMwiBta1Cb+xNRxJzLawpIR7aBt2UYZr/o7L5ULG/tqPzOIe9Ac2dgDfiAfgE7YIX7BFHPcY2UnoG9kBu7QyjjaUs5CkEYQokeGBYqFHSpulawazQ6XpQN+cuoWGMEFPniyLtyK98v2yV6839MU5RC2NpFLC9Hhxy8ftk+LsEAsnpTZDe8vEWuXY3KtoVoRIayXNUNYs6rWgKoG9qV0nq1nRYtakAH2ShHE5kk763F6LxFlJCIwSARGxUaKvvoXAtCFgzlL+RmvkwUhEAMHTibDERTIGLuT2wgq2jZvlGs7nQcbW0WYdemZBxkgueB8l7Ug4EJSV3fhJVtgv+uCNHvK0gNESxu2KuBRJp/yDIGD7YRFjwFn6iVlK7tM8sK0dfY2d4F5uFjOOMZke9HtSRnl2bMQM2W0QUU8WAgkLinj05Mn2lrQzNvbjDrUeIZ5libpJ5jISkgw4E0lyuZE31YYCqLIUrEc2h1DZwzEmT9kYWynyc25V26m80wyDNZXXygg+nPV5/Voh1qk/1QuBfiAgItYPFKVDCAiBSgiYNQiSRigiEsabP4xFuCMyQz8x5o3DGMshOZtF4V44cW0ugNDg7rkFgmbLlZDbQR4HkDJPzMLNn2qoi/2RV9kSJArm8YjmApYkSbjo/7UX5Gsf8guIMstAs2zDdSwfNR+aUcAxsg8ms1axHnkOmxXsk+TFyjAPkj4jSWxOEdPJoyeNJCXUZ31RR5I8HfNjpkBYzqVPWaijqCeV7INCvn+W23hK2JO3oLHHQirI2jghwuEyUX2cCuJxVWk+br5tM24WIxahPw9Us0xpCS9KlPIIRRVplp+PHVuS5BOTtIrt4FicYyqujBAYAgIiYkMAWV0IASHgicMs2BYJBGlDuPHakWW4G4abPG+MoR6GMDuh35iRGwhxhRMGMbuh+mUm+I/h3KxjdvQkhzpIdNiWBIvxvyw2GE7wICRIGAgZ60DGgiyJjO8HilBKTekyYMJSSI6s3FoZD/Jjx7jYimIkBYFemCa+RYnEjTyCSFCWZJNjCMnqUWBlpg/1EWMIYwry4YghmMa8NtZSU2EQLDHcrRcKpcnGnJ5lmfTaNDfJhLrMcf4e6y4bdilOixgtYZtg8uYfxvAVXeqQuBDoNwIiYv1GVPqEgBBojYARiUAGEmKBGzrv6f6+7umD5SMmQIJmliNk6HPUgGVsHvW0cBn5QpntGYgy64Ij8ArNEmYWNZwzTAZJGQkZlx5pJZsDOTS/NLzPcqEKMtY1dUENg84y2gYH4IfvrV2+A0+32B0TCVhsOaMGzojNmVDNHrzVCkcrx5sRPyj3JJVylPStjKQEGavx5RBoTaJMJNNHWZ+olynTYWdR31advAWp0CrUsdyMUcWKINDFkdYwsyZiTMy3S021AfB2jaI6EjEGcV3DawMfHFro7JpGMsoKgWEjICI2bMTVnxCYVgSiO56/ofrbPEkHz0m27BXwKdx12ZzWKpIIypGYzeEtE8tyJgchEiyjNSbHGz1PWc5SZvnu7TE+6BdOk+Rboi8se+bYFU5tKtbWj4myLEuKfJ5lpt5bu0wGZSlRo1rri2TAn5BUWhMI+ToT8FLowAhbqOE5aswyxvmxgyhZfzZQFJr6Ilb5BmUWtkAMg2Q8JisLFVG/JhMLRnVlWZKwkOJ8KIuPpY7/BnIsVchHwBDfNVjDlrAmaY76/gIVGuhUCAwXARGx4eKt3oTA1CMQbtSkBQzsasQEb+akz8rsvmxEg+QmEKhwf0+PqDRSlRTwEF4EmkTCqvBmfkh2whrUWT98Swpx4DKh9YXSMAzWelG8J4THP+noiRHJA3VTxnhP6CNSQJlAg0IxxNNkrVMy5vVSLowlCAayZLowN/ZnbcEwGhgbk70XO8E56SaLWe8JFnNZGU6ilNSR7PECJKmoNqsJEjgGodLKSK6HbFBdpWnafZg0GnE5cgUkbGndb2+UseIqGiUjBAaDgIjYYHCVViEgBEoQ4M3RXrw5JiSMN8Ng6fDkyDc0ObzxCDbA/9lN3ov4uiQfDkZOrJGXT/iN5wcJU6KuSMT0ev0JMbETr9FH0Pd5I0KsCzf3hKh4okWZhBxRhH0kzMEML2gUkzHW+XKvm4TKhofTRmIaC4Fgo+GYsI0S7UmSqNUSV1Wpw5/5d9QntWkp6zNC53WklbkMW3JMOY2ZPus718CfhA7zzXKCJhLkcjXtTzpZzEJrqs5mjrNkLHy4YwWmsFMIHsadG1LAQ0MdhcAIECj+4BrBENSlEBAC04SA3SQjghBumCwPiSQlWGIgyrtqejNlPpYNbdodSSZ8m6ilKU5040DuQ2IUJKkvcAlyEQaeME6SFlICMlYY6bUyq/L6KI+XP4TGyTk79dVpX1YQCpO6tKyQyZEkjj3MKchhbFmPoTA7ss6HdGgllZ8XW1LSXtDdXEuJ+iaGrWA0/WWEQaGPmJIQqAMCsojV4SpoDEJgChHwZIuEK3nhvshbI2/uM7bM5m/0ocwEjfR4sLhJeJyMFLS5t6Z6kkaenLFVVGPtEyUJqQk8i9sQcXDWLhCepKkRIpTRIuVnQEsSzimfdOFrqYPzYiFF0YJFPKUs81bh37xekiWvK64LYsF6xnOzkJmyUIsyKOWoQgoEN5zzyHrrC0c2T8fHShtRrMEK7Y0kjinWWZQsHTMbFQWph+VlDVjeRaLqOFQGPyqcE7nXGojYKqxiXKZUEgJ1QKDwVVaHIWkMQkAITBoCyf3aL9XZnR5kJLAPTJb14bborVKZtSXcl0PoBhI43qx9mIYIqaAgKirLxmKWjwqY5St3j/YDQilu5Og0zIXFHEM4RxZtcbs3fX7UWR0Jl+/I9xHmz1ZeRybry9J3NGBb1pfKBIBMT9JHqaDXmKdlaS9pprwpO4k6SqV9xo/P912oMjxZU16blza5FsIe17x81TNeJy5LknwxftgqLGKMPackBOqAgCxidbgKGoMQmGQEQLiMe/G+h59+tBrZL0Cch1thOBIG3nCNo9mJf0tvwpGglZkO3rmjCjZpk4IkiVTIl4mTXBhZTDrfwWbkFl4B52ld0pAjYKI+c+SPNBuxQRur49xMhkQAHmDpRBOSFQ0oylK19WlHO/M2K5MpCNrYOCB0bEuVUR9kQ2WBYU1l9BYsXSyKm9t5NLeoCbIel3xZaO8HGXBqkikUmFwkzNbRaUG68ymvAcObrIOIreOpScYSY9w5JSFQBwRkEavDVdAYhMAEI5DxhDjniQSnXfwS4o0/SPIYXsyEPI9pQoPceVpRLUNCFqdwfyZ1IqlhyspIbhJpFiJv58ynskEgkYvEKUsxezGfavZCVk5VyStpmh5CNxyXOa6Xd2Vj8uNkiySxoES+OIYgHo7peJNxh/LmY4lyCLF9p9RJhPWdZJr6iBqQhG0kISs2YB7zoSuaWqhACIwEgeJ34EgGoU6FgBCYbARo+eFt2qLHI2/3yIQXhPsl62MLEQlZKXNgMVIsW+UuzX5CX6bA3lACglJ8Gs+TmEwqzllcMRSYvkSh5VmWsA5fnFRaedIABwMiaeAPmRyrA3FJRApjNlAoZolLqEE+lBWPHJPJJJa9Zod+P5diu1bn5tyPyjC+vFx+fGmdDSC04LE5lZcW5GIVxXxB1H9+PNzcEmsFbyub27bhd0FUp0JgpAiIiI0UfnUuBKYIgXCPDnfccAwQJHfOIGbFOInPQz5HwkL7Csdil8XzWAV5i19Q9KWUDQTNArCSXNgraZUoy8hYGK2v908nJgQGVWlz6ydpHFQlp3RjKtQkEjgkFTzkZTKRLJeXaCZjtIvlZbK2zTlP7kjwytpw3uHl21Iqnm+rEZscZZOXb529h/LiMZPIcum1g/AmloEZtmJZTvoZQMrVBgH5iNXmUmggQmDyEbDbM96CtSLMONy2E1tZwr5YmqTQhnfgrAi3exawEoeoLsh0cyyu3AXSZQyCA066YlyxGVSyS5/Yf2J1gowXJQ0Io/MNU/l4nEmnngT5NtRpbcFczIjFrpO+kw7TvkmEqJfvQS3Pi/iynSdN6SgoxVJWWQp9hfNKR6hIyVjSadxDsY+gk/PhhupNiUWmIK+lSS4pSFVQvEmdL+A7fcJIxFbwxCSXJZWEQJ0QEBGr09XQWITApCPAG2Zyj41vtUUSENdR3s6bbrTUlZPsGb12WuJo+3azT8ZjHMrGhDceqYRZvHwW9AjjS6lSMlaKWqIeCFM+nPOEG6N7Ypaopc5EJByoPySrMyWgb6jg+Q6IB7d/ak6ZJuZiy6L1mQ4m3zKWy9VASaoxapuXj8eRSmfzzinEiYkE7IqVhfNYdaGKp4GobcIzn9awFQRy3dIu3yVIqWiUCGhpcpToq28hMKUIxPdP5r31yd+kPV9BKf9n9+0UKV9fqCicpsItMhQPvIEEJDT342huZPKJHNvRKubLqCdqnzRNdYdMYGmxaiigjrSK55jzjgXFyASzfrIyGnWsbXRkSWadgh7qS17WMjTI1KT1fpieNFKsKJrqjdq2ywZMinr8ZNu1jOvyrfk5Kaa8RFbLzw1f5FwbmBw3+qY1bGWTYSwyOeWEQB0QEBGrw1XQGITAFCKQ3liZAbtKz4kFTuxmWsDFk7BEoFDX1WnhZhxOjbgkAwllptczlayLUJnKkgShOppEaBJIjLeM5VWwib3QzvrGCc9D+Ii8ZcnLBA2UY4q6tHP2N5swStONUpKyJkEvjXcvZeOkMoKMF8cbE9OMblrDlm+hTyNjAYRU2jpgJ8krrWjKeDyozacsF0qy8tBnqOG5+dchw2j6a/ARWyYRAyHjuZIQqBMCImJ1uhoaixCYYAR4641Tdjss1hTPk1ZJsfEEFLWQirsozWf95qsDYaLmwB+KsjwnQWRqwCzFrMUFRcbGg2OOvARZKGTWnyaFVMIUTqkgCCHPFtmYTNLewth4ElvGMgmWW+ucDpOF/rh93IZ51vmXH2+uPowzV9j5hKQyvPyo2FFoV+UqUjhg4fOhdfGYU4t+N8xJfxuR9EHGEMSV/mFamSyipvNRIyAfsVFfAfUvBKYMAez13TJlFq9EhPfphKBkt+wkFx0SEd8IJ+wiqU4UFQ5kS4FRRVVN7XKK0SRplk6B7IY/Z1FuBAwVVBurJ7GxeSFjVjGcUK1PJClsTsUo4cvOvQ4SqoBXzjoWySBrKdOZFIQKnJLQsY9QxDGVupClEtQBIUzE5pWctmJxubFRtkUKxJLjMIunAdM0ctSGkXLsmbIsj/lY26wu5CJx+IMlS5Kwhq0hTyJGAq0kBOqEgCxidboaGosQmAIE4htluAXTPd1ICN/4n6cJYUn5kpV5gMI9mLrCizUsDzrD0bcovKdKYT2igpBwpydZMJ2862d3fi+BojikRCBfpiKnCE2jAWRqKElCxEpPjoqEgu1MHqKRijBCO1KL5xNegud8tUuBBAUZP9xWPXipnE6OKwAflCRHwyybZKE26Mpps/GGJdjmBhxXh7Gl/eX1ZrpmLJL+EmKH0VEfB1uWFA/LEFKuHgjIIlaP66BRCIHpQSC5v4Z7erDTWDHejIQZGtkNttUtmeURp6qMIclO0BnG0aqxHwWkmUk6i21aDGWR0iCQA5PHGwmWNUkUkzewL5IWO6Yj8AKBV1hdpDKIsagppY3SEZhIqazVxCMiCeVTmk1aowISU2IFoUTOyBjVIIVr58/C3MoVxpgFeR5jMsa55+ViXUmnUeOMXGZ1gdjSmriBIK4nEUp/mU9LFohypEZZITBSBGQRGyn86lwITDMCvMn62y5vwOmdvgtIeiFhrdRnt/JMolhmgVyT6lDHI8vDeWhtJAHzKpazJBCI5joqSzQEDpKcJxQvqLcj0QviLGCeL1p94nKcWiKpYt+xrir8xHTxLSj1l67UQhbmlnTZ1YHj222y+XGO0MV9JVMiZoR5t9rVXgj0HwERsf5jKo1CQAiMAAFP5nbfsScq4BxmmiL3aGYHcZnf5Bv9BuJUHEKr8qJc4Zy92gtvJBX+nASDOZ/COKwoKw7VrY8F2Uhlizbsyf8rCpQtV2ZkqNBRsXHJeXDsN0tZbmAJ+zOg24NKIrqFtuvwC6M1bDVZlizpTkVCYOQIiIiN/BJoAEJg+hAIy0e05/BWnbvf9gDHbklYoAt2DCccB+/3OC/uRRmGyHF78SRT5Ae+Moj3dkzGwI6sv6iPWH2cZ0c8jy1jTfUR6CZbFKg6WrQrI2OheUwcQ1nVYzz+5jYREFElPe+4tyR9wlZBxJYQO2wDzvpVLH+RGmWFwNAQkI/Y0KBWR0JgehGIb5l+MZLx6gtGJBRk/mF5rDKilfcgykt1ccbOY+KBfGIAs2IbL+7cDThQxYt/Rhshy83L00QighP6irE+qvHnLEch50YyQJ8sypCgzCRR9PNtWJnIsBPKo79AaPw42aNPMSLkVrEunlCSZbnypG3QyVP2EZOVVr5jcZtEDTqBdj+wtCiHW0T6AglPBTtk2F+Yrc2D/aQpzvtCyq8hfP7JjW3b1oikDHws1ZE2VUYI1AQBWcRqciE0DCEw6QjwlhlCMZAWxLdQ3lt5HpcFPNKyNBNq+nsMJMTu87z5s7+EQISu/ahJWAI1yMYQSFquhgQgkTWukqgMfQV64NvkWmbEgTp4FgZh574lWxStdSxLX8xE5/6s/N0TnqQBRLIxlsvnS9GOTTnG5JWnpJl0wCMrqZ5jF9kIy9ttA29awk5ETvqd2pRrUqkQGA4CImLDwVm9CIGpR8CsOuFGHaFhJKzkDht4B0U9icmTt0hF99lWd+akPK1Ghn2TS+XJV2ahsvFxjPaicGwL8kMLvI264mTkJxC1lGnFElne9CdjCfqy2vY5P7b2MlZLwSjlyVhh8JEcsySLVccVz7ugpuNpq7bsfwcBXBk5fxnWsKOrO1iW1JJkR0AlMHIERMRGfgk0ACEw+Qh4ApLd5YtUJX8DT+RwsFs/3vr9RdWSUqDPOOCnjSQZDq+SWaaSy1Vu8UkkimQME2wkrCaQsXjOPh9QiTos+2hw8BTpIBaaUnfoq73PlW/hLVaZcg7bt8/Kgu7mI4WTUoyTvmPxqygfSFVoUqxvdU75nFM/zjlGzo8bfC8hbtjRtW3zD+OypJIQqDMC/f5+q/NcNTYhIARGhIAt96Fv2rRIN4pEyKxi6dgSy1ciVJRNxaJM1/faTg3SemTSvL/Z5wqiMTBLkpU+RVkkY6xPdAWV4Zw6GwkDLKITZENXPLd+kMnah9rOx6K+shadxlDWJpSRirYaV5W+g55ujuyPL7+59w58w/i0JMJXyEm/GxglOyIE5Kw/IuDVrRCYBgTSGzJukp6E5WmVJ2ioiYuRj08r4cQbMQRzeqo0ZEds2DL5kdByU+ZkzvmFPq1/6kn1oS3ygZhZV9RTmF3AiHqyfoKS0L8fYOjLzkyhL98pBlQDU2tytk8H6C1HvqXH2vcSSnDEoMIIWMp+d8j+otSkP6rjxMO8WJxiB0U5vUGo0B8hKuKUU188wfwZrmINnvnLWyBiIGDrBSd9jj7uu6hC50JgVAjIIjYq5NWvEJgCBAJx8DdB3gYzW0uoK/CSlAQM/Kbph1PtKqSDzd/Mm8bIAkzWlye1IDCcvyXWgTCk56E8OrJVs4QvjcSsj5aWsSIxM53sO9bg882ay2WKpWW6ijLhvJVsy7AXGBRxqpooSoPiGkgYA7jSWZ++YslqsKmprq1qr5ITAv1BQESsPzhKixAQAv1CICI9/VLZix4jAgljiomT3fTLSEJURitY2Y0/8CPWFQxM2RB9BwkZM0nUcQSwJoXTTNpXlZQXn6YMTRL14dSOJc1z9ZyMJ0aU9KljmyBoRyrIFfhSFuN6p68CRWWf9iIaLT4XoXwLjvr0DTsOU9gqliXpL6YkBMYBARGxcbhKGqMQmFAEAjGJp+cph+cXcflQ8jHjijos4RCo9aWeoJBQJCWJcEzGiu1JkljWioyZvL0FNLLBWDur82V2zr4tk8kx14qM5aX8WUnzJjHrIynlDHieOfM3iecKgnxcWMatmq2BaGH9lFMrPgTBkBWbeC1jSZIWsTUc47HGfSovBOqGgIhY3a6IxiMEJhmBhHn5GzAtISMiXAnGvFmTgIQU8uHIu3krspS1oaUqbeH18RSvlIxBSSaBOePEoDAZrylSEVSnbUhi8iNNRbJMCzLm22ZiIWdzZ//Ji+UVerG52nwpnIyQ2WqEjATJv0o7S3gnyVh4sRdLNs6ofVK8BUnbyggE7BRjh21giRJR9cvwTJroIARqhYCIWK0uhwYjBKYFgYSBkZHhBsv7b5zCcpM/JnfnWKBfeTIIvqIUE69QVbyph3JrllRGnmA5lcFZv8jojJBQkv8TAHL9hDLrpIgQ2uQG4adBPVYe1TFbyTKWtOGhqNuGUPJWlLO+Ej0l4rkiEsSWopxueMWtIhNaIL9YkXQr3Nwby5LLGw1z1N8CK2ypO9anvBCoAQIiYjW4CBqCEJgmBDy5ym6TKcVAJtxnw002oRc5eMqWM3MC3ZyknZc34lgDwSqSjrQFZGw5rSCQzdBLlnXFJkYZeEwEgpoMg7KWae9NmTIyRqFOZIzjTftGl8XxN3WUFHg5vHOYhTm0ahPKzU5oHaMkHENlcgwO/V617y2IMJbYJkjXybUtdwxmMDrpm2UuCOgoBMYAARGxMbhIGqIQmCQEMoKRzYq31+QenhW2yOVvxS2E+lTMsQbbiuV30XlZU5szKsLcg0xKiCzjS8t8p1gdZOMpdyJjob+4TZpPBsFDkk2rSjMYQDrMqC0JUafk+/AYh/eyTv0yJbRFOi2Lt1XsK3lsbcddj0j6K1s5kU7dq14I1AIBEbFaXAYNQghMFwLmI4UptyUEARII5eRyJ0Fo8MewXBp6ijiBFfltzENtckyEMjJXqE9OU2sV5hb0pseIafmyUJPpikTSwlZkzBOeVKwpQ+1Bn+V5nryahHMFQSocEz3hlMeqqdiGuJh10itgNZcfuSS5jCVJbmWkAK5VwZVc3RBQQNe6XRGNRwhMKAJhic+mxzVI3E2rcKogE461hocMhnNLEgkDSactO6KOGBjJQWGQYl3Ih3bFo1kREyLitRQlEtLD/iJlvt9Ev/XDxUD/b7ZTrzZ4u0y5ziL1ufJA3rJCjwXVhFTll38graHNTATQTjI59sUAriRhpxIixicltZ1RQE3HcUKgyt/FOM1HYxUCQmAMEIjurdloW93hQRj66heW9VgpV7aUmjWMaUYzaaFckDBSFBqGQpzb3HDeRGQiGWsGgTAWX1UUCMrzR/Zruq0Pvvn61AqXF0/PKBaPiZfHylKJKpmoBRRUWa4sajViFtTg6JeIEUUfxOsENvfmsuQqSRga9qK/2J/OhcCwERARGzbi6k8ITDECtMLkl/hasq8cSjkSk6sZ3QlJir/xkyWEFFhPOG9zjE1XFAtEiyoSWNhHIENxLyYOLItliZq0Dc+ZAhlL9SUNScbKdPhWyXtBgKeFopx4fJL2F1ShoBeyxFHyn5FHdM7j2va2O7KCV0LE+PSkkhAYRwRExMbxqmnMQmBiEIhu6VG2dtOL+GIgRmVj5BSq+IrZYmHZfFEW9BerwxCCVSzrvyiZ1cS5QO5YZn0kzTpRsaA9HK09dTBTMdmY0SCQ8DDHis0zMehg4FZaw5YQM+wEw1VszuDJye7GkylUTgiMHgH5iI3+GmgEQkAIdInAUJYqA9MIDKjLMcbiVMUxGxkCkch8xYySxaLGkkweFjMSFnZvxAWZMBRPxmhdJAGhtuZkbVAcG97Yfxl2tDC18xkr1VXosmwMsUiOQCZzC/VsG48zlJcd17GfJJckT4CI+c295RtWhpPKxgcBWcTG51pppEJgYhBod9NuVzcsAEiESD54LEuBmJTVtSoLumyZMNEcyprasG9WAowg09xnqAky2XmTvqggWMZMX9TElv0iubJscQxsHr/K2pSVBVLWyRqXa4uOGDdsnb5h2E/yJPeURLgK8DKPVU5YJ0JgfBAQERufa6WRCoGxRyDc93NWGZCNYA1JSVgoSwtGO3USh0BgiiOha5InFGF2XRADNCG5yVoWtWfnhKKJCHFcqY5ysEJ9pgl6YlF2ngygMhkrGXCkJu6qJO87J6bBlse29B0LY+UxTjznkiS3Mjq5ue2OIngrlyUZzLUoG7dTXgiMAwIiYuNwlTRGITAJCPD+mxCA5FZss/L5cEv2JCERC+KF2Sd36SBUqB3UKXvNEZjQESqKZIB+YqQZTSkZelxeUhRXN+WLfaF3yHgt3ejiXKgrvKiCV4FkrLmP/DDYT9ouqtqhzui8PJtJBMtYkDO9OAn643Ju7L2GuGGMGXZsvYGwFQ2zhgUZHYXAuCIgIjauV07jFgJjigDpib8Vx0Qluzmn1jKrjmUKE86aFCoGc9pmJNbhLLysQrJoXUU2E84xbiNBEKZO01s2F8gbUenUMXUkJsW2omV9hAHjyOEFYpRuVh7VJyPNlfAkTIt584NjWfJiWacU+izKmQ4bk0N8MO+cfx3WIo+tb8NZH2Xc2LvYSOdCYAwRyL45xnDwGrIQEALThABsTGAagXTUbeY7sCW1TRh8SlBIMMBaPJFoQ58oR0IGkVJrXNKhyVjeaywbB2ti0lQqY0K+Jowuk2ujuxCTIlKTNW+T82SsWT+tc3zBEGZPSV6/Akf9NVrGYA2DeKf5tOlSVUKgNgiIiNXmUmggQkAIDAuBbolCr+MygtHML7pTZ4TDKwlkjASkqJZ0zi+HFmvy3cXkxfQVeKDVJypsmdL0NveX00qSWdIti8IrJ19yYnPCmydlXoBlGwxVgf0k+ZTkSXtSkhayEgUqEgJjioCI2JheOA1bCAiB3hCoSgx6055vRWLUbFnKy1Q6w6AD0Uk5SJrxGgKBKfVNizqhXNDFYsOjYHFjfZDx8pxFocNIZ8iGNul50I9jB3uhNQntd+iEn/S4CnPYKSxHkoSd2nAWQ2yHzmhKQmBCEBARm5ALqWkIASFQHYFB3MaN0ERkxS9EkugkvQWWkR5Rh6odc4qjRSkbVZRtmlRcV6RGGRnzBKupMQrC0m4YRiwT67apsAMOiy/kaSHrlMr0hjadyFji6mZL0NTDpyIZM+x6PCV5CkSMT03akmSFcYQ+dRQCdUdARKzuV0jjEwITjEC48Q5zioFXZLSnu95JVkhHUoKVNCdx4IuxrpjieuszTJbLeFZvYvYWrE2BqKQPLGQiaS437qTPtBKZQMZY5kcS1+bzYcxxaUzGrJ6DgqKZWd9zVTKWwBCrtnyYY1NFVMCe2N6Ct2ILo8PL3hq2FT0QEYkrKwTGGgERsbG+fBq8EBhXBDpRhMHOi73vZgRGSdqxpcLwbXmvUGanhUFQZaEoawVmEkhWS5lEOsj5007SWRdpLsf2Ei0Rs6pCxlJdJRmOqN2ouGXREuKFncCS5HH6hiFUBTf2zs+rRLGKhMAYIiAiNoYXTUMWAuOKQMZdSu70Q5pUIAG9jiDMIRyrDNv2n4yITOs2GJWZpFqMDoNv8AlFikVKqLqVelrmYtmoWZottqd8k2UsmAKTVubI36rTRCboDcfQoelPTspwXIdf2FGQsGuxqfdJBG7F6qT5mImIBQR1nCQERMQm6WpqLkJgnBBowTWGNYVO5KTTOLptX7oZeItOjLiYY1Ym0G1/WcsucsVO4mtkpCsuyJO1LnpJRdldTPjIMekXtgKT2NHVbXfd6o5bBhHbgYXMuk9bKiMEJgcBEbHJuZaaiRAYKwTyt/ThDp1999p/ShyKpKXjFJp7NBV4M2MTTEPBV8yrynfQ1BoFvl15x7QedWtBYo8x4bHzqGPTaT5jWWE3y5TUXdQf+4xtgHGd4pIkTGAn8YTk0ib2kkSbWKZ8tioVAuOLgIjY+F47jVwITCQCwad9UJMjhchoRG+9BMIUk4qipuZ+CiyEDaCAZMe/+VHZOcu6SMU25fMrSrGDsrKS4oLCmOARg27ImE0r6paqSbQYG2wNrIsbeh+Dgz6fkuQ5eBlSYQAsUhICE4KAiNiEXEhNQwgIgcEiEJMPi6/QpjvSK3KNiG+YdPG8qCdYxihMgtOK6JmfmGlM3sBTrD+2Ydvkxdow7uArxrpOydpHgnZe5EJJfSDOVchYtqMoR+AVUs0WliMtXhhY13XwC7seZAwrk94vzAYbDcbO9SYEJgcBEbHJuZaaiRAYSwR4O7YX3sJNva4TCaSm0/jMSlTCokiG6AdVxrBi3aRxnrS0drQnGSvpwlgYu/A0x4801s0ST2uKUl429+4Fs6JIKftuFNYMO5ExT099/2FMnOkGzGH0CzsOS9j1eB3jNkb2lGTWtXJCYFIREBGb1CureQmBmiFQly8bcosiv2gJVWXBlhpKK4pqm85BeIpl5YogFQQjksSyUBzaBeKTnueoWijNH5t0oDr1kUtEi2SwExnzzfxgt0Emt/CE5BJI2BHb0HsHhIwO+7CGFTvPD01nQmBiEKjLd+PEAKqJCAEh0BoBRnW3W3BMGlqLD6yG9/iq93lafYpkYxADszGVDQzMh1H3W403Ls+RJFTEdRxzkYxVmUfp3OPrx05yHVf3GduEcm7gfRLO+YfxhCQtYXANGwreVeYuGSEwDARExIaBsvoQAkLAEAhEIL6Ps6JIGEYNV3F8HE9ZWadxhqW4IEc61Y2eYvugp/KxhIzFbavqL5KxmHuRWvO6xjLMt7OMsd9tCK2AdR1Z3TTn/BPrOMdyJP3FlITANCEgIjZNV1tzFQIjRsD2OYyYSMiGow0PJ95ylisd6sjLqEBZGQdF0hGTkHigRkiiStIw6jE6FpVbm+I5CvPO7bHmKF9oR+NUbqzpicfTk6ZQyLKQj3SWZK2bgqjvKynEIfiMBV8/kjG++M8TMz8GbgO1hRfDVHxnBWQMfmErW1qSLIFdRVOAgIjYFFxkTVEICIFxQMCTlGykJawnq8zlgqUxLYSquLXnanEJ6pNTb6PL16V6CpkyqcKqZL7jpH1oR0LG5UhuV3QSkfMZquIoliRPWfR8kLVEsIhEYRg6FQIThYCI2ERdTk1GCIwPAnW/2TYRjAK0neoL4k2nTdsexYCAkJi1qbD/D33FyhJJVUzGjM9AtIV4k4puFkx9XwUV0bCsnk9TJqQqluQYt+ETdmJ9y12zvO2OwidsGecbO8nTpIlwSdNYjfJCYKIQEBGbqMupyQgBIdBPBDoRmU71ncZSRjhYZuV4S/ORIhKd0kT5pLJMpKws1sP6iE/FVR3zbFvEwusjG+S44DMGcrYBk9fyFsJUwBLGeGEnaAnDkiSfnlQSAtOKwPy0TlzzFgJCoP4IdEMMgl/SoGcVyA792DzZGECPZC7JhBqJVWwmZTrsN2/DSnFCM45pNi2IxpbUZTh5LbEoDVnxedS6WpaNOQAky2IewR9ujWEq4Jx/HEuSR+ETxi2M1kHAEu7oG+ldCEwhAiJiU3jRNWUhMF4I4FZu7KE1RcjIxXBn1npE/R1Hwm2aSFLE17IOjfyQx/nRsW08ztx5QZZKfH1OKtNdyNkTk4F5JW3ZGbljIGB00ucTkutYgmTA1uuwHHkcr6VN9qEkBISAlib1GRACQmDkCIyKSA1k4jHrSTsg6SgjHhAmm+IrTgDESgrFqUhiHWuJW6Fd7jR34jUWi7y9rVia9m4ZGzZGWSrFafEfjpuMEwYr2JE1bl20bcuSqyhju9K2+W50JgQmHgERsYm/xJqgEKg3Ai3JRL2H3XJ0ZTyMLlBlblAkIt6vvaxVQlRasBUSofJWhaFRqCDoSVQkhwKWxakqGSuoNhWpKmRW4RN2AgTseoSpOLbK4K3wC7ONvOPelBcC04uAlian99pr5kKglghUip1Vo5GbcSoiRUVC03moZVSmuZX5iqGzTBpWMzKewpOVoSV92cLyZCjLHa1tXEIrVayfRNAvPjYxuagZx9BEplG2BgJGv7CjcMw/ghAVDNi6CjZaRkgjdcoKgalDQERs6i65JiwE6omAv5lnNKOeo2w9qkDAmkhJ1KSZ6kSVFbKejJEWeZzIpbi+V9onyv0CIOsr4opJUGcs3wsZY8DWFRAxxggjEbseljD6hNl4c/PkuJpLcyI6EQITjoCI2IRfYE1PCIwNAiQLdb4nG0NpgWbEJ4yQ4ZxFxcS6GbNgFWsj5V4obWo11q4cnowopU2yTKwWpcVeM8Fuc5FiawqSBWsdS9dBwNZhCTvO7YvgF8YQFdxPEv+ROALL8AQpzvsSvQuBaUNARGzarrjmKwTqikCd78kYG4dnRKYCm6kg0tVVMGjSAeSbduwrtIOgcbyoeYHzRTWdsoVerQ+QLTi8LW/CFww+YdzAmwFb6ZiPoiTZTMKJjkJACAABOevrYyAEhMBQEeAtvHAbH2r/ZZ2RkFRJFcXaqqKPVIhFFgRp1fIOXyjpsIxIn7SycZSVpfqDY1ZJ27K5F3XZ+NJem2vpe7+GbYtOkYDhxThhx7AkyeVInMovLFwIHYVACQKyiJWAoiIhIAQGiQBpWPFmPsj+quluZR0yZ3yosBVFDpvDH0DilkczGETsn9Wqm6LjfkqmqoyNZAzziEWb5o6CBghhTobjy+yCNjR/FWdg8fKBWo8lS5HH6ZgPYpYawlpNROVCQAg4ETF9CISAEBgqAvHNvWrHbFM76tbEXqrOprWc+Xu10xtAACB5MhZQDQLNfeSeomR7iIZWlG7qtqmAoTZm8Y99eMd7LkVuwdq2grXH44wTBqf8U5tcngw+YRBlJ62HhUolITDdCIiITff11+yFwFARSMKU+j7b3KCNIPDmnTCFftzHw3KgX/lLFO9i9uQpZBhlFqwSDlPaE+lM3u5EsjNT6jMSMMiN3ELY50pK+yktRDMbZ1RZHLdh1mQZ8+0YLZ9O+CRg3DuSVjCLEQZilrOEhYFH/SgrBIRAhoCIWIaFckJACAwBgXBfNvrQjkO0q9vNODmA3eou0cElzBDSi2SPTxH6JyRbD7ZIwoIkXbrM8uRZYyi2Y9w187SMzYb105xk4QTCnlhhnEGvjTMPR5GMka1ly5TIQw9WHWEJc9g7suEOg4gdWeFS5IwRM9YrCQEhUB0BEbHqWElSCAiBGiCwWw7VlymUDCKQMOr3ZGT4jCQlQRhfyRD91DEss8S1IWNcSjRiGcCCYtruths7RsAYI4zbFtECdhJPRoKLmZ8Y2ykJASHQHQIiYt3hJWkhIARGiEBMdkY4jBp3ndAvEiKCxdMycoSydmTMmvAtUkdr2haWIlfwOmFBWn20/JUtxA5DWXgws8bgaGhCoJYIiIjV8rJoUEJACBQRICdoxSuKsoM8p9UpGJPifuKlyVAecZlQZEdf3qo2J1p+UmjKU6aEN1neREKFlXR4Q2ObWyTGc6YNeOXD/x5LkSBffIGI0Rq2isLNnRkjYXW4Nn60ehcC44WAiNh4XS+NVghMNQLd8IqBAYVBGGEpicLYRMYoi4GUETdakPjwQuqvVWHAgewEghT00k9spugnhnPfN98rpgIZY0v2Be6FJyG33XXYsuh6vJZhBWOQVkStwHKl199FLxUHIzEhMB0IiIhNx3XWLIVALRHgzZvkIhCKyoMMjKRyg3LBQB6orl+piYy1URxTmKLjfsCmvHlSG00gH84ia9VST9Q2k0YOYHCvSPIrLjlucClyYxvBWvGEJBiZfzLSE7RcO50IASHQEwIiYj3BpkZCQAj0AwEjQNlbdZWBRFRv0SQZVPSThDV1UqEgMSg1kVE6x9OkFZPUMOZQGM7DHMosY6GubChZSI9MiuPhiwTsFIkXo+VjGfIEiBij58MwZpa2Mn0qEwJCoHsERMS6x0wthIAQ6CMCRUtQH1UPRRXJTDfLi90MikSL0fYD8arS1tpEgsXzqCrNUobsi8ulWzhugHDxycjj2KooxAc7BX8wOeSnkCkjBPqGgIhY36CUIiEgBKYVASNjnHxsvhoRGLSKkVilscXMV4xkscWAKAzyxf0iN8G0VrlpNwjYUTjkrzJKPixjm3iRDyoJASHQfwRExPqPqTQKASHQIwKtuEKP6iaiWatI+91NjsjmmVQ4A8cyh3s636/DCsanIg/TEob4YCRgLA+y3fUpaSEgBKogICJWBSXJCAEhMDgEmjlCrq9xIGe0FrW0OOVm09tJr/rbQUudjP6/ur2NJyIZmmLL9ojkPpFLOKePGEmaSFhv10ythEBVBETEqiIlOSEgBPqCQEyseJMPQVrjcnZkwReM3RRr+jKMlkrKSE8YY6tGRRLGJyeZOrXzUp3fPU54L3YUmppAOPFHv0BJFM3tPyVUFOUcuVn3JuJPnMQSJOOC0RK2tOFAzLwvGGVgDFMSAkJgwAiIiA0YYKkXAkIgQ8A7tWf+SsOlWNk42uXKuE43ISna6R5UnfEwe8t6CA9BhCOZGEnZGgkYyNYK1hyX8VqCBYyO+GuIDca6LQRotVAYmSrlhIAQGCACImIDBFeqhYAQyCNgXKGO7Cs/zLE8K5KxncQcx0CvJGDgWGYBYwiKZfqCIRzFUfiCcZ9IlrGeFjCzpFGZkhAQAkNBQERsKDCrEyEgBMoQGFTYh7K+qpSVLUtWaddJpppeo1KdVLWtNw14m5lF2H90avtDYqNu+nutgXytGAnzWxN5XzBYwEDUUAUCRoYsBtYWYFUKgQEgICI2AFClUggIgc4IxCSMVph0Ca1z04FKtCJN/fb7Kk6CFikSoTmsje6GDllb7j2ExJhg9AXjEuQx8wWjNQxEDMuQ2yj3VjCzgVnf1khvQkAIDBUBEbGhwq3OhIAQIALF1ckiCbNVtaLQbthJl7C3ImOxGhiabCJlPmWxXMhX0Rlkm4+eNM0WMSkIkliRVpkjPqxg4F7YpohO+NieCEuRyzjatkVmASs01qkQEAIjQUBEbCSwq1MhMN0IkFO14xTmHB9B1K+nDyOVfc92mlPVDsv5JtDCf+4BSdyCNZH5VB51zNMRnz5gJF9LsIStwPq1Amd8Lk/iVCEpql4IyQmBISEgIjYkoNWNEJhmBIw89AgA29Y2FdhXp+2OqlnFCkqTyXvS5Zct4QFm/l+INmFMjMuM4FkgWlh2JBEDCeM+kfQDo18Ytou0kBXUrCQEhEC9EBARq9f10GiEwEQiEFtwJnKCLSZVTqlaCCfFRtZo2zIGmtFQkrxgRtyGyZDLkNsgXRvIkGxxayLv/0XiNWNLkLSAmSM+ZPFfSQgIgRoiICJWw4uiIQkBITC+COSsYuBRJEDx0ir5FFMr3zJWWxvKUDBJXK5lW3ArtwNnfLh+IfQE9oMECTsFxmVLkViGpCP+FsqTbkJzHYWAEKgpAiJiNb0wGpYQmFoEAguZVgDIvgosyoehoI8XrF20flnsL27KzQCt3CPSLz/SEZ9LlIXm04qk5i0ExgIBEbGxuEwapBCYIgSCGaiVyWiSoQhz5xzBpsC3LEMrGJ3taf2iA/4pPAG5REIG6xfJF6NVkHyJgBEvJSEwXgiIiI3X9dJohcBUIFBnDmZPdPaJ8dB3zpYycVVJthgSYwdWr02sQdK/ixYwvkjC6HBvgVmZTwgYtyPiEmWfhjMVny1NUgjUDQERsbpdEY1HCEw5Av65wNg0VD9A+kXGzAEf0zMihTce6Xy/BrLFIKy0eNERn68NEDGGpkDWPwFpS5jWsn4AaURCQAhURkBErDJUEhQCQkAINCNAK5ZZ8CLuGAhWeFq02Ir0yYecoE8XtxjaMQvYBlgWlxpJxLj/IwOy8qlHbsi9DSuZbcgd7F/iYEVYdS4ExhIBEbGxvGwatBAQAnVCgE8zGg+LyFir8cUkzKxfYFqM/WWO9yBfqwg9wSVIRsen9Yu8C1zMwlXY45csUxICQmBiEBARm5hLOV0T0b1oPK934ClFS5GVG5tpsTBJgZYXnRVB8+hw4fA5DPAnGw3Pd/CPR1q1SKYY92sbE+G5bUOE4zoamM9XYgEzvzDIUQ/+51NTQb5aZ0JACIwfAiJi43fNNGIgMPrbri5DLwgUeUTuOiYe+rmy0EmxYSgf9ZFjNgaGAwfOceJF0uUtWt63axXMiz5ea+Zwv5MQMf9UJJ3tuXURiRf4l6njUUkICIHpQEBEbDqus2YpBEaKgPdvIikhIfFPAXJA3KqHG37TQjaTRD3lxtYt7GIt5lBK3VrIVitOOGFmkTKCxL0cOTKyJD/CBny7yMNYRiLlyZTPc1mRzvXe54skzJMynnuLWLWxSEoICIHJRkBEbLKv7wTNLrvZxlHKJ2iCEzsVWntIvlbAPpZgFjoBD3SGYpgH45rDxZzHpZ3FcdbOAQPPYV4KZGjQwJBWMWWfMJywMBQgv5VYrLbgmU/itc3I9jyyDuyLVi0SLxKs8GSjJ58gZyiD2xei3VPey0JUSQgIASFgCIiI6YMwJgjw1oX99XCHxP3MYi2xhDdFpXojQCsRLWFGxBCS4QSCkTJGFknYwpxzCzjOzc6CmO2AkM2AkPk65lFlhMw4UUKMeEiy2cRNLl+KLnzCh8TCTYRWOCfJo24W8ZAmk2WhFyCJ5FOReGjRCBfnYkuOJFc4MeKFvMX94rIj8yRmJF1oQ3kmaMMbrGi5zlioJASEwLQjICI27Z+AMZr/Dm6O3MplBXfxNd4EcVebS2+uyUTsjoe8bni1ubJmBcK1oqWITweugNXQV4qLe3PkO3jNzWzb0ZYqcT6LWhKyeVSatYxlzGNWM3gLcmGS1EGNPJBgkUf5zwBJF07wvxFYkVVQAAkHki0W0bpFEe+vhdGhjqSLZSRdOHhrGDINVPJHAevYnG3tRTnkaR3D/zRZnhVKQkAICIECAiJiBUB0WlcEEEEcNzLeyE/gEbNTWOLiMldjHktbWNIy6wmGXnqv4z1X98CRXViSFW854tOBPjjpCvZILLss9A9jor8YSRqJ2DxYF/NzsyzDciZZGBJlLYsj/iP5i+zzVpC8eYtY/jPgZfnO8ZFokeh7B3uSKhJ9X86xUydls88Xz/KpuSRfrzMhIASEQBkCImJlqKishgjQ6dm561Z23OWz6+70vct2c7zx6XvdjfDavzCLJS7epJtvwzaZFsU1nOjEDSm+JIHM2LFkprQqWcKRFqkdEDISIl4+Xlta0ajPLmd0TFoZWwrkLC1jBjqwG1BzYj98oYaWMBIwnoN7GUEjSeNLSQgIASEwKARExAaFrPT2HQFaJq5bpaM3rSnL7tTmtrvL5gG3HyaTc/cvuDmQsXneosMNuu8jkMJeECAx4jKjrRAaGarGbEjKSIjMl4sdgxEFLkUNMcFj9a4SWB8XH0nCQifM2vmuFKuxEBACQqA9AiJi7fFRbY0QoGWCTt4nN5z71hK3hFkzHzFaMW52xj53E7wO7Z1z+0DMFvp6l64RCGM2FJIZMptAoLodPomQ19Hcsr+WqqiXKNvcq0qEgBAQAv1FQESsv3hK24AQ4I2c90femOnHc/1awy3Bz2hjZ8UdWdt0R7luiTRzJsgY/YpofklSlA1FOg4TgexS+F7tgojtDPMSqC8hIATqi4CIWH2vjUYWIRDftrlktY0n7xib6juwjK1twUSGxKfiTsCB/6bwGTvvwB53EEuV+4Jnd6KLeoq8IKnSYVAIxBePfWi9b1BIS68QEAJjiICI2BheNA3ZI8D7+6lNxm6iI/8GSNmW++apDXfX8w64S85puBse3OP27TfX7RQykbAUCmWEgBAQAkKgBgiIiNXgImgIvSHAWE5+uxznVvFo3ZFVEjL6jfk4Ttzfj2EJDu6ZcwfgN8bQBzSHeTLG96KpprdxqJUQEAJCQAgIgV4REBHrFTm1qwECGZEC33LreLt2Zdt97ro1+JBtuauXN9x1Zy26m8Nv7Can73Pw40ck91msjLEdA33WYAoaghAQAkJACEw1AiJiU335J2Hy3rJFIsbXMWyfs7S5BevYtlvGI5YM+krn/j2In3Bo35w7DdaxPSBj+QXLScBBcxACQkAICIFxREBEbByvmsYcIUDrVpa4wTIepoTTvnNXnNgCGVuDM/+OO46nKr/n0D53C1jHztw37/aCmHGzaSUhIASEgBAQAqNEQERslOir774jQFrGpyrpM/adZfiNIbTFGnZgPgYitoaNp2kNYz3jjS0mfmNaouz7ZZBCISAEhIAQqIiAiFhFoCQ2ZgiAbHFrHPqDXYMQF1s7G5Y/iaXKiw4tmnXsfIa4wFLlPmxkaAuckBcpG7PrrOEKASEgBMYcARGxMb+AGn4zAt5rzJfTb+y4+Y3tuJPr6+4qhLi4fnULrvreWf98t8ctYKmST1oqwFgzlioRAkJACAiBwSIgIjZYfKV9BAiAe6WJeVrGGMbi+Dq3SNqGb9iqWceOrGy5i/BU5Y3P2IulynkLAOs3lk6bKyMEhIAQEAJCYKAIiIgNFF4prwsCjFixhl2QNkHINo5vI8zFirsSm1ZyqXITHv7cq3Lv3B5sTu09+OXHX5crp3EIASEgBCYbARGxyb6+ml2EAJcp8VClbRrO0BYzbgsO+8sW3mIFZrNVOPOfu2/BHVqct03DAxkjiZPvWASkskJACAgBIdA3BETE+galFI0FAiBVDObKLcKPYuPwy45suuNrS9g0fAvn+93tz93vDizMufkF0DD/XyRsLC6sBikEhIAQGE8ERMTG87pp1LtAIOFiiDHGLZEabhnWsM0G443BhR/mL1rAzjuw4M6C39hehLhg8Ne8RYy2MtOyi1GoqRAQAkJACAgB50TE9CmYagS4XElCduVJBn9l4Nct9y1sHH47WMbueIMD7pzFBSNj8z7ARYKVSNhUf2g0eSEgBIRAHxEQEesjmFJVZwSarVikUz74qw8Ay6CvR9Z2EHdsC95jDXcmLGKsPwvhLfYz+Csc+fkykxnaynesztdbYxMCQkAIjAcCImLjcZ00yl0j0NmKRdK1vOnc1Ss77guHV9wmlipvdbYP/noBgr+eDUf+g3uyXSq5XEkyxjRja5ed+/DSehcCQkAICAEh4BEQEdMnQQgkCIRlyrUtWsi23NVLS+7wyqaFvKA9bS+2R1pcmDV/sUDHgu8YfctCXoAKASEgBISAEKiKgIhYVaQkNx0IgE3tgFSRjB1DANjLj28ivMVJd83yhrvknE13C8QbO2//gvmOBeJFksa8liqn4yOiWQoBISAE+omAiFg/0ZSu8UcAbIoLjAz+ugET2fLmtrvy1La76tSmW4Iz/xbWL+fAuug3Nhf2RDIShv0qZ7Q0Of4fAM1ACAgBITBcBETEhou3ehsjBLhUuQHitYUosNfAb+y/r1916/AbOwGn/qMwmZ2PEBfcOHwPHflBwhoNkbExurwaqhAQAkKgFgiIiNXiMmgQdUWANi468R9bn0Hw1y13eHnZXbeygS2Sttydz9tve1Ry7PtAxrhEqSQEhIAQEAJCoBsERMS6QUuyU4vABrY/wraUbhOsbMZtIhDskpuFFYzk64YH9yAA7B7bNHzfLAgZPflB3oIP2dSCpokLASEgBIRARwRExDpCJAEhkCFAMnbNSsMtbXsydg3iXdwRwV/vgOCv5+3f42b2ObcIMoZVSiUhIASEgBAQAh0REBHrCJEEhECGAFzE4LSPpypByHZ2sD/l+g42EvcO/rc4c9vd6Iy96dZICxb8VZaxDD3lhIAQEAJCoIiAiFgREZ0LgQoI0JH/JAjZ9g6Cv1675g4vbbrbnrPf3WnzgLsZQ1xgqfKMPXNgYfa/gkaJCAEhIASEwDQiICI2jVddc941AowZtoYo/GsgY0sbO+7KpR23ur0M/7AZKcwqTgAAO7VJREFUe8qSDv4NPFW5OD+HQLB8mhJdokx+Y7uGXgqEgBAQAhOFgIjYRF1OTWZYCIBTpWmLsccQAPabJ7cRDHbJXYvgr99e2u++58x97qawjt3woN84XCQshUwZISAEhIAQSBAQEdNHQQjsCoEZhLdowE/MIaTFDuKLNXDcRriLbXdyY8ueqtyP/SkPgrktwjI2C4sZjWNmIJOFbFfIq7EQEAJCYBIQEBGbhKuoOYwQAR/CgkuVWKWEz5hz1682sDXShu1RSV+yJUSEvcnpe90Fp+1xB7BX5V6GuKDvGNmYkhAQAkJACEw1AiJiU335Nfl+IACulSY+QQm/fSxTNmAR28Tm4UvuOKLwr24dcAuwiJ2DrZFm98y4PcjLkT+FTRkhIASEwNQiICI2tZdeEx8UArSCYWXSHVuDE/9JhH/dXoW1DMQMhbc4tIinKhHiYhGO/CBjFuJiUAORXiEgBISAEKg9AiJitb9EGuC4IoA9wrEd0rY7tTHjjqytuK9jufKuq1uOgfeZzgUZm7c1Su8zxqcqaV3TkqXBozchIASEwFQgICI2FZdZkxwFArSMrcIyto4MLWRLm5sIZbHi5uGwfwIh+m8Oy9gN9i9gaySEuEj2qmQMWCUhIASEgBCYHgRExKbnWmumI0KAjvzrCCx2fN25rxzdxBOVJ901Sxvu1HkH3S0P7TMn/rNn5kHQEif+EY1T3QoBISAEhMDwERARGz7m6nHKEOByIwO8YkckdxghLk6uNxD0ddWCv65sbbsVPFW5jqcqD8GR/zRYx2gVk2Vsyj4kmq4QEAJTi4CI2NReek182AgYIYPf2NpMAwFfG3DiX4EP2SbCXWDPSjxZedHZi+4mp+31kfjxSKV8xYZ9hdSfEBACQmD4CIiIDR9z9TjFCDDw6w78xY7iicoTWKo8udFwK/DqX4VVjFYwOu+fZZaxWfMlm0ud+ek8RiqnJASEgBAQApOEgIjYJF1NzWVsEKAjP1/HsEz59RNbbg3WsRPrW+7KU+vukrP3w3ds0Z2xdw4BYOcctg5HEgkbm4urgQoBISAEukBARKwLsCQqBPqNAFYlsUzpt0a6emnbXXVq061vNbBZ+CyI2h5Hixg3DZ+DuUwPVPYbfekTAkJACIweARGx0V8DjWCKEdjhI5VIqyBfR7FU6U5tucXDy3jKcsddfNZ+dzH8xs5ZnId1bN6i8YuMGVx6EwJCQAhMDAIiYhNzKTWRcUaAT1UuY7PKTWRWtzbct5a2sFS5bdsiObfP4ozNz+GJSkzSvMUgL2f+cb7iGrsQEAJCwCMgIqZPghCoAQIkV/QZ24A3Px34txs77rKja+YZdu3KhrvlWYvuwoPcGsmHuEh8+JNQ/DWYgIYgBISAEBACPSEgItYTbGokBPqLgF+gTMjY9gzijDXc/xzdgv/YMqxjG9i3EvHGzt1xt5pZdPvhPzavHcP7ewGkTQgIASEwIgRExEYEvLoVAq0QCE9U0jK2hOXK+ZlN0C7vN8YwF0vYHukc7FPJMBcIxu8WEjd+kjn5kLVCVeVCQAgIgXoiICJWz+uiUU01At4+ZoQMOFy3hiCw13urGAPAHl7edLc/dz8sY/vNh2x+3j9RKRI21R8aTV4ICIExRUBEbEwvnIY9+QjMwBGsgacql+A4htVJbIW0DUf+ddsSyXzE8HYeNg2/wYEFtwfhLRjigs78SkJACAgBITA+CIiIjc+10kinDAGSsDgxxMXVy9tw6Gc0/pOIObbh7nSDA+5O5x2w8BZnIPirmFiMmPJCQAgIgfojICJW/2ukEQoBQwCuYe4IwlucRObYGver3LZtkU5DBP7vPrjHzcA6tggyNh8sY1ir1HKlPjxCQAgIgXojICJW7+uj0QmBJgToO0Yn/pnVHff5wyvuFIjZxQhvcetz9rsbHtjjzt4/7w7OzznsLa5YY03oqUAICAEhUC8ERMTqdT00GiHQEQEGf+Uy5ToyKyBkV2CvyiNrW24LS5mbYGkLsIjt3T9jG4jPmp+ZCFlHUCUgBISAEBgRAiJiIwJe3QqB3SJAyxjJmNuYcV8/vgnH/iV3/cqWO4wnK292xl534Wl73TkMcQEypiXK3aKt9kJACAiBwSAgIjYYXKVVCAwFAYQVQxT+hvvmyW13GEuVh7GL+FFYx1awXLlnbtadvmcOT1RiKCRjWqocyjVRJ0JACAiBbhAQEesGLckKgZohAG4FSxjijMGRn09TfvvUNrZKWrMlynWcnwApuwCO/D7ExWzLjcPtAU0599fs6mo4QkAITAMCImLTcJU1x4lHgMuUJGVH8TTl8ua2O7m+6o7COnbt8oa7x/mn2abhZ+xxbm4G2yPBh4zEC0YyS3F+4oHSBIWAEBACNUNARKxmF0TDEQK9IkBCtQ7LGP3GtrFkubm9afl57INEaxl9xs5H8NeDCHGxD/tVIuqYJQaO9TQuKdBBCAgBISAEhoaAiNjQoFZHQmA4CJBYcVnyemyNtLlDMrbkrkZo/jsg8OttEeKCS5XnzC64ubngwk9bmpIQEAJCQAiMAgERsVGgrj6FwAARYET+rcaM2wIZW99CqIttOPDDVLaNxcttlK1s7ljdob3zbhGWMYa7CMuUAxyWVAsBISAEhEAJAiJiJaCoSAiMOwLwAjOfMaxUgnhh43Ccff7aNXcE4S2uxqbhx9f3I8TFPrOOnYHI/Aj/alH6zV+Mkw/GsnEHQuMXAkJACNQcARGxml8gDU8I9IJAWGz0fmMNx+2RljYa7jqwspWtZVjEduBD1jDy5dwed2Bh1u1FuIvMMgYmFlgZlFFfVtfLiNRGCAgBISAEyhAQEStDRWVCYMIQIJHa3plxKyBf38AelZs7K+4EliuPYO3yokOL7hYIAHsetkeaB/+yALAWdCwBgdaxwOwmDBdNRwgIASEwagRExEZ9BdS/EBgSAjtgU4hs4a5b3kF8MW4evu5OomAVPmMkYPNw3s+eqPRLleRgSkJACAgBITA4BETEBoetNAuB2iFAw1aIxn/d6rabOYZly60l2zj8KjxZeXP4jd3o9L3uNITjP4CNw+ksNgPrmJYla3cpNSAhIAQmBAERsQm5kJqGEKiGgF9npPvXyXVuHr6NILA77ltLW+7rJ9bcPW94mkPYMcQb24OtkfhEpVExuIuJjFXDV1JCQAgIge4QEBHrDi9JC4ExRyBz9uIelYhsgb0qsT0SIsBuNTbdvrllc+K/5aF9buPMfe5MhLg4HU9VWjR+zFxLlWN++TV8ISAEaoeAiFjtLokGJASGi8AWmNgSyFgDvmPbOwhxgf0pT8CJnwTtZnDi5xOVJGKBhJHKhfxwR6rehIAQEAKTh4CI2ORdU81ICHSFAIkVt0RaQXiLa21rpC34hK3YtkjHQchW4FR23v4Fd/a+ebcHAWBnECwWbz6kRVc9SVgICAEhIASKCIiIFRHRuRCYUgRoAVvDG7dG2jiyiW2RtrFp+KY7gs3DLzln0V1y9n53LmKNkYQxySo2pR8UTVsICIG+IiAi1lc4pUwIjC8CpFd8opJbI61tzbjr1rbhN7aOLZLoP9aA4/6sbSJ+xp45t4jlyjk8SpluVzm+09bIhYAQEAIjRUBEbKTwq3MhUE8EwMXcDEjZdSvcl3IDIS4a5jd2q7MW3cVn7XcXnrbH9qnkXpUh8UlMhrkIx1CuoxAQAkJACLRGQESsNTaqEQJTjAB8wECsTqw3EGMMS5ZbG+4YIvHzPBCtcxYXzCpmjvx0G9Na5RR/XjR1ISAEekVARKxX5NROCEwBAlyu3AHzOrUx4769tON2sDXS6taW+87yhrv9OQfcRWcvutOxVHnaArYNpzUM8iJkU/DB0BSFgBDoGwIiYn2DUoqEwGQiQHK1vNnA05Ncntxx1yAi/7eXNm2ypyHG2PaBBdswfA9DXMgqNpkfAs1KCAiBgSEgIjYwaKVYCEwOAoirb9H1sS0lyJhz3zq17T5zzTIsZTvuYljFLsbG4ecszuO1YHtWko+Jk03O9ddMhIAQGBwCImKDw1aahcAEIUC7mHMkYnyqchNhLk5ubLjLj226YwgA20DZRXDi5xLl/Bz3qFQSAkJACAiBKgiIiFVBSTJCQAikCJCSkZBxuZKBYP/n6JpZyxhv7Ojaovvug3vcDbBX5WkIcTGDtUof+jVtnjiReWIXlSorBISAEJhKBETEpvKya9JCYHcIkEYx5tgqHPn/79i2O7y65q5Z2cRx093u3APudvAX2zPHjcPJu+A7FvMuPnapJASEgBAQAoaAiJg+CEJACPSEAOkUo/GfgmVsdWubXmTYPHzFgr9y+fIkwl18Fxz5KbPJwGRKQkAICAEh0ISAiFgTJCoQAkKgGwTIsfBApbt+lYRsyy1trrjDsI5dvbzf3fkGB92hxTm3DiEawkTHukFWskJACEwDAiJi03CVNUchMCAEArHCKmUS4sK5dVjHaCVbBztjSIvvgs/YtSBmy1jL3IJ5jE9glniODWiEUisEhIAQqDcCImL1vj4anRAYKwRo9YLPvm2NNOO2YAk75c7eN29PWi5tbsNatoOlSggx4Jh8xcbq2mqwQkAIDAYBhvoJP2oH04O0CgEhMJUIIOC+O7Awg6cn8doz47gt5fUrDg792/bU5VSCokkLASEgBAoIyCJWAESnQkAI9AcBhrZYQwB+bpG0hiVJrFK6JWyVROd9JSEgBISAEPAIyCKmT4IQEAIDRYAEjIkhLBrI6wFKj4fehYAQEAJEQERMnwMhIAQGgoC+XAYCq5QKASEwYQjAa0NJCAgBIdB/BMIKJAkZg7oqCQEhIASEQDMC+tHajIlKhIAQEAJCQAgIASEwFATkrD8UmFt3cujQodaVNaxZXV11a2trNRyZhiQExhOB+fl5d9ppp9ng9+zZ4y644IJdTeTw4cNueXnZbWBTdh6VhIAQqDcCsoiN+Pp86lOfGvEIuuv+sssuc1/+8pet0YkTJ9yb3/xmt7S01J0SSQsBIeAuvPBC98hHPtKdc8457r73va8hsn//fneb29xmV+hcfvnl7ujRo+473/mO+8QnPuE+/elPuw996EOm0zZhV/y2XeGrxkKg3wiIiPUb0S71NSbkS/GZz3yme9/73ueOHDlixOzUqVNdIiFxITB5CMTEZ9++fW5xcdHd4AY3cE9/+tPdk570pKFO+C1veYt70Yte5L75zW/a3+ikfPcMFUR1JgQGgICI2ABA7UblpH0Z/t///Z/7xje+4S699FKzlnWDhWSFwKQicPOb39w997nPdbe97W3dJZdcYoRsVHN9//vf7z74wQ+69773ve4LX/jCqIahfoWAEEgQEBEb8Udh0ohYDOfx48fdYx/7WPfRj37UcRlTSQhMEwJ79+51t7/97d3v//7vu/vd7361nPrv/u7vug984APu4x//uNvChu3FFFv0inU6FwJCoD8IiIj1B8eetUwyESMo9B/78Ic/7F760pfar/CegVJDITBGCFx00UXuiU98onvc4x5nPmB1Hjr9yV7+8pe7v/iLv3DXXHNNnYeqsQmBiUWA4X70GhEGIGITmXZ2sLFNIeHG1IB/jD5rI/qs6e988N9zePqx8eIXv7jwye//adnf1257ueKKKxqwYDfOOOOM9G8UFrE0r8/P4D8/wng6MZZFDJ/8USZ8eY6y+6H2zbl+5CMfcT//8z/vvv71rw+1b3UmBAaJwOmnn+7uf//7u1/91V9197jHPRxDUoxjYnia//zP/3RcsuSRFu1p+o4ax2umMY8/AiJiI76G0/glx0fqH/awhznGO1ISApOAwNOe9jT3x3/8x45xwPqZ+P1AMlTmv8V+Dh486BYWFvrZZaqLT0K/7GUvc9vb21Ymf7EUGmWEQF8REBHrK5zdK6tKxNbX19P4Xd330p8Wt7zlLe2Lf7faOOe///u/d094whMcHfqVxheBs846yz3rWc9yZ555ZsdJvOMd7zDH8I6CYyTwfd/3fe6nf/qn7aEUWsV2m/jU8cmTJ92//uu/um9961tGwD7/+c+7Y8eOlaq+wx3uYOEwWHmzm93MHgrgtWB+t4l/m89//vPde97zHsdxKQkBITA4BOQDMEKfHZCSSglfhCO/TrjpNB7ykIc0HvWoRzU++9nPNvBLvdLYWwl98pOfbCCo5cjnhT8tjaFHDG584xs3rrrqqlaXOFcOC8tY41z0l4I1qoGYXLk59nKCJ4obWAa0v61++FDe8IY3NF0gcA3q3m2CG0Hje77ne8b62ulvXN9xNf8M6AKN8gJV/ZKsAxEr4nSXu9ylgcCUDX7h4xd71amkcnQ4fvKTn6wv+B5JUPF6jOJ8mohYjO8tbnGLxhe/+MX0s9xtBr5YjS996UuNN7zhDQ1iGOvuZx7xyxp4GrJBMrWbhB1AGueff/7AxtnPOUuX7ulj+BnQRRvlRav65VhHIhbjRisZllQa8GWpOiWT+8pXvtKAX42+4MeUjE0bEaNV7MCBA0aiuvqgJ8Lwt2qsrKw0EFesgThjQ/vck0S94hWvaJAAcgy9JIShyZGxooUw/j5QXvdVfQa6+gx0JTy0L45puYhVvxDrTsR4vbCFSwPRwxvwbak6LZP7sz/7M32uRMTG4jNwz3ves+flyM997nONX//1X2/A13Jkc0WA2QYeKmisra119TcahL/61a827njHO45s/NNyX9A8p46XTN2Ea/UlEr7gOh3HgYiFL48f+7Ef6/pX99zcXK2uS5iLju2/H6bJIsbP6Lvf/e5Of6pN9VyCv/rqqxv3ute9avEZp0XvR3/0RxsbGxtNY21VEMct+6M/+qPG7OxsLeaiv8/2f5/CZzzwmcWFUhICfUUANyuL1N2N0p/4iZ/oRlyyQmCoCCDIqQMBcT/8wz/cVb9YhrSNtm9zm9vYVl9dNR6Q8PLysnvXu97l7na3u7nXve51lXph6IqQuFk5n3hWEgJCoH8I6JfNCJeFWv0CLZaPk0UMH037TL3gBS8oTqPl+WWXXdZAPCR9Fkf4WQzXrZvjNFjE6AsFwtL02Y2tRKwsntMK9oxnPKP2n2mEH+nKOhaA4BJnN58VyY6HdUbXafjXSRYxfOqUBoPAK1/5SnfttdcORrm0CoEhIYAQK+4Hf/AHm3qLrUSsjM+vvPJK9wu/8AvuJS95SVO7uhXgyU1HK3a3iRuZI6xFt80kLwSEQAEBEbECIDrtHwKnTp1yeES/ksJb3epW7hGPeEQlWQkJgWEiwO24SMaqJm6cTeL2L//yLzlyVrX9sOWuv/569+M//uO26ffm5mbl7uG074ouBTEZraxIgkJgyhEQEZvyD8Agp8/dABghvEriF7i+xKsgJZlhITA3O+te+MIXOjjpV+6SlrAf+ZEfcf/7v/9rbbCMV7ntKAWxrGr7ZL7mNa/pahh4Stpxd4GQxmW+Ybw6CoE6ICAiVoerMKFj4Jc7t2sZVioSueJ5PI52dbHcNOWFSf5qX3ijG7nHP/7x+cIOZx/96EcdYuN1kKpnNR8sQIBmx6XKqoRq//797lWvetVIJzTOn9thjz30F44jvXDqPEVgPs0pIwQGgAD3lERk71LN/LKPvxBoSXjTm95UKlulsHjzQFwzW1JCFHR38cUXm4pb3/rW7s53vnNbdV/72tfcxz/+cZPhfn/c64/LrHC+bttut5Xf/d3f7Xhj65RIcLG1jutmGamTTu4j2kvCdjpufr7a18i5557reu2nl7G1a4M4Wo7Wq3aJ1jBek6rpec97npES6h7XxA2+8ZCN41Oe2Dmj0jR4TR/96Ee7v/3bvzX54gbGPD8H1/7QoUOV9PHvL2w0XqUB/+4RHNeuVbBe8u+WxLLuKXxnLS4u2ncVdkJw/I5iOd017n73u7clxVdccYX7j//4D5vmd77zHYet52yTeObLUugvHMtkVDZ8BIp/M8MfwZT3WPUP4vLLLx9Lx1gSLRKHqikmZlXbFOVIuhA40/HGf5/73MfhaUyH6P1FsUrn2CnAcYmVX+yf+MQn3Gc+8xn353/+55XadivEkAIcb6eE/QMdYlI5+i71mi699NJc06KvT66yzQniSTkS3irXDXGr+koe2wyrYxVvWPe+971byn3v936v+9jHPtayvljx5S9/2X3/93//RGxiz2t5I1gD6VZw0UUXFadaek6sOP+yRH2/93u/5572tKeVVTeV4Ulcd+TIkabyuICbmmPv0vSHCzc65/UMf+cf+chH3OHDh9MmP/uzP5vm65Qhvs9+9rPdOeec4+573/v25buKJIzXg59x7KbQNF1ej6r3nabGKhgIAtV+yg6kaymdBgSG9Qd/9tlnm2/OTW96U3P6v+1tb9sXeGnt4YtfmHw97GEPc3e9613tS+5DH/qQuww34J0++QGR0CDYZsdx0xJGAtQpYVNq913f9V3uAQ94gDvrrLPcQx/60NR6RUfrYSfeJMONcth9x/194AMfaPs0I7Ete0oy1lHMY3eIoS7DF/vv5zn/Zmlx/Yd/+AfzG6tyzfh5QiBna1McC/Xxx1CVzzbblpH60047zZ133nn2t/2gBz3IYXN0R+tRsIAV+6R1PU7YUcBO+QPkC1/4gv2gGpXFjH+LD3zgAx3JJH8A3e52t4uH2nM+fFfxSVa++F1Fixo2lHfYnsrxxwJ/FA/rO7nniUxpQ3qT6jUiDPBHUSmNYxyx8LmqNMFEKLTp5vjwhz+88clPfrLrfS67GVeZLONE4Yu9b387IAhl3eTK8EVqG6xz0+l2GP3iL/5i4z3veU/j+PHjTfGtcgqn7OT973+/bcXVDjvGs3vnO99ZGZm/+qu/Gvv9UkF+mj5PWHZu4KEDw4Gfu04JN/omHQFnxhyrmmAdyunhPrbve9/7+vZZBgFrwPrcgAUv108Y6yCPIEcNuD008GOqKhxdy5VdKzzJ2+DndJBzk+5d8ahdNdaF3SWBq/pXJiKW/5zi118DyycN/LqtCqHJlX1JdaWgRPiqq65qIPRG4/TTT9/V30MVIsbujx071igSMVgtGvgV3Kiqo2QaE11EzO5xj3tUuj68jlUTwrM04E9VSe843qgYkLZquu666xqwGjdhQZLXCxGDv2TjT//0T22j8qpj6Fbu7W9/e+OCCy5oGnM/rxW/qxD+pAF/2YHOpcrc4dbQgD/frr+r+omPdNm9LX+DEyjDxaPKHw9lxpWI8Vdn1fSXf/mXlb8QuW8fCVBd0tLSUuNlL3vZriwjVUlUkYjBUbmBhxwa8KupCxy1Gge29GnAR6jyZ+v1r3995fHDob/BPSgn9XsTTuSVseDfAHwcS7HohYjRgtPOctSPH1V4KKAB/9sGN0Mf1DXE8mDPG8VXBr8LQV4nBNvuaBkeFB7SW8oxSgsH9qHURcjjXfXvZ1yJ2BOf+MSqU7Rfap0+H/CraHzqU5+qrHPYgrx5cKm0l5tzN0QM/jFmiSERUCpHgJta/83f/E3H77J4WQ4+deXKWpRi78mO+jt9puteT3JVJZEY4UGWUjy6IWJ4WrDxj//4j1W67FmmSOJI1uEsXzr2bq5P/Fni9l/cIL3XVBxjr3ratXvkIx/ZoMWumzlKNn8P7xMeA1GqC1txybLdH0lcN45EDM7nDTj8xtNom6cvSKcP9Xvf+97a+zwh1IUtm4a5xF/Ooazs2ImIhS9mWsQe8pCHmAWMZGPaU8CliAM/T1zeKsO6VdljHvOYopq259NwE+PS3f/8z/+0xSFUcukLWx81Yd4NEaPvJS1VVVKra1+lbVHm6NGjTeNu9TmpUo6dFcbiuwrhR/o67yrYSCbPu/TUJD4RSoNBgE9bVY3DxCeYuNVKq8QnjP7gD/7A/dAP/VArkUrl+PK1eGCMVQSC1NQGN1YHX6Km8m4K+LQiH58HEbCQF+yzHymMlzGH+JQen75San7KDr5KFhKg25h0fFry/PPPt6fKAtbt8P2Zn/kZx/Amk55gLXIMicCnhjsl+NelISU6ybaq55O+VVOV61RVF+OcMQYcrJyOT0T3kjgehv7gd1Xxyc1e9DF2Ib+ryhI/rwyzspvE7yo8COF+7ud+zv37v//7VHyed4PXoNqKiA0KWek1QnOHO9yhEhLw90oDE4YG/FIjieGj6m984xt7JkiMt8VH1l/96ldbEE/4SDjG4ipL4WbMUBK7IX43uclN3D/90z9ZZPZeNlQuG1soY/BKftl3mxhX6XOf+1zaLOCbFvSQIU4krjzyWrW7McKq4r7xjW/00Ev7JqFP9s94e3/yJ3/SMVhrmUaScMbCCvrKZEIZ51F1+67QZlyP/Fth0FDGuaqSLrnkEseYeINMHNOnP/3plDiEzzJ//DG8DMNd9JL4t/W2t73N4nr10p7xwPhdFW/71K0eYs24awzWShKMJ59LVXDODKjMI38UMORK1e/bWCHjtjHwNskYloTt7ziuV344CMgsWXEZEZej71jh5lEpjdvSJKw1DQQ/rTQ3Li8861nPauALpQlfxA7q2ScMxKPx8pe/PLdM2O01vOc979nAl1wDwVwrzaUoxGVEbKjcNK+ycXRamizqbnfO8f7d3/1d48EPfnCDc+Cr+ERbGd5l42pXRj+Yqg9NIABnJRza9TfIOj70wOWkKolhHRAXq9bz6SdWsGxXgcVk+Hko9t3N0mS7jv7rv/6r8dSnPrWBOIE53ybYtq1PLhUjLpf5eyGYaTtVbete8IIXNM2hOKfiOQJIN0Ci2uptVcknTulfx79TBKftum+OBbEUG4973OMaCObaqpu25Qx1g7hmbfvux3dGETed22e3/+RCwFbHtO1fRlQ5TkSMXyT05eomtXraijfGqv4icX9vfetbG3Ro79dn8YwzzmiQSPTik8IYSPSX6zSW3RIx4vTiF7/YbkS9fpl3GmOxfpKIGH88YG/U+GPUMs8bbpVrWsRrnM9bglGoGAQRW11dbTCURjHGWCdiwCcWX/e613X9dws3icYP/MAPdPybja8nY8/18l31jne8o+/fVdgztKe4ilgG3dUP1xgP5avzAGDVlXBXH0zp7oxt4Tus5em4EDH+cqYlppuEJYbSzxW2RGnwUetuEgMX0uGaxGkQnz/4ZBjJ7IaQYYske3qKN/p2Y+qViPHLH8sp9mu6nf5B1E0SEeNNvmqihWcQeNZZ52WXXVYJnmuvvbZB61A8l91YxGip4Q8MxsqLdcb5YBELZYGghSO2PLOAsJUmkAjxyc2gr9PxSU96UoMP6XSTaLGntX1Q31WMm9ftAwP8rmK8M1rXOs1Z9Z3v711g1FdlunhdEtuqf7jjQMQYCLPq0k6YN7+0sTdk0+eGy2hVrBMxIWI8IPhJ9BQ6oos/GPvFWFx2jccR5lY8Puc5z2maZ9xvr0SM8dfKlsnCTSjuo995EbHp+f78zd/8zeJHuvSckeuL1qReiRhj4zEaPZeNd/PZ5ZIlQzV0k0isqvTJ4MrdxvCj5YmhT3oJc1NlTEGGP4x7cat4/vOfX2nuoR8dd/c90HnDOiCsJATaIUDH8cc//vEO28e4+9///l05e9Lhlk7cxcQNgqvsTQeyYU3piA5zvD0BBAtRUV1fzn1PzhzBEZ3a+sIXu+kO42jXEZ/G6ueTjuybDuO/9mu/Zk69xb7D2IrlOhcC44AArDMOy4oOP+4c80zhb7Db8fPpVrgrOFjWXNXvBz5RCF+xjl0hXEel76qgiE/1wifWYQuyymMJbbs9futb37LvZvbVzfcBv8+rPCXb7Xgk3xoBMd8urViAsm+Y4Y+jUqqjRez//b//12BAUVqi2kXAbjVBLqnRh6MMT8Yj6iYhrMXAf10Wx8ktlrChbuVhEqOnPOUppfOl7m4tYgweyzEUxzXM82myiMVWz6LFZ5iYj6qv5z73uZU+67u1iAWc/+3f/i3nh9cPCy/Ck3TlzM7lWDy13fZvjEun3SSEtRj6dxUtY9048fO76ld+5VfazntUn8NJ7FfhK3BVxyHRkvI7v/M7Ix8qvnDc8573vF2P48orr3QPfOAD3Ve+8pWcLj4+zl+MZY+fs++i5enb3/62/eL74Ac/mNMzjBPO4W53u5v77Gc/6+50pzt17JLhEfAEpcPTUR1lOwkwvhAfcecYlIaDQPzZwybzw+m0Rr3E8x/ksNgPnPMtDh/jeoXEv//dJv7dvPnNb64cfwtR/h383Rwt7mXpta99rYOPV1lVUxn7xlZbIwl7QssYQ2pwBeIud7lL09iKBfyueslLXuKwbVtXlrSiHp1XQ0BErBpOI5ciEfut3/qtkY+jHwPg0gB8EJpIGHUzQCHJWFkquxFwORS/9Iyg9eOLuqzfTmUMHIpH5h2/vDolLmMwVhVjBfWaOE/GJkMIhV5VqN0uEYBztsP2NbvUouatEGAMvnYBnlu1q1IOK3YVsVTm1re+tfvyl7+cnocMfMMc9qgMpy2P4QckLHzuox/9aEu5YVQgnI/FU8SOE5W6QzgMB8t7JVkJ9Y6AfMR6x26oLUdFMvo9Sf6yhNOse8Mb3lCqmhamKoSGjamLvzD5q3mU+DCAKIO/Vk0PfehDHQNP9po4190QuV77VbsMAcS3y04mOFf242fQ02XAZVr/B7VrAYlY1SDLnP9tbnOb0iljmzF3xzvesbQuLqQOWvnxNLfjDiKjTNh71fzkqo6B/qcMqK00WARExAaLb9+0F78QR0k8ep0UCROdQBnFuVXilx6j21dJr3zlK6uIDUWmG+sIlycvvPDCnsfFG1W3v+p77kwNpxqBUXzP0MINn9iB4o6nOB1C3eyqD+4gUPVH42te85pd9dXPxlxyrJpIwqblR0dVTAYhV+2ON4iepXNXCBSJ2a6U7bJxpy9rhKFwcER33CMRgV7b9sZfjVUSt0RC2IYqokOR4RyrftnS56TVr+wqg4Uzc/oUWRV5yQiBfiCAh3MqqUEoB/t7ryRcIsS/bTiLl9T0r+i///u/zQ+tqsbwfRuObFdlWZJy3Kfz0ksvZbYWid9VVf1UuYRJPzmlwSIgIjZYfKdCe/zlFE+YhIG+FXTKx9YZcVUu36p9TqhwwpAXg/IhKXRV+ZS/5Dc2NjrK80EEbNHSUa6dQC+YtdOnOmehBLAlVSUouITeypexkoIxFHrAAx4wlFH/4R/+4VD66aaT8GMzHNn2zne+cyUVtO7RUb9Oid9VfCCiU2IIod1+V3XqQ/XOdfYuFkpCoEsE6NvBp3ToGPrXf/3Xjr+Q26Xw5fbsZz+7nViujo7qVb5Ico0GfMJfvlVjFGELogGPRuq7RYD+Owh+6RBeoGVTflZJgrlcw2WpEN+qZYMJqRjm55Ubeg86sQ/sW+luetOb9tQV44BVTXT252badUqHDh1K/VTDZ7rV+BgzsR9PyrfSr3IRMX0G+oQAolA7mvvpBPv5z3/evuRIwOgXxhtXIFvtuuvmlxefuqxb+uIXv+iIA5dgO6UnPOEJFtSxk5zq64VAsETe8IY3dNigeVdLcPWaWfvRYCue9gJR7de//vXorPtsle+K7rXmW9ByffTo0XxhF2f0D6ua6IowLGtilTEF4hVwDp/pVm1vdrObtapSeZ8QkEWsT0AOWg3X9UeduNTIp39i/w36aZGA8Rdmq9hK4Q++n+PfzZdoP8cR6+JTnFWWJtkG20HFTZWvAQL8XDO8QDuLWBgmo65zeZK+j5Oe5ufm3AUXXFB5mt08uNJKKSPo7z5qWCvtwy0PxGe4vbbuLRCvcGwtqZphISAiNiykd9lPlZvDLrvo2Jw3Kvp8LS8vl8ryD7uMdLUqL1VSofAb3/hGBSmJCIHuEOAPjW6epHvRi15kQXW762V8pAMZOoQYhvTzrJKwd6xDpPkqom1lJoWEcZIiPG0vtSqBgIjYmHwM6FxZ91RGwjjmVuW9zqebx6977UPtphOBbi1c3D+U+/gF0jJJqAUyxD0HsZVVpakxNI1i3FWCSkJCIEVAT02mUCgzLgjc6173GpehapxjhgAfMukm/dRP/ZTbs7AwMctoZXN/xSteUbrlWFGWFvOvfe1rxWKdCwEh0AEBEbEOAKm6fgg84hGPqN+gNKKxRoAWrZC4d2DVp1+x6bo76+yzQ9OJOnJJjcuvVeNl8QnSz3zmMxOFwW4m0++VgN2MRW3rjYCIWL2vj0YnBITAEBAIy3DsioSi6s4F97nPfRz3EJzExJAV3Be1aqJv2Je+9KWq4hMvJ9+wib/EfZugfMT6BqUUDROB+9///u6DH/zgMLvs2BefLNu3b19HOQowrIdSPRFgHDwSMYanqJIuvvhi95SnPMVxy61JsoLQBaBqNH3i9OEPf9hVDYhbBdc6y3SzZySXbFs94FTnOWpsw0NARGx4WKunDgjwi/xRj3pUBylfzThcdSNiDNzISNRV0qte9aoqYpIZAQJclnzrW9/qnv70p1funXuovvGNb7QwLpPguM84ab/xG79Ref4Ma/PiF7+4svy4C/72b/+2e/KTn1xpGh/5yEfcL/3SL+npyUpoTaeQiNh0Xvdazvq1r31t5f0auRktSU+dfmnyybI5xFwqS7SUxEsVdYyDVjbuqmXF+VVtV1c5RtjnDfTe9753pSHe9a53tfhjb3/723Nx9io1rpkQY6Txh87d7373yiN717veNVXLkowZWDXxBxrT5ZdfXrWJ5KYMAfmITdkFr/t0qzr73uUud3H3u9/9ajWdX/7lX063DSkOLCZhDM7L7VUmKcXzm5R5cbmRcbGqJv6QeOELX5h+BuIHAKrqqIPcQx/6UPfc5z638lBISqbJGhaAqepHyIc/qj7wEHTrOF0IiIhN1/Wu/WwZMLZK4sbZDB0w6hQICP2Jqm7RRCLGvTKV6o0AN5bncnnVtH//fvfgBz/YnYUAqEzxAwBVdYxa7sILL7R9BRcQkqNKoiX0fe97nyNW05a4pVmVRMv9Ix/5yCqikplSBETEpvTC13Xa73//+x2dpask+pN140xcRWe3MrwRMeAlYy1VTW95y1vcN7/5zarikhsRAvQVoy/QlVdeWWkEJOV03H/HO97h7njHO1ZqUychLkW+853vdLe85S0rD+uqq66a2g2hSUCrbmn2kz/5k+6+971vZVwlOF0IiIhN1/Wu/WwZCmB1dbXyOJ/xjGeMfN/GxzzmMe4Od7hD5TG//vWvr/wFXlnpiATppP3Vr361Uu/BelhJuAZCHO9XvvIV98xnPtNx+6N2iYQ8JFpHSWjoMzg7Ox5fsVzqf/e7390VgeScX/3qV7srrrgiTH2qjtyXtJvQJfwcHTp0aKow0mSrITAe3xLV5iKpCUDg6quvdiQ2VdPDHvYw94IXvKCqeN/lGLKC4616w6XP0SQt4/Ax/iNHjlTC9bGPfWwluboIBXJFB3xubt8uFUkml/g+9alPma9V1WW+dvoHWcdtmkjCwpJq1b7oRtAJl6q6xlGO+5J240v3oAc9yDaVH8e5asyDRUBEbLD4SnsPCPzzP/9zV745tIqRkA0jxTfc888/334R3+QmN6nc9Utf+tLKspMmeLvb3W5sp/S2t72to1WsOLnzzjvPPec5z3EPf/jDi1W1OX/5y19uJOzcc8/takz0ceQPkG4eZuiqgzER/tznPue62Z/0kksuqfXnYUxgn7hhiohN3CWdgAlhyYN+VFV9xThj/jKnH8agU7CS3O1ud3NvetObuvKnoQXh0ksvHfQQa63/qU99aq3H12pw9Aci4f7Yxz7WSqS0fHFx0b35zW+20AWMNVaXRB82xuF70pOe1PWQGDLmiU98ovvCF77QddtxbzBTMgFe36q+YmxO14RHP/rRJZoGU3TnO9/ZyCK/u/5/e+cSetPXxvE9EHqLDCQDKdcMjJQIA8qtSBkYmIgoIynlMlCKXIoYSCQDl0yUSElGSpKSKDKRy8TMfyAG6h2s9/mu979/7XOcy9r7nH3WOWd9Vv1+57L3XpfPs87az37Ws54V+iervaz9pMERkHMDf5EY2A8jKKUkI7M6OZvqc+Z/FMQmP8kUN2cWiNr7sjnnO7sZOfMb8kXnr3k92r3awgJnA3nb+tmTdbtLG7636OVu4cKFbfMZdF+5d+9eQ/06fbCpTLdkyZKhqXtZVmbRcLYFUqcmtj1mzv/u6NGj0dt+5coVZ9HeG+oZ2od1kYWqcPqNlmF34cKFhvI6fZg5c2apvMvUo3jujRs3OlVj4pgt2OhYH41Vtln8xPkhb9QXbNWlM6tpx7yL9a3yftGiRc62npqoUqicnz59Wmu9qrRlnK/BImbSJQ0XARs1/DTQqVOnMu1fF5oUTPXMmTPZ3bt3S+2RF5q/VkcqtpSsdQpVkE9T5q+d8pH1TI7fGt3GLT158iS4SVOmTBnYNHJwpdqc2Mr6oVWC2sqoSpIf4blz53wMOUWtX716dZVsKl2jaXQ5i3/69MlHhJ80qTGWd0gf/v37d6ap9SNHjozVVk6VgBYuMuXG9+kyY5X6gsLdaGq4rpXfslrKWqc4ZnkKkbMs96Pmz5m3b5Rf0Xw7WClMsLXymXhU6fKm7noMY/42aDiLy+RsFWUXOo2H9dQnq8Xr16+dRUbvWX5z5sxx27dvdxYZ28nqVjbpydduhF3rMaoWMVslWAqJGP78+dPZVF1XJsPUL9UfVR9T+N2ePXsq9YUclCwi6qO24tTt3r3bmY9WA4u8rF7arz5nwVmd3VidLJEqs1vqZDHZtWuXb3uVOo2zRUw8JK9NmzY5U1YnLOXdWOt4PlZZIGtnAaq79oGQfiGZ20Nfpf758eNHZ1PwDfWoIm+uKac3ND4WGT0SBGITsMFmwpdBATXll6NNvkOTrp88eXKWL8m3KQgfdPLLly/eKhWSj1a6bdy40UfE1pOlQhFUSQrvICuaVoOOa5Kv0MuXL7NVq1YFNVGWy+nTp/vQB1pokacyK9Dya1q9avsobVHU72T3TZ+lKTTeP/DNmzeZtvbRCsmySRYR9VGbOvJ+g58/f85kibh+/brPyh4isjLb6Ogi7Q+Zxy9T/DOtgrSb6oTlNqSO+u00J/k/nT17Nrt9+3bzIT7/S0B9Q+PU8+fPM61CDU35WCU/LvUlhYK5efNmpniK6g/NKe+Dxe/Vl1Tm0qVLs507d2ZaFNNKjsVrWr3XWKX9M799+9bqMN/VSABFrEa4ZF2NQHGw+fXrl49WrulGs0qVzlBTiFKEtOmu+cVkZoXweWilk6YL87I0mM2dOzc7ceKEP66BTBGx9X3zNI5O0HUhg51uXi9evPB5jus/hbAoo4jlHKZOndqw9YsCofYjiXcZxb1KmepHiqyu3R0k4wULFlTJZuIaXT9//vxs8+bN/jvF0pPCp6RYVdpQvFXS4odly5b5Q+qnYqokJa8fSdPpiol2+vTpfmQ31nlo6lYrZG/dupXt2LGjdFu1sENbIZ0/f96PU/lY9ezZs+zOnTt/5VeUvfYHbTdW/XVh4Yt8/NNYpvFQ+6uS4hDADFnz9KOJtS1j+yEEpU55pHDMnuydDXDuz58/Qbx6PanTFE1I3vZU6eTkazfGtrJvltsoTk2a/cS3T07HFtIgBE3DOb1ybsjs3w92Mwlm3iyDKp9NgXcWy66yE3+rNsT+TotRTAHo28KKcZ+aLPYbs5A6W8Vd2qWiV5nnv6X8NTQ/2+XDXbp0yc2YMWOgv5sis9Tf46xvPYA0/ARkLt+3b1+mGGODSCHWrnb1+PHjh58qOHny5IQFrt25o/69Rm4lxZOy1ZP//1Dify+cSxRT66naAkmbfcsxWv101JM97PgQC9o3c5yCDw9KLlrQsd/cGR4+fFi5SFOiSl+b/5by15AMNI2/bdu27PDhw6UWRoXkzTnhBFDEwllxZmQCmlrUFOPBgwdL+88MouqaTjKnWx9jSb4emlqqMqAOoq51lKEVgY8ePQrKety4KOadOd17Hx0ppGX9u4KgFU6qg5+mwhSgVMGRdWPWVBupGoH/Wn+Qv9WBAwf8XqUau8qkMspUlb4gZVsPDfv3788+fPhQKmZjmXZwbjgBzJEdpg4NY6187EcUlOqux6jlb07Jzhxa27Ira55vm1GJAxcvXnS2l1zl/jKKU5PN/UZTyJ2mKAchl0FPTTYzMP8sZ35b7vLlyyV6z2BPbZaD3YydBUR2dcXwSmlqsrk/aKry/v37DQIW/2YZNJxQ8wf1zdmzZ1ceq5rbyOfe9AQsYtaDSKNH4O3bt9mGDRu8s7Q237VwCA2NKPNE2XBhmw82LrY8omlIC36YWZiM7NChQ5kFW215Xipf6ilb8da0tU+rPSj7LZdh5KpVhrIsyRqiHRi0eMACfg6V1UFy0LSU5HX8+PFs+fLlfmr5H+vPpP4S0FSlnPjlwK9VlYo3Jv6D/i3o96gdIrSQRX1Te2WShocAWnHNVi8TdVvGoQ8+nfJI/di0adPc+vXr3devX0Nx9uU82yLGrVy50tlqp7byLSMbWcRCnpKHLbK+2mg3lQYGirVl4SycrXbtC+symcS2iDXLXP1z3rx5PvZYmXb049xW/ckeHtyxY8fcmjVrBmYVSdkiVuwP6gumCPn4cf2Qb2gepgA6xfuzVeQNv9Ni3Xjf/j5dNxvCVxjhWOnviD2xajLa5SrEhcJR2M0us8Em27JlS7Z27Vofq0rRq/uRbMDzEdHl+/X48WO/1DsPL9CP/PM8Bv2UnJfb66v4FJPYKKSF/hT6QNZLxTdavHjxX5aAQUaYL9ZxUO/VP/VnDwo+Zpj6qCxlsqLOmjUr00bQtmKtlurI6pU73Cs2lUKEvH//vpay+pXpIH8D6reDLE/9QHt86newYsWKbOvWrdm6dev6OlZJDu/evcu0J6j8Fa9evepD9/RLPuTTfwLSBRpH0P6XQY4dCBQDWrY7TYOFthYhhRGYZAFD/2MxwMwHwitlMsVLOauSFLRTMcwkgwcPHngnbDnl15E0faFYZt2SnKoV86fMlird8uz1uG5mzcpYMU8d1/ZGreJb7d27t3hqz++/f/9eaQVnzwWXzEBx6hTc1iKy+w2WxUjO05ra7TXJ2V7KsIUm8A8pyk835joeHkLqqm18FLQ0JF27di2r6zdWLF8Bm6UEd0uvXr2qJUCwypX81Q8s/ItXyqScW2T8blVqeVzKVx50V2OVlPCYMm9ZSb5sSQBFrCUWvhx3AgqCKb+YYpLPhIJXkiAwTAS0Q4T+mhVdKW4K9mmLI4aputSlzwS0W4KsZ0X5a1WulC3SeBBAERsPOdIKCEAAAhCAAARGkACrJkdQaFS5dwKyJpAgAAEIQAACsQlgEYstAcqHAAQgAAEIQCBZAljEkhU9DYcABCAAAQhAIDYBFLHYEqB8CEAAAhCAAASSJYAilqzoaTgEIAABCEAAArEJoIjFlgDlQwACEIAABCCQLAEUsWRFT8MhAAEIQAACEIhNAEUstgQoHwIQgAAEIACBZAmgiCUrehoOAQhAAAIQgEBsAihisSVA+RCAAAQgAAEIJEsARSxZ0dNwCEAAAhCAAARiE0ARiy0ByocABCAAAQhAIFkCKGLJip6GQwACEIAABCAQmwCKWGwJUD4EIAABCEAAAskSQBFLVvQ0HAIQgAAEIACB2ARQxGJLgPIhAAEIQAACEEiWAIpYsqKn4RCAAAQgAAEIxCaAIhZbApQPAQhAAAIQgECyBFDEkhU9DYcABCAAAQhAIDYBFLHYEqB8CEAAAhCAAASSJYAilqzoaTgEIAABCEAAArEJoIjFlgDlQwACEIAABCCQLAEUsWRFT8MhAAEIQAACEIhNAEUstgQoHwIQgAAEIACBZAmgiCUrehoOAQhAAAIQgEBsAihisSVA+RCAAAQgAAEIJEsARSxZ0dNwCEAAAhCAAARiE0ARiy0ByocABCAAAQhAIFkCKGLJip6GQwACEIAABCAQmwCKWGwJUD4EIAABCEAAAskSQBFLVvQ0HAIQgAAEIACB2ARQxGJLgPIhAAEIQAACEEiWAIpYsqKn4RCAAAQgAAEIxCaAIhZbApQPAQhAAAIQgECyBFDEkhU9DYcABCAAAQhAIDYBFLHYEqB8CEAAAhCAAASSJYAilqzoaTgEIAABCEAAArEJoIjFlgDlQwACEIAABCCQLAEUsWRFT8MhAAEIQAACEIhNAEUstgQoHwIQgAAEIACBZAmgiCUrehoOAQhAAAIQgEBsAihisSVA+RCAAAQgAAEIJEsARSxZ0dNwCEAAAhCAAARiE0ARiy0ByocABCAAAQhAIFkCKGLJip6GQwACEIAABCAQmwCKWGwJUD4EIAABCEAAAskSQBFLVvQ0HAIQgAAEIACB2ARQxGJLgPIhAAEIQAACEEiWAIpYsqKn4RCAAAQgAAEIxCaAIhZbApQPAQhAAAIQgECyBFDEkhU9DYcABCAAAQhAIDYBFLHYEqB8CEAAAhCAAASSJYAilqzoaTgEIAABCEAAArEJoIjFlgDlQwACEIAABCCQLAEUsWRFT8MhAAEIQAACEIhN4H8lq6mbMFjFxQAAAABJRU5ErkJggg==;" parent="1" vertex="1">
          <mxGeometry x="666" y="145" width="65.59" height="60" as="geometry" />
        </mxCell>
        <mxCell id="Fu-hgY2Prab3ta5RPqmp-9" value="" style="shape=image;verticalLabelPosition=bottom;labelBackgroundColor=default;verticalAlign=top;aspect=fixed;imageAspect=0;image=data:image/png,iVBORw0KGgoAAAANSUhEUgAAAI4AAACECAYAAABGZhNuAAAMPmlDQ1BJQ0MgUHJvZmlsZQAASImVVwdYU8kWnluSkEBoAQSkhN4EkRpASggtgPQi2AhJgFBiDAQRO7qo4NpFBGzoqohiB8SO2FkUG/ZFEQVlXSzYlTcpoOu+8r3zfXPvf/85858z584tA4DaKY5IlI2qA5AjzBPHBPvTxycl00k9AAVaAAHqAOVwc0XMqKhwAG3o/Hd7dwt6QrtuL9X6Z/9/NQ0eP5cLABIFcSovl5sD8SEA8CquSJwHAFHKm03PE0kxbEBLDBOEeLEUp8txlRSnyvE+mU9cDAviFgCUVDgccToAqlchT8/npkMN1X6IHYU8gRAANTrEPjk5U3kQp0BsDX1EEEv1Gak/6KT/TTN1WJPDSR/G8rnITClAkCvK5sz4P8vxvy0nWzIUwxI2lQxxSIx0zrBut7OmhkmxCsR9wtSISIg1If4g4Mn8IUYpGZKQeLk/asDNZcGaAR2IHXmcgDCIDSAOEmZHhCv41DRBEBtiuELQAkEeOw5iXYgX83MDYxU+m8VTYxSx0Po0MYup4C9wxLK40lgPJVnxTIX+6ww+W6GPqRZmxCVCTIHYPF+QEAGxKsQOuVmxYQqfsYUZrIghH7EkRpq/OcQxfGGwv1wfy08TB8Uo/Etycofmi23OELAjFPhAXkZciLw+WAuXI8sfzgW7yhcy44d0+Lnjw4fmwuMHBMrnjvXwhfGxCp0Pojz/GPlYnCLKjlL446b87GApbwqxS25+rGIsnpAHF6RcH08T5UXFyfPECzM5oVHyfPAVIBywQACgAwlsqWAqyASCtr6GPngl7wkCHCAG6YAP7BXM0IhEWY8QHmNBIfgTIj7IHR7nL+vlg3zIfx1m5Ud7kCbrzZeNyAJPIc4BYSAbXktko4TD0RLAE8gI/hGdAxsX5psNm7T/3/ND7HeGCZlwBSMZikhXG/IkBhIDiCHEIKINro/74F54ODz6weaEM3CPoXl89yc8JbQTHhNuEjoJd6YIisQ/ZTkOdEL9IEUtUn+sBW4JNV1xf9wbqkNlXAfXB/a4C4zDxH1hZFfIshR5S6tC/0n7bzP44W4o/MiOZJQ8guxHtv55pKqtquuwirTWP9ZHnmvqcL1Zwz0/x2f9UH0ePIf97Iktxg5i57HT2EXsGNYA6NhJrBFrxY5L8fDqeiJbXUPRYmT5ZEEdwT/iDd1ZaSVzHWsdex2/yPvy+AXSdzRgTRXNEAvSM/LoTPhF4NPZQq7DKLqTo5MLANLvi/z19SZa9t1AdFq/cwv+AMD75ODg4NHvXOhJAPa7w8f/yHfOmgE/HcoAXDjClYjz5RwuPRDgW0INPml6wAiYAWs4HyfgBryAHwgEoSASxIEkMBlmnwHXuRhMB7PAfFAMSsEKsBZUgE1gK9gJ9oADoAEcA6fBOXAZXAU3wT24errBC9AP3oHPCIKQECpCQ/QQY8QCsUOcEAbigwQi4UgMkoSkIOmIEJEgs5AFSCmyCqlAtiA1yH7kCHIauYi0I3eQR0gv8hr5hGKoCqqFGqKW6GiUgTLRMDQOnYSmo9PQQnQhugwtR6vR3Wg9ehq9jN5EO9EX6AAGMGVMBzPB7DEGxsIisWQsDRNjc7ASrAyrxuqwJnifr2OdWB/2ESfiNJyO28MVHILH41x8Gj4HX4pX4DvxerwFv44/wvvxbwQqwYBgR/AksAnjCemE6YRiQhlhO+Ew4Sx8lroJ74hEog7RiugOn8UkYiZxJnEpcQNxL/EUsZ3YRRwgkUh6JDuSNymSxCHlkYpJ60m7SSdJ10jdpA9KykrGSk5KQUrJSkKlIqUypV1KJ5SuKT1T+kxWJ1uQPcmRZB55Bnk5eRu5iXyF3E3+TNGgWFG8KXGUTMp8SjmljnKWcp/yRllZ2VTZQzlaWaA8T7lceZ/yBeVHyh9VNFVsVVgqE1UkKstUdqicUrmj8oZKpVpS/ajJ1DzqMmoN9Qz1IfWDKk3VQZWtylOdq1qpWq96TfWlGlnNQo2pNlmtUK1M7aDaFbU+dbK6pTpLnaM+R71S/Yh6h/qABk1jjEakRo7GUo1dGhc1ejRJmpaagZo8zYWaWzXPaHbRMJoZjUXj0hbQttHO0rq1iFpWWmytTK1SrT1abVr92praLtoJ2gXaldrHtTt1MB1LHbZOts5ynQM6t3Q+jTAcwRzBH7FkRN2IayPe647U9dPl65bo7tW9qftJj64XqJelt1KvQe+BPq5vqx+tP11/o/5Z/b6RWiO9RnJHlow8MPKuAWpgaxBjMNNgq0GrwYChkWGwochwveEZwz4jHSM/o0yjNUYnjHqNacY+xgLjNcYnjZ/TtelMeja9nN5C7zcxMAkxkZhsMWkz+WxqZRpvWmS61/SBGcWMYZZmtsas2azf3Nh8nPks81rzuxZkC4ZFhsU6i/MW7y2tLBMtF1k2WPZY6VqxrQqtaq3uW1Otfa2nWVdb37Ah2jBssmw22Fy1RW1dbTNsK22v2KF2bnYCuw127aMIozxGCUdVj+qwV7Fn2ufb19o/ctBxCHcocmhweDnafHTy6JWjz4/+5ujqmO24zfHeGM0xoWOKxjSNee1k68R1qnS64Ux1DnKe69zo/MrFzoXvstHltivNdZzrItdm169u7m5itzq3Xndz9xT3KvcOhhYjirGUccGD4OHvMdfjmMdHTzfPPM8Dnn952Xtlee3y6hlrNZY/dtvYLm9Tb473Fu9OH7pPis9mn05fE1+Ob7XvYz8zP57fdr9nTBtmJnM386W/o7/Y/7D/e5YnazbrVAAWEBxQEtAWqBkYH1gR+DDINCg9qDaoP9g1eGbwqRBCSFjIypAOtiGby65h94e6h84ObQlTCYsNqwh7HG4bLg5vGoeOCx23etz9CIsIYURDJIhkR66OfBBlFTUt6mg0MToqujL6acyYmFkx52NpsVNid8W+i/OPWx53L946XhLfnKCWMDGhJuF9YkDiqsTO8aPHzx5/OUk/SZDUmExKTkjenjwwIXDC2gndE10nFk+8NclqUsGki5P1J2dPPj5FbQpnysEUQkpiyq6UL5xITjVnIJWdWpXaz2Vx13Ff8Px4a3i9fG/+Kv6zNO+0VWk96d7pq9N7M3wzyjL6BCxBheBVZkjmpsz3WZFZO7IGsxOz9+Yo5aTkHBFqCrOELVONphZMbRfZiYpFndM8p62d1i8OE2/PRXIn5TbmacEf+VaJteQXyaN8n/zK/A/TE6YfLNAoEBa0zrCdsWTGs8Kgwt9m4jO5M5tnmcyaP+vRbObsLXOQOalzmueazV04t3te8Lyd8ynzs+b/XuRYtKro7YLEBU0LDRfOW9j1S/AvtcWqxeLijkVeizYtxhcLFrctcV6yfsm3El7JpVLH0rLSL0u5Sy/9OubX8l8Hl6Uta1vutnzjCuIK4YpbK31X7lylsapwVdfqcavr19DXlKx5u3bK2otlLmWb1lHWSdZ1loeXN643X79i/ZeKjIqblf6Ve6sMqpZUvd/A23Bto9/Guk2Gm0o3fdos2Hx7S/CW+mrL6rKtxK35W59uS9h2/jfGbzXb9beXbv+6Q7ijc2fMzpYa95qaXQa7lteitZLa3t0Td1/dE7Cnsc6+bstenb2l+8A+yb7n+1P23zoQdqD5IONg3SGLQ1WHaYdL6pH6GfX9DRkNnY1Jje1HQo80N3k1HT7qcHTHMZNjlce1jy8/QTmx8MTgycKTA6dEp/pOp5/uap7SfO/M+DM3WqJb2s6Gnb1wLujcmfPM8ycveF84dtHz4pFLjEsNl90u17e6th7+3fX3w21ubfVX3K80XvW42tQ+tv3ENd9rp68HXD93g33j8s2Im+234m/d7pjY0Xmbd7vnTvadV3fz736+N+8+4X7JA/UHZQ8NHlb/YfPH3k63zuOPAh61Po59fK+L2/XiSe6TL90Ln1Kflj0zflbT49RzrDeo9+rzCc+7X4hefO4r/lPjz6qX1i8P/eX3V2v/+P7uV+JXg6+XvtF7s+Oty9vmgaiBh+9y3n1+X/JB78POj4yP5z8lfnr2efoX0pfyrzZfm76Ffbs/mDM4KOKIObJfAQw2NC0NgNc7AKAmAUCD+zPKBPn+T2aIfM8qQ+A/YfkeUWZuANTB//foPvh30wHAvm1w+wX11SYCEEUFIM4DoM7Ow21orybbV0qNCPcBmyO/puakgn9j8j3nD3n/fAZSVRfw8/lfDVF8NIYiJFkAAAA4ZVhJZk1NACoAAAAIAAGHaQAEAAAAAQAAABoAAAAAAAKgAgAEAAAAAQAAAI6gAwAEAAAAAQAAAIQAAAAA3+J4GwAAM7dJREFUeAHtfQl4XNWV5qlSad/3xdZieZFsebexjTEBbAgYxxhCgCyTJnQyJJBO0unJZGZIh87XWbvTkwW+bJAwxAOEhD3YGIJtwDbeMd4XWV4kW/u+76X5/3Pfk2Rho1JJqhI9daVX77377rvLOf8959z1OfrgJOACFBghBZwjDB8IHqCAUiAAnAAQvKJAADhekS3wUgA4AQx4RYEAcLwiW+ClAHACGPCKAgHgeEW2wEsB4AQw4BUFAsDximyBlwLACWDAKwoEgOMV2QIvBYATwIBXFAgAxyuyBV4KACeAAa8oEACOV2QLvOTyJwl6e3uls7NTuru79ejp6RFOD/r/fYqQw+EQHi6XS4KDg/UIDQ2VoKAgf7LrkrQd/pjIRbB0dHToQfAE3PAUIGjCwsL0IIj87XwKHIKktbVV2traxO12a9lJBB4hISFaw5zOgPYkYUgfSuCuri6VyqxsdKRPRESEREZG+lUC+Qw4LHhLS4sSgQRgwXlQHE88Z8+mdUyYrBFErHQ86FjZoqKi9OyPTPoEOFRLzc3NasdQZ8fGxqqE8W2BAYY+h8CCkk53n1R09kh9d6804mjDfTdqOGWg2hcI43I6JDTIKdEupyQGB+FwSSyunYhD/IgnSqDGxsZ+WkZHR6v68i0tQYLxtnEoaZqamrSg4eHhEh8f77syAivdfW7p6O2Tms4uebeuTY7UdUg1rt3gvqpF4gAgcUBDOhx9OBQ9uHdafvSHoeoMkoQQp8yNCpOrIkMlGUAKDcJ7fkJRfX29tLe3q+EcExPjc8kzrsChTdPQ0KDqyVegoZJhq6yktVN2VjXLmYYOKWvvkuYegILgIEjYatGzBQ4FDv0MphVAChyiiu/xbN5jCBckUVKwU6aGh8g10RGSHQJ1y+fmdZ/92uCh2oqLi/OpzTOuwKGkoV1D9ZScnDyuBCVgGjq75XRDm/y1pEGKatvgA2CgBRsT5pKE0CBJgqTIjAmTlFCXREJa9IHZZS1tUlTfKqdxtCFwaEykAshIIAtMCjRi41IACQAF/MiiqBC5KTZaUiGFfA2e6upqlea0dyh5fOXGDThUUawRbB0kJSWNn00DxHQhjacKq2TvxUap62BfEJgMwExPipZPTY2T1IhQAAeqBVKkoblF9h45J++fKJEjp0qkvqldWtsgkTo6pV1gy+RlydTVyyQkKqJfAjkpcSypRGQYO4i4BDAhkegXBztoMe6zGptkXl42HlECjT+MaPPU1NSo2qUZQOnjCzduwKEBxxYAW040hsfDtXT1yNaSenn2ZBX6hHosRopMS4yUu/KTJTfUIcVltXKmpFL2Hzsv7x09L2cvVgFYYKiii7n6IHPDE2Il/+5VkjB9kgGJShyE4z8BwVfopxfGj8+o6Sq3vS/Ff9snK+ZNk5XLZsncvEyZlBLfH5YpjrXzBa2H5nlcgEPbhrWA55SUlDFvcrNlVNzUKT/cfkaqmrqVibBdwRynfCwnXub2tcizG3YCKMXSDkO4EwAjTjx3feJ0Bcm8L90O8EwmRtSpMU07yQaOgsg8VDvISePaIfX7TsruP2ykeSQRYSGyatlMeegr6yQpLhLxWJF5nplhQ7KpXlVVpTYOpbsvepjHBTjs4KNRTLGZmJg4bMFHEoCG766yBvnVngvS2NoFER3ULwV6uzul7I0tUl9ZhyhHz6DY7HRZ9NU7FUToklNgqgFtAwZJaOuL2gp+RiIhabTiTqzfJOd2ngDEDWLDQoJk3Y0L5TNrlsnsaZNVtYyk3MOFra2t1UYIjWR2EI63s9oRY5sMx57oxkPfVsIe+dW7JdIAidOH/hfaUDx6e3ql9tR5aahqQMqjBw3z31hcLi3lNdIHIFj8R5p4APD2IU06PSM5Atrc44z+noJ7b5Hw2AEGdnT1yp837pW7vvEreWLjbulCfu049cVR/ti0tmk/yuiGfX1cgcNhhLF2XVA77a3tpku+rVMazxdL6Y7dUvjCBqnYs7efoWOVbumeY6rmaBe5AVQCxIAHfO8FeHBP4Bp/84zP3ZCEU1YtuDQbUGPdPW758SMvy5d/9DRagE0a96WBvLuzae0r4IxLfz91Lt1YDie0o9Wz5/BZ+fFjr8rp4hq1M+xabwQMpQwNEE16zH6aS6sVFOx11lYSDRdLALEfmv7KfagqwEZtHEpCtsISC3LE+fJOBdbgDDHcO9uPyHFIs+8/fK+sSkuQINuQGhxwBNc2rW3aj+BVr4KOC3BssT0WA5aMaytq/aNPbZYTZyq0xpJzqhlGSWxPKOZkf48O4BMMeMMNoMAIRhYUM06CxQIN/eiIXaq3iLQkccG26eowak0fDvqpLiqXH/ziean89qflrngMHaA5762zaW3T3tt4PH1vXIHjaSauFK64tEYefXqzvLzlPQAFDFQdwdBjLFbA8dCQYIlGB2F0RDi6EMIkEv0+MdHh0p6TCdUE5NAqJjDYeuNZ0QEvW+IAKA70KNORedrXE+SSVEid0gNF4lak6+NLfi7i2fo/vinyuVVyV3LsqMBjp31JAuN0My7AGV1ejTR5ZesB+dHvNkhNfYsVnc2tUcRuSQQiIAY9yItnTZEFs7NlQX6WZCTHS3hosIQGh0gIQBOC5ngQgPDdI+VyEbYU9I22oNR+odIicIAgNEtVIlEyAR0qhQgq7ePBs3vvXysL0Rm682CR/G3nMTly8oIRTFocRiJyFv0+G2dMktarZsp9yRh30m5rfTRhfyYccNo70Gr601b5/XPvSBdGrkfrgsDQ7IxEyZ2cLNOz06RgeoYUTJskk9MSJYhNaEqMfhFyaWp1GEEva2nHcygkGrxgtto1DAbksCluqwY2sggmba7jsWltIQyk1vzcNJk/M0ce+Mwqqa5rlu37C2XHgVOyDx2SZZUNamSfeeM9SQKAX0F+70iIlmA7okuzNGHuJhRwutFh+D9++ZJs3AzVdDkSqadWVfPUVNghISEF4JM3NV3uWb1Ebl+5GJ1wLgmCBHEqMwa9zzc1jstGJIXN7ZhMhSBBeIdBnEBHr5rI0keVhT8Cyo7WgAjqikCkHQTX10f1ZeJn+JSEGLnz44vljpsWIe5eeX3HYXn4Fy9I3ckSqUTv9raCqWiRido8QRMYPBMGOBDy8vSu07J55/HLgsaFoYuoSZMkKiMdA5ER0tPeKmU790k3muZ003NS5Jr502Th7CkyH938GanxFlComGzWMeTlQcInlziomV2VzdoiYo+02izWq2yWwwddgpycYXmy1xgRUNKosWxhLUYfA11qWQ+k4IR4CsGg6G03LJSbr5ktr207LBuOl4h75hTZjRH9DAwMX4uRdyv2gRcnyNXEAA6I/NapKvn91rPSA6Y4ML9WGQKqhcZFS/SUGRKelIIeXIuBqO0hseGSdcMyyW+plQc/u1LyczJUVVwOGN4Qv7S9U96rajEgZn8N7B1Klz5IE0znAmQIFMSsLSxcoQzUeuoAOp3whTCTYS8NBY0Vqv8Uiv6uO25cJCuvXyA/uVAjTTC0/1LdLKkob154WH+4iXQxIYDTACY9svGkuHuCJXHeUpy7FDyu0HAJCg3BteGI6R9Bh1svWYeWUFyK/PP9qyQ1nCPCl8qV0RC5C0B5/FgV8gEYQk0xZho4lBvUHuzwoxSih9o8uFaVhIAOAAm40bCUKvmYs+OZc+hUj0QAtBH6kSB9rqZFvj0JxvoomumepT3yUCi9fx274v9x/QEpq2nDoCio5QyRoLAYAAYDguh9dcPPjRrIXlr2jbBPheqA6qILww9lOIyzq/voy3O0HnN0MFNQe4Rh0xCwTNOcET9FC/2AEDees7U+0Hts5QPgiQIIeHjqXKgOcZiDTeDxp6yjW/4MY7pXPTyNxTfhPC/VuOSnT17eXyJHi9CysJhDkBiG2YwCgzB7T5lDECkDQVeE6+12SxuOsXSdvT3y5LFKtOggbggMpKcix2KmSh4LRNrMQhgdelBAIxD/0UlIiTEJMwN1Lo+nGQTmEjCvh5HYrbXd9e1yGN0BEw07fgVOfUun/HHzGRCZIAHVyBwCiJKF/FIJQyJS2lDy8EwQDYDKRZUxRo721ZMnqqS8Ef02BATueTYSD5fMGzmIs45bWfcqeSyAsSx07BjMjYCaHWHewtWWYrrWi4jgDfRlcTL9RHJjR/URlorEfuiZA1JR007eKCB6VbIQFAYkqqZwrWAh4fiPMGQgn7HfJDl8bMw0xCpnGlvlrXP1Cg7yjeBgOmQi8zugJuk3AB5lMsIomOivwO6VRbFhMJpHBh2G1orE9KyjpL1bXm5o1nyMkMzjFtxvwDl0rk72H60xxKYUUYCQ+BDztBlU6pBZFvMsJiqoCB74R6P3d3Kkp8bnh9PwQnOX/GTXBenqJGgZvwGMgpV5w2HyCNYSSMiPSkecVRJZ91SpvJ8ZEyoZMOxN5+KHpz34aTtGz7UVBsBpvAAP3e6Gdimn+pwgzi/AYU166q0izM7rgQTp1bk0BILWNDCMxNcarTUXl7iH6dHPIGUiOgvXzEvHZPHRF6EHoHjs/YtS39yNZA1g4KXgUbYpeA1Q+m0sAgbl4BiUUVvMn1GhbJp/MjUOHiPncgN7y/EeQaNNfKaDox202NPchkdeRDrybAz7xtjI+WGTuTTA0eI6+Rtm8JE5HNXtIzJAECd6Wdk7wq4R7VoDJgAjy8Bk3wnCk244UhIi5FP5Kdoxd2nsI7vrBAAf3X9RjpQ2QTpAmjAR/NB00iY278lBnDV9ChwwEp44eLZfQz7hx+Z4y4VK+d4rW7C6IliiMFE+ESPf6UlxkpURL1MzUyUtKdaaAWjHo9EAhG5dqWHiB0RMJoSdz0xtG1p7N8RiDjd6wf3tfA6cXhD9kZcOSzfmAjswekweOGEQausF1KBN4AZdzPAAycMeWoDKQVuHzAvCPB90yV+dLfEwPg3zSNaROabXhnGxl8/WydunML8H41b29E8LIkiaaGFmcEnAIK+ULoS3caYTsA/gZ1B2DrLvp+jNvVJfVDIoQ1Z4nhBPYnykLJ8/Q25eUSBzZmRKXEyURKG/px1xNKCVyHQ0PRIHETuQB4KnHdL5ncY2uS0xelDc/rn0OXBK0al1tAgrDUhhOAf7asAIByjjho5irzEZo5JGJZAlskFDaiX0xMsDH58ud0FNGQZ7BhqqlW50rB06dRETwork4PFi6UnLkPrYVKRG9QCAqAhEtDRoca0j3E5FK8IAHEifmkzzBgSw5QQvnPGUQgD2WfWxQmk4cwE3g52VR+tUC8nx6lsH9eBUjkwMuF41J0dWofe4vpsRwaG8qpaYF46R8Qw0Hceg6+r4KKhoKzIT2ue/vgUOCLzr6AWpxeI3rd2kB4kOKQI6GWSAYbQbtFufFY6soX4C4VKhnr5w0wy5fUE6RgDIsis7xlFV2yilmIN89PQFHZHee/ictKBPhLU5Zkq2pGTFibOrG3lhGoAvHjBdOoLExhHEHdECBxBTMjE7yA9ZR0OafTWUNt3tHXJxx0EtE0N74pqx4vT4mTI5XlQmG0+Wydz71iIviBl5QawkgIKVvdBMvw42UCPUa5LTt6wbWhafpg4yyOMbDoHY3WAPwAJakGc0hhUbYLbKZBCOfCKDyEYXhhzuXpkr966YIiloSSnHhpSEtZPh65tbZQNq88tbDsjFynppau6QzsGtEQSKmzZdEmfPUoYwD3TKF8RBA5epavq4MndWABYAYUzeADTkU/OPd8jY8r1Hpb2ak+W9cMhXxtICBZ024QkYgpOFgmMTn/ZgK1qULWh5JZFzVt41gI9/fAqcI+cq5GxxNWot1BNAwtWW5mxaJg6qCzCG0+w4jyY/K0aWzEqRTy7LkinJ0OuXIRTXTZ1AbX3v+Hl5Z+8pnM9imQhUHhhp+IyXBr0XmztF4vJnIg0jWdQQhf5xQ8QoeOhN8KjIMdlR8FAi4VbnPPBMowZx0I9BG86VSem7I5M2jMZ2YXExAHSWgllrgGYBGUcCmgYutUWHwtRgFUmOx2Ngdgpje/YpcM5VNKHm9JqWERkB4nDE24gWQ6Go6GC584ap8vcr8yQRfSGchYcAHyh1C6ZTrH91p6x/aYfUNbWiuU6ZQ2aasCS2OqvG8jphZp7ETs1DCEg0MoZ/EHUqdVCjOZjKPCmm1DBFLPCjcUrYqEriewANYI9sU0KBsRCZF97Zhxf7U2VyI3Ip86YjPICIdBmLk3OAaBEjnf54rcvS9l5Z7Ltl4kj/g86nwFm1IEe+eNsC2X2iFKsr3Vg4FirpmNg0fXKc5GYmQcLEy7SMOEzbHEwwGwh9Ul3fLFsw/fKtPSdlL1Y8NHEuDrlugqB0fA+u/97cclVmfH4+5vPkGEYDTCaIDQCcoQaIGUoP4wgkMJJ9OAA5vdk81jYeZ1oRkEibYC1+611prayxXxzxmdIxfnoWxa8ClWekjgqGewDbzDRksQgqbNnSY9atjTihMXzBp8CJwvSH7953neG1MtwQ3+LiZYrlwCw5NwDTKE++vEOeemW3LukdCDgYNAO+g69I9MS5CyQ0PlltBjKFBq7pKwGvEJjdAQ4yC4wyxjGkCaJWu4LggT8lFBUThYBCjMgDoGrQiqo9XoQbA8XBaXt6HZGeINEZaN2BHFwFahoOBA+S0IxYeQbNaPO0IwyDep+ipzm7cjifAkezAUJoge2fK5SezHp73wl5+pVdcgBN5wbO/R2Jw/shsTESnzdHXJGxAApkBVQMZQZZb4OHd2wRKY71Btda48EsqCmCRxkJaWOa4VRbNFQdWOVZLeV73kcMVyiEB/mlNJyxbiWAgDhUT/Js0QhoJZT5T2fyPOi58fbLr++BM0wxWzGp6/CpC/IfT26S94+VKKNJvpFUMYr+0MQEqKf5eC0E0gJsoWoBc3CJOLUuK795RfWj4NAr2jJIkaP1dLTXNTh+oKKw2BhayiFtUJtnX9sqvehEJM+9dQkzsiUM25PofCPkW1dLaE86wI37fptHCWAA34utTSid8NhvbsIAhxJm75Ez8u9/2CTHT5fpDhNkiIKG5BkBkWLR3A5JyMTEMCgegKBfnBB/5D+io9oxxjABxcOq1rjkc8MUJgqPoeDp7ZKSt7dJHzZyGkm+ENmlDmVOW1ygmaLE0dSIbGaHxjEyooCGnyonZgp+b27aI5/69MewfUrCpfH58M7vwCFgTpwt0+UwL28+YHPMC4b0SXB0rETnzMDswRgdniDDddCSxqwyA5RlVcWDPqs5bUsa2+bRewYhqxRlrPnwULsI8qa7Sy6+86501HjZX8OoLZe2eJZEYBuYPswiVNyyM0ube4SQ5Yd8GMljisCKUFNcIX94fpt894F1+syOz5dnvwKHoHn06TflsWe3YdwIk6e8lb2IJyorW0ISc0FdByQN+MDWCG0EgoAHJQ9bRQQAANFnt4woXuC0BYWazVuVPdoM5w0sGkguNr0Z0cUdu6S1ogrXo3NhWDuVsXQhgMI0LdsLWGEq6mwA0fiCU3mEPLi7YRzXNGPAExtXYW9DDqL6w/kNOIcLS+THWKnJjQQUL16CJhj73oWn5IgzLB4DjCAvgGH3ryjB2cwGE3TQFK0R4wcGEVRgBx6TK2jNwM6x+h+NjcoaDz9lHFgLhlXu3yetpRUax2h/0hfPEScG3ohHzS/TAeDZHUBjXdGrdhYDIDX4U0h2YafRbhzFjS1yFqPwc/OyRpsVr973OXAoZd7YcUS+9sP1OseGqNHKPMLsU3xHTZkKwGSAqQABQWGpH623RAQIzdpMMJmmNThAG4JcICPALB3tJmP0wA+YRh46yTz8E140jMp375a2iuoR5vLywRPyciR+xjSjlZAC7S1mQNPllapYXFDq6FNCnEa7U7owJ6cb422cZfD8m/tkLkbXvZbUiN1b51PgsOY/+sxmefzZt6FOyKQRZhv0pUoJTUyToKhkkDxC3FgJQLHRh/4e9seQ1eQAFYDu4ECegMgGPKafhjaLShWGBQABLYQ1TKIto4yjRKIUhBSoPrBP2sorESdBZPgUGREmEej2D8N682AsrOOG2pyzzA2eOjBBrRUDnq1gMIFpGMuMYD0YFhNmLF2EymJJO3hz1qMBhsEKFCPKhAdaHAIf5UP2COLmi5XSS6McbvO7x+R7X/2kBlMPH/74DDgEzc//+Ib86pmtXhWP65hcUdgKJC0Xc3mcYBBaTEFkLs6KAhIXRMY9WeQAM5TRNhP4jAyAZFKIsFbjQlUDQULyW1KGYCGAIsOcktZSKqtWTMPa8+WSMzlRsrERZCI2lwzGagSmo0zmhUnVxEEYwK8LY0rlVfXYsLJaR8D3Y6fTi0lp4sKOGMyEYgqtJ4UNVCXzoPnBu8yKqQC40HKxPNic8uBpKy2RiupGqYfKSsSiRV873wAHJX59xyG0BHaMvHx4NzQpGSopEbR2SWcr5/FgpScoS1KT0BT2HD9CHcYzSh4wlVTGD8FBX63B5JQJglAIzcV2FnjUDtKHJkwUJsH/8LZZMid9uQoMRjdUQPbf64V9Z84UVtw6JWdyih7XL50lz5yskBeOYKMmzQcBA4f0+2jIU/IBIKgG9IXDU2TOqC3myaktuabzZeax/jqlsrbpPy9wquqa5Fs//Yt0YBs2z5xDgrAs1hkWJa7YZBiD+JJKJ4nLiV4gLYiswADRDYFBWICFNZO11nTSkQGoy5AcdlO7HzzKMrV+yA+NywBQISi5KVHy/dsLZHIcJIPWc42JiXntjuFzAK8eN5PzmSfmFchV4BBAOp5JoFvpMSFj8wyUofJQIcpCC1ohh3OfNGJjBH84n0gcTnnowBKP/gJ/oKRgvFZpLMSPSwBgotF66JUeUK4bS1YcqHZUM0poSB03CG9UjInIwUlNyggCypIilDxaexExKy/+VInxXSbHmq7oM9HqJX6WTE2W76zJlzjMzLMy9YHcjtTjLDbh/sFbp6UNKyiYbzMdFZnQiUjwsGwczSczgn9KIt7zxFc4Y7KhqPhSGtKWQ7eBP5xPgIOJFOLAOnCVCFgXTspwTo7DFQwJgrmgrEEuMCooRHuM3W0t6q81k++COGT0gANlASa75dPHJRDs7VMSkzlkBlPBNaUTwdJv81g8QRD4arwIJcEhDvnEwkny4MppsG3srfVHz5RWGMu/3l0sLVCxdnnY+mPazK5OHNP8wof3BI4FGgUZcYSjsaRc2i4zSSwyCkul/eB8ApwIfEehqbpGwuKwNX8MdpUAI93otu9q7ZBejE2Rhg7M7XU4MYEdjFZQYbyG40UMqz24JA5lN+wDzqEhxw19LeYqsODPXmH8kRcMQLWlsw0Rj77AxNQhrPqRiSLfvHWW3DY/A+8pS60wozt1QqL89y1Fch4rKBQ0zLbWANozsLEg+jQ1IINXHKLSjkbmXfNv8spVIOc2bTcgG5Ql0irWTxPXfQKcJOz3ywlcHY3YxLm5XqlCQjogYSgdjIQAUMhCrWbgMS+1CoKaIKy9CwTHcDjPl5OrFEDs4UVYI5FIaEUQoQPig1PWwKQBDx8buJH+tJkyMbPwn27Ll6unJmk88OWjUTtO0XjsvVI5fxHr4hknxQb+TVcTQIJ8ao808kiMCO03Apnqx64ECp4+qT1ZBLrxoyaXuoSpaRLFL9f4wWmexztd7kJFhlIssyOOBFSR3MftPIwfz3qoH6VNL3hMMOFAjWOLg1WS/tT35sA7ACSNX/bGmIhxtuLSV/QdsIk3CKf8Y3hcZKZGyW++uFiWw65h7R0r0LA/54nDZbLhwEXt19F0mX1NH3nQjNk0YLkJGPs5i2H81KiH/z0LsiT4Mmup0rCRVBxabv5wPoFrMoATgQ2GWvGhDrMchpIYRq70GJUCe4cMpR3Cao9LMNmSJGQoRTpqI+mt7DV0JhbhNDQuIYEE0w0Qr0M784ydYkseXdKLVHVKBarL51dOly+tmooNI0ECEwUjG7VjhXjxZKW8iAWHCmiWhyKEZdPc46SSBCoS0lZVlhM2mhv5YL61kJTCrBBOuXlagtw7M1Viuzrln3/xovYYM5OcUpuPQdLR7o/MuLxxPpE4/CjF/IIphigkIg4311VBLKtUsaUIpQ0lkkoHEg7hYFxq76v1HhFmJBOlBw+EB2xUEhF9RJMVls/0QE3X9xB3IjYC+CmkzNdX5wPMMM7JTPJ0DBz3sXkFO4s9tvUMPsLK/GuyOJv0FeiaRebLljwsA8NBJQMo5tpInIzoUPk7gMYFgK1buVAWzc5CLhkBPi6CjshcqFkjKdXLpz8+AQ4Le8OyfPxaDAZQSFU3W0MU3wocEtryJ2CogkhMCwS8H1BVIF7/OwyLNd94RydD0Z9MIQcGAZD3K+amypP/uFxWzk4bM7AM5tYmLDT83WbsaWztqKE8pkEPZ9QU80q1ad8b8LBiGMCgjAo2I6XuykvUoQy+H4YNDO5ZvRwv8k4kNidN8vFRNuvWePrw10fAcciqa+aiYpNAA+BRiUKGs0ZaADKSCARUkOHZYJuH3fL9gME7CiwCjv6QVrg31zzb11hHFRksX/pEvvzvL14lk/Etq7GupQTli8cq5GcbTmKcinln9gkQAgNnYh5hjORhXgkchGERiBg7HM98gPP1ufGyYjK+c2UBj1GuvrZA4tHQoJuEPZELvNh/R18egx+f2DjMZ2Z6siTFR2Cf31YQxxCMHadKPBJM9YVFTb5ADcIWhnapgvLstTPQg4nAazpGgNYIn8EGIo7UfmAlV85gcwIA5fFvXifTJ8VpCngy5u7PJyrk968XYuCWthiip0ihbYZyQcYMAFWfMQzBg1JYtpuWBu8YOw77Mse75L456SgKiTCQ3bCQUFl59SzZUlgmk/EdrQhdDTLw3JdXPgNOBFY4TJmUIlXVZ5S5nB/DFhGdjhkBJFyQR35jnFlroq6UxECmvfCf0sfZR2OWNRPvEmfst0Eb14nmrDpyAf5R2DfnvtWz5cufmK3bwpqHY/vLJvcTe0tk/dazWgG0X8gGNUDCsTOVMrxmJQCQNAzOBA/3D6S/GvPseIJ/BAZWv7w4S6K5SH4QaDTnANriublyJjMD3//ELvBa88a2TJ7G5jPghKHZOA9b4O/CjuJOB1pUYC4rJZmM+qe1jZKIHy6DF8BkgNHn4OZE9DF0dAMwbEorTSll8EjfAQhJez7Iy0qWJx5aLckx4QO1XWPw7ofqxNghYDbS47emyjF1dP3JOqzxMoOO2gcDiaNSUKUd0UIpwspAuYNbLTDOEJQEkXZTEUwsDKWVyyEPLsmU2Rgr0/INyS7pM70gV2Lw7dFMTuew4hsSzCe3PgMOS3PHLUvkN+s3GmCQoGS0wQQuqHJAUByUPLQL2CTFRBs8Q0DyxFAfF3AMx7P2IpsX01Jj5Bv3LJO1V0+XcOxN453jrhZunV13DEuLCzG/t7SiTqowXbMG26lx1Wgr1qLHzpiLaR6m07AfEMym1gikrOoTZwJ9kORhGQAnlA0FwrWqLcxcpNa9NS9VlmfCrrlCxkmCzRi6CHKFyIJoVCglypVCXyGSMfL2KXCWLZgp09AaKDpfaYjHQtiMp9qiyaL9HSQoxTwI7IDa4iAmEaXOSCJSVydagfhRkS65fdVsefgL1+s8GSugRydKk+a2Dh1lPoLprJu2HZId7xXhvkPfh0wz6fAOnONcmoQ5V8EvSqWGcll7fBEOeeFcZzfyquNodg6gljhQS3HFykJMaaefVXbaaEvxLdEHlmThoV1O+2VzJmh21jbL8doOScGUj+loUfnT+RQ4JMrX7vuEfOPhx0A4UFnYj0J+oFbqHBr4sX9HEURRDpUGQJHQWrlIaL5A4lsi/vO3LZR71y6WqZOsj3rg8XCOYOnE9ibb3yuU17cfwiSrcinDhKtm7IKqjLPSYJqWUtQow5MTJTJrFoCBfFNvAP59qoo4HgZTlnYbMquS06oAmnEGRRlt+4YlN/gwIElPCJOvXT3F8mNg48+3bNcB9bihpBG2nVtWp3EDhsuHs8OP99mnwCE5rl82FxOPIqW2Aa0rNpnJGlBRayA5RXD0O9ZUMIPyycG+mmCdWZGA7cyWL8iVb927SqZncriAL3yQ2P3R4IJgqWtokUJIuzd2HpaNbx/BPj34pNHg10xEBqSDXqb9EpacKhHpM9Bywqg8QcNeXkpBtVWMreXgjEQChsBmmkSI3uBCDRqeBhvMIh119XJo6145Pi1Crl2UNyjVgUsa4S9eqJeLkILcHm5mHL/xMDjjA2F9deVT4LBQWWhZzc7Lkrd3HVVjlkYioaJ4oXWrzNA6CSob6aO7daEFEhkVJPfffa18ds1SLEaLw745HmQfROc+Ob99bgvSPInvX7WaD6kyMx7RHt+2mjpTHCEpwrX+EDAAIV6kxGMUBD0RgiEAM2hJXwKLJ5QNh86FZo8450QjLJnOcnd3tEvlXnzIpK1Vvvqv6+U3+MziNYtmMIJL3D7sYvZaUR3e75NJ+Bx1ModJ/Ox8ngMXBuu+/eBdsm3nUah8ShJDAdorVD/KDhKdjIFdEIe+n8VzpqEDsQCfEFooydiIUaXUMFxvam2TnQdOy6tbD8lb+A54B5fq0tkJmrsP+cUCv6goiczMs+wZ5JXSAtki0zn9QvNIycO8sEWl6Ge+URac6M/kGN54MCwKB7/u1map2r8HX8ExO260YGeuf/q3P8lzj/yDZGFrN9u1wBD/C4Yx+A13foZoXXas38an7Dzx7HPgMNFroa7uuf1aeealbUps2gtczahzbwELbtN21fypcv9nbpRbr1skrmBMikBVB73VscZeybGGv7B5r/zo169KUwtXA2Csi4E9BoyJOTw1GXOdZ0oPxpx0yipFDSLSzkakTxPNgMcCFCHPhJAOPyFA6aJhkVXmVqWURo2hXXwfvXLfbqw757RPBlCU6TYuL7yxV76JT0/Tvweq/OG95+VCHTfadKOZHi0FVs+xRuXHH78Ah4z/5fe/KneuuVbOX6jSL+GFo4MwFrtvZk5KlhlTMmAHRVlkuTJIbLpRAvHLcy9indFLbx7AV4Ir8ch+zz7boT/8zLnO4WnZsNuT8JERqEryFULCjKrjAjYuG0iqhviQ6pWSk2cmpdKFqojIgodKIjwCONgL3tWIJv3RA5jAhlZbP5j5onF/3rRPvv5fbsbot0OeO10jJVUIh6g51r8mKxavDIS13/HH2S/AYUEj8B2mW25YMuoy87PSW/eelH/5Jb4y18TJTiAsbZAR09eB7VCwViqjAPOdYbBzo2owiYYxTRjuQQz+WUDhIwMOTtsYWL8F4xiosiWNmY3GLEGiIHxXU53UHtyHhiOml1wBAFU1TVJchu1TMJX2L4cqkT7ygvJMhkE8N8G/TXAW33Z+A46dAW/P1Pmb8FlCfrvz8KlSKxoLLSMEDVtu4RnZmPgdbZbfKCgIGqgbghCOUo29x5Q8upiOqojohGSBvIE/rgEyrFw3aknBghcpiBBHe02VNBXi63/sXhgmf9vPV8umSg5JIGa8G4Wpt/9t8WQDUM2N/38+csBh07S0sk5+hsV9f8XuFmo7DMOIK5IZHOQOF2GpOdLeCJUAQ5RrsggDSi1aHsZsMSAyQwd4CkAZgxeg4CoDSiSEVYkEwGjLmytVdZxNpKWyXFrOnlDwmbxcOcNhWOz3XBE++IEWI4HLKa+35iZIGlddMENXftVE7aPfjxRwaPg+9/purAjdLNVYiAYWeUdIMCAoLExCUzJVLbXWYlUFpQslDdJQ3UQe0S6BxtJmtGXHGPDgGYJRcpCxBjzsbYKEAGrUHmJc2Kig5UKhdNZiowLqO77wIS44IkLSly+HWYS+IqslFh0eJGunJeMtL8v6IemN5tFHBji1WOr6b49vlOff2IPysm5/OBOuRBQn13lHx8P4jZY2fDSVg5D9DGW0MGZ1WTGvtYYjHWKJadLgJfMJLg4jQF0p0GgOafMc7yAYjWB3V7u0lWKSeT22++cg7TCgCcWuG+krlokrLFxnPRKsMVBRP7hhqkSHqDWOyL0rM14cc/eRAE5Jea189lu/lXJdV0QieufCsJTY7YyQTjbT2RQGH5QVlA6Mkj/EkV7iF+pKp3j0gkwUMarG8JDhAZ5+mwdeThrF+KMK6+1slZZzRxQ8Bi+aCkJd3gXh4xSpS5cCiAANgMvc8Hcd9njOmSDN76E5n/DAOV9aLQ9870mMJTUOzbtH91RBrijs0OUKl7bWbtTm5n4pw2emtWRAQnbZc3/4fXGCyIxKUgXhHoKDY1OUPKrWjHLCNeKBIRsCybBm6WS5MS9ajhUm4jMAp2XX+0WKx8tmFsmFJcVL8oLFSCtUQccRiyBIrxvzUuQuTnGdoG5CA6emvknWPfhzjF5DQlAagKgjccGx+PZ4eIw0cw9iTM/gQCqlhUYDdaKj72Q+GKWfe6YkATg0LaoqIkVtH/ohPN50cHyN4IHjUIgayVBbwc5g+c5nZ8u6hVmqtlbMz8XwyErZc6hIvvwv/0eaW62ea33T/ITgYx5J85YgDhjCBCWlGtysSdHy4DXZmG9s0jGhJ9avkmdiZcnkhqqA+9wpaOjlIWhcMDBd0QnShw0LWmHDNFwogzTAAClAwHnJRAalgxmdx4fWaLdAvdgT5wkanReNcMwDgcSw5przmOGHJrXe60ORhTOSZP23rpHbF2cbW8ciKLO8bN40+cE37mSklq85RU3OkoSCpbq5FGcAaJ6QrzmTYuQ7N2MFBqaFGjV3yWsT5mbCAodE27z7uAeEghTA+vMgzJNxJaRJG6RTQ0WltDc0YriAXfqG2eCMAY11NoggSrj8hs+AHzBOJ47Bz57sbt4nUNi8wnN2HWtgt4SHOOXvb52BlRMrpABformSu/W6+RKGwUk6qsfY6fkYA5uBNIxNpGAFIDPxdZyHbsmTJN3wwMOacqVEx9l/wqoqVtBp2WlyBh8NUcPUFjl8AJvCFYkhCcyE62pvg7HbIu5mSI/uWjwDkMAcSgZdNqxLhcFy8FxrCX4oKPSGGAB/tN+F0eJWd8dCGF4zHGSNqfna/sY3wRkeaczNS5KHPrNQZmMClpEMfOPyjk+oJYNCw3Sk3RkWJ71daKexDwjxs29qLoYTvnfHbEmNwtdxPgJuXIDT3x8yCgIwju9+Za3UYnuU946WgLiGm5QKvRgkbC67iGkJHaY3lS0a2iI8OG4LRig4wHZ7yEDBASAoe2HT2LaJZhGg0Vqv4KFdQZTRFrKklb4Ef9gyifGh8umPz5QH1szBNyc8s0EOniqWLrSYoqdgEpigIw/9O85gtso0GSnIjAFoCiQNHz0ZrSPdfOHGFTi0H3Qcx8uSZGC14pMPf04e/inmqvzfTbRT4WBI6sgzQIJqbCZOqWjQVPowh4dNY/3infqwix9AIvAwAZ6A0mjw08dJWTr5SgPihwgiuBAvVRKYYPp58BIe3bR0ivyvzy2VDIwZ6ci4hv7wH9pCL+yvkNDUAgCenYXIC+JlBXCio++mhenyP28rkMhQ5sp7pqutxhg+ysBxoV+iC9vG92AwLwSjzaNxHAz9yUNflJzMNPnpb5/DLD58CZcqBnTW2YHc5YH6g0pF1RN4DD4rD8AYPqNhrP0xWMtEycOaTl++48aKC5vWZrASfgouShjG1SPz89Ll3jUL5FYAx0Wd46ErxGeWfrnhhGzbV662MeCioGX2omHz3HNDjnwJHXyh2E9wtI60piPtfeEwFYZGw9i6xkZs3tzaKjHoDY3CZKixcodPnJG19/6rTgElaNi76uREdnCeY0yKFqorPgMg9KswlD7qBy+KLAJFe4sZzthDvNddvQAnW5oRYTHRkfL9B1bJmuXTYKNAOinYhpEKoCZJ+txB7OP8+13S3sJlO1hxAXtGx8FwDsem1r9+cKksmsoVDYxvmDg9IGAL7LympiaJjMRXgmNjPXhjdEHGBThtbW3S0NAgoaH4dHLiwGy20WXVvF1ZUy+P/OEVeeLZN6UFO4sb5mPyOPtiFDwAB+0TBQ+YDWAZwBAkPPgcQCGgaBtZ4MEX16xrl0xOj5fPrZ4vd9wwWzKSsLDfw4zTyD2IT2M/9teD+PJNsTbk9OO0jBuDlkFYRHfb8iz56tqZUHdmKe9YgIbZq63F3kOdnRIXF4fvgNlxe5hxL4KNC3A45aGmpkanO6bgWwVjLz775OipEvn81/8DGxdh31+qHktqGJAYqUPsGMljVIEtaRRgeGiABvCozRQkCZg89oXbl8o/3L0csw7ZKUgJ5RlsmmHEP/HWSfnN09vR0oOdBcPZAUnDNLkOKhmfjP7hf10mKwrS1cYZGzljOE41VVVVpVIxKSlJz15gYUSvjAtwmANbXY2n6GzBfN3XtuyXnz3+ihwvvAAAUILQjiHTwBqVKGT+IJCo1LEkD54TPAvn5Mrfrb1KPrZwqqQmxlgSxgPAQMI0AjDPbDslz792QIrwzVGz0SXSZ14gaeKwB/HX7lwoa6/JlcRo7mI69s4XtB6a63EDDsVmfX09DE18sRa1YLRG8tCMD77neNP6F7bK7556AxKoRtqx27oNIkoMSiEFE0UQbJxgrBJIT46VubOy5St3X6/f/Db2C0XU8I5WYSU+HP/ukRL5+Z+2y9lT5xE/tteFlKE9E4zt1dgivPW6fPnmXUss49cDIA6f9AdCsBFC6U7DPh7fvaJ54As3bsBh5mms0WgLhm5PTuackvF1rW3tUniuXJ58YYs8iy/rcY23TrqiFMIxLTcDzJwnN39sHjZASBLuFIYnAJNn+aLRe7K8UR57ZZ9s3/6+lJVVodWFlyFZnLBh+FGPqyG17l93lczLnyTJWP813q66ulq6sYM7GyFsjPjKjStwaOvQSKb0CQ8P1xrhq4LxO557D2JnLGzelIJZdXk56dhK3xi6bEZCDg2blU7MO65A87+4vE4OniiWjTuOy6H3T0oPp2SghhMsaakJMj0nQ5ZgUHPd9XNlRnYKhZxH8Q+bgWECUKK3Q11TytAoZsvPV25cgcNCEDSUPKwVvgbPSIhYg4nup8tbpAIL9gov1Mmho4Vy7HCR1FVcwHSMVs4qVZXnglSZgb1pboHU+uRN2KgpHcuCw0L1QyDsTvJM2Y0kZ5cPa4OG0pySxlcqys7NuAOHCXVgaKC5uVnBw4Kyn2E8bR67cCM5X8Da8edf2ylVFWgN4it43PY/HF+HiUVfTlx8rKQmxwEkSZKNlajRUdg+BX+0dTxsdI0kKx8aljYNjWFWRNIyOhofRsE0WF87nwCHhaLkob3DMx1bWzzGvqmu0Y/ih4qMbnhVZsL55pdNbnaq8qCjhKFd42tJY5fWZ8BhgrR5WHB2ENpjKyw4D0oggmg0Y1t2of4znEkfgoUShpXNrnCkDzv4WOl8adMMpalPgWMnTiJQffEgmAJueAoQJFRJPPwlZQbn0i/AsTNA0BBE1Nc8WMPY5B2H4TM7yY/EWYdBYDxRAtOO4UGw+FPCDCWcX4EzNDOB+48OBXzVevzoUCSQU48oEACOR2QKBBpKgQBwhlIkcO8RBQLA8YhMgUBDKRAAzlCKBO49okAAOB6RKRBoKAUCwBlKkcC9RxQIAMcjMgUCDaVAADhDKRK494gCAeB4RKZAoKEUCABnKEUC9x5RIAAcj8gUCDSUAgHgDKVI4N4jCgSA4xGZAoGGUiAAnKEUCdx7RIEAcDwiUyDQUAoEgDOUIoF7jygQAI5HZAoEGkqBAHCGUiRw7xEF/h9ByOL0XbXekQAAAABJRU5ErkJggg==;" parent="1" vertex="1">
          <mxGeometry x="666" y="225" width="64.54" height="60" as="geometry" />
        </mxCell>
        <mxCell id="Fu-hgY2Prab3ta5RPqmp-10" value="고객" style="shape=umlActor;verticalLabelPosition=bottom;verticalAlign=top;html=1;outlineConnect=0;" parent="1" vertex="1">
          <mxGeometry x="40" y="350" width="30" height="60" as="geometry" />
        </mxCell>
        <mxCell id="Fu-hgY2Prab3ta5RPqmp-14" value="Shopify" style="text;html=1;align=center;verticalAlign=middle;whiteSpace=wrap;rounded=0;" parent="1" vertex="1">
          <mxGeometry x="500" y="90" width="60" height="30" as="geometry" />
        </mxCell>
        <mxCell id="Fu-hgY2Prab3ta5RPqmp-15" value="" style="endArrow=classic;html=1;rounded=0;exitX=1;exitY=0.5;exitDx=0;exitDy=0;entryX=0;entryY=0.5;entryDx=0;entryDy=0;" parent="1" source="Fu-hgY2Prab3ta5RPqmp-3" target="Fu-hgY2Prab3ta5RPqmp-11" edge="1">
          <mxGeometry width="50" height="50" relative="1" as="geometry">
            <mxPoint x="400" y="420" as="sourcePoint" />
            <mxPoint x="450" y="370" as="targetPoint" />
          </mxGeometry>
        </mxCell>
        <mxCell id="Fu-hgY2Prab3ta5RPqmp-16" value="- 포트원을 통한 국내 결제 서비스 연동&lt;br&gt;- 드림 소셜 로그인을 통한 소셜 로그인 기능 제공" style="text;html=1;align=left;verticalAlign=middle;whiteSpace=wrap;rounded=0;" parent="1" vertex="1">
          <mxGeometry x="500" y="310" width="290" height="40" as="geometry" />
        </mxCell>
        <mxCell id="Fu-hgY2Prab3ta5RPqmp-17" value="GraphQL" style="text;html=1;align=center;verticalAlign=middle;whiteSpace=wrap;rounded=0;" parent="1" vertex="1">
          <mxGeometry x="250" y="300" width="60" height="30" as="geometry" />
        </mxCell>
        <mxCell id="PoH1Uvr-TJmtBWjTJxhr-1" value="" style="endArrow=classic;html=1;rounded=0;exitX=-0.003;exitY=0.637;exitDx=0;exitDy=0;exitPerimeter=0;entryX=1.008;entryY=0.883;entryDx=0;entryDy=0;entryPerimeter=0;" edge="1" parent="1" source="Fu-hgY2Prab3ta5RPqmp-11" target="Fu-hgY2Prab3ta5RPqmp-3">
          <mxGeometry width="50" height="50" relative="1" as="geometry">
            <mxPoint x="250" y="380" as="sourcePoint" />
            <mxPoint x="250" y="390" as="targetPoint" />
          </mxGeometry>
        </mxCell>
        <mxCell id="PoH1Uvr-TJmtBWjTJxhr-4" value="1. 상품 요청&lt;div&gt;2. 상품 요청에 따른 상품 데이터 조회&lt;/div&gt;" style="text;html=1;align=left;verticalAlign=middle;whiteSpace=wrap;rounded=0;" vertex="1" parent="1">
          <mxGeometry x="290" y="380" width="180" height="30" as="geometry" />
        </mxCell>
        <mxCell id="PoH1Uvr-TJmtBWjTJxhr-5" value="* 결제의 경우, 카트 조회에서 제공해주는 checked url 을 호출하게 되면 결제 창으로 들어가게 되고, 결제 창에서 결제를 완료 하면, 카트 주문이 생성이 완료 된다.&lt;br&gt;&lt;div&gt;(포트원 플러그인을 설치하면 결제 창에서 포트원에서 제공하는 결제 수단이 노출)&lt;br&gt;&lt;br&gt;* 로그인의 경우 드림소셜 로그인에서 제공해주는 graphQL 및 url을 사용해줘야 함&lt;br&gt;(아마도 제공해주는 Url로 로그인을 하면, 고객을 생성해 줄 것으로 보임&lt;/div&gt;&lt;div&gt;&lt;br&gt;&lt;/div&gt;" style="text;html=1;align=left;verticalAlign=middle;whiteSpace=wrap;rounded=0;" vertex="1" parent="1">
          <mxGeometry x="270" y="430" width="520" height="110" as="geometry" />
        </mxCell>
        <mxCell id="PoH1Uvr-TJmtBWjTJxhr-8" value="" style="rounded=0;whiteSpace=wrap;html=1;" vertex="1" parent="1">
          <mxGeometry x="500" y="585" width="306" height="190" as="geometry" />
        </mxCell>
        <mxCell id="PoH1Uvr-TJmtBWjTJxhr-9" value="Spring boot" style="rounded=0;whiteSpace=wrap;html=1;" vertex="1" parent="1">
          <mxGeometry x="593" y="640" width="120" height="60" as="geometry" />
        </mxCell>
        <mxCell id="PoH1Uvr-TJmtBWjTJxhr-10" value="" style="endArrow=classic;html=1;rounded=0;exitX=0.5;exitY=1;exitDx=0;exitDy=0;entryX=0;entryY=0.5;entryDx=0;entryDy=0;" edge="1" parent="1" source="Fu-hgY2Prab3ta5RPqmp-3" target="PoH1Uvr-TJmtBWjTJxhr-8">
          <mxGeometry width="50" height="50" relative="1" as="geometry">
            <mxPoint x="400" y="520" as="sourcePoint" />
            <mxPoint x="450" y="470" as="targetPoint" />
            <Array as="points">
              <mxPoint x="180" y="680" />
            </Array>
          </mxGeometry>
        </mxCell>
        <mxCell id="PoH1Uvr-TJmtBWjTJxhr-11" value="" style="endArrow=classic;html=1;rounded=0;exitX=-0.007;exitY=0.395;exitDx=0;exitDy=0;entryX=0.675;entryY=1.05;entryDx=0;entryDy=0;exitPerimeter=0;entryPerimeter=0;" edge="1" parent="1" source="PoH1Uvr-TJmtBWjTJxhr-8" target="Fu-hgY2Prab3ta5RPqmp-3">
          <mxGeometry width="50" height="50" relative="1" as="geometry">
            <mxPoint x="190" y="420" as="sourcePoint" />
            <mxPoint x="510" y="690" as="targetPoint" />
            <Array as="points">
              <mxPoint x="200" y="660" />
            </Array>
          </mxGeometry>
        </mxCell>
        <mxCell id="PoH1Uvr-TJmtBWjTJxhr-14" value="RDS" style="shape=cylinder3;whiteSpace=wrap;html=1;boundedLbl=1;backgroundOutline=1;size=15;" vertex="1" parent="1">
          <mxGeometry x="623" y="850" width="60" height="80" as="geometry" />
        </mxCell>
        <mxCell id="PoH1Uvr-TJmtBWjTJxhr-15" value="" style="endArrow=classic;html=1;rounded=0;exitX=0.457;exitY=1;exitDx=0;exitDy=0;exitPerimeter=0;entryX=0.283;entryY=0;entryDx=0;entryDy=0;entryPerimeter=0;" edge="1" parent="1" source="PoH1Uvr-TJmtBWjTJxhr-8" target="PoH1Uvr-TJmtBWjTJxhr-14">
          <mxGeometry width="50" height="50" relative="1" as="geometry">
            <mxPoint x="400" y="720" as="sourcePoint" />
            <mxPoint x="450" y="670" as="targetPoint" />
          </mxGeometry>
        </mxCell>
        <mxCell id="PoH1Uvr-TJmtBWjTJxhr-16" value="" style="endArrow=classic;html=1;rounded=0;entryX=0.5;entryY=1;entryDx=0;entryDy=0;exitX=0.5;exitY=0;exitDx=0;exitDy=0;exitPerimeter=0;" edge="1" parent="1" source="PoH1Uvr-TJmtBWjTJxhr-14" target="PoH1Uvr-TJmtBWjTJxhr-8">
          <mxGeometry width="50" height="50" relative="1" as="geometry">
            <mxPoint x="780" y="830" as="sourcePoint" />
            <mxPoint x="650" y="860" as="targetPoint" />
          </mxGeometry>
        </mxCell>
        <mxCell id="PoH1Uvr-TJmtBWjTJxhr-17" value="EC2" style="text;html=1;align=center;verticalAlign=middle;whiteSpace=wrap;rounded=0;" vertex="1" parent="1">
          <mxGeometry x="500" y="555" width="60" height="30" as="geometry" />
        </mxCell>
        <mxCell id="PoH1Uvr-TJmtBWjTJxhr-19" value="" style="endArrow=classic;html=1;rounded=0;entryX=0.997;entryY=0.442;entryDx=0;entryDy=0;entryPerimeter=0;" edge="1" parent="1">
          <mxGeometry width="50" height="50" relative="1" as="geometry">
            <mxPoint x="810.92" y="671.02" as="sourcePoint" />
            <mxPoint x="806.0019999999998" y="205.00000000000003" as="targetPoint" />
            <Array as="points">
              <mxPoint x="860.92" y="671.02" />
              <mxPoint x="900.92" y="671.02" />
              <mxPoint x="900.92" y="491.02" />
              <mxPoint x="900.92" y="205.02" />
            </Array>
          </mxGeometry>
        </mxCell>
        <mxCell id="PoH1Uvr-TJmtBWjTJxhr-24" value="" style="endArrow=classic;html=1;rounded=0;exitX=0.997;exitY=0.537;exitDx=0;exitDy=0;exitPerimeter=0;entryX=1;entryY=0.374;entryDx=0;entryDy=0;entryPerimeter=0;" edge="1" parent="1" source="Fu-hgY2Prab3ta5RPqmp-11" target="PoH1Uvr-TJmtBWjTJxhr-8">
          <mxGeometry width="50" height="50" relative="1" as="geometry">
            <mxPoint x="975" y="300" as="sourcePoint" />
            <mxPoint x="1025" y="250" as="targetPoint" />
            <Array as="points">
              <mxPoint x="880" y="222" />
              <mxPoint x="880" y="656" />
            </Array>
          </mxGeometry>
        </mxCell>
        <mxCell id="PoH1Uvr-TJmtBWjTJxhr-25" value="RestApi" style="text;html=1;align=center;verticalAlign=middle;whiteSpace=wrap;rounded=0;" vertex="1" parent="1">
          <mxGeometry x="900" y="330" width="60" height="30" as="geometry" />
        </mxCell>
        <mxCell id="PoH1Uvr-TJmtBWjTJxhr-26" value="상품등록 상품 가격 수정 등 시스템에서 처리한 기능" style="text;html=1;align=left;verticalAlign=middle;whiteSpace=wrap;rounded=0;" vertex="1" parent="1">
          <mxGeometry x="910" y="365" width="180" height="30" as="geometry" />
        </mxCell>
        <mxCell id="PoH1Uvr-TJmtBWjTJxhr-29" value="관리자" style="shape=umlActor;verticalLabelPosition=bottom;verticalAlign=top;html=1;outlineConnect=0;" vertex="1" parent="1">
          <mxGeometry x="1190" y="120" width="30" height="60" as="geometry" />
        </mxCell>
        <mxCell id="PoH1Uvr-TJmtBWjTJxhr-30" value="WEB" style="swimlane;whiteSpace=wrap;html=1;" vertex="1" parent="1">
          <mxGeometry x="1060" y="101" width="100" height="115" as="geometry" />
        </mxCell>
        <mxCell id="PoH1Uvr-TJmtBWjTJxhr-33" value="쇼피파이&amp;nbsp;&lt;div&gt;관리자 웹&lt;/div&gt;" style="text;html=1;align=center;verticalAlign=middle;whiteSpace=wrap;rounded=0;" vertex="1" parent="PoH1Uvr-TJmtBWjTJxhr-30">
          <mxGeometry x="20" y="42.5" width="60" height="30" as="geometry" />
        </mxCell>
        <mxCell id="PoH1Uvr-TJmtBWjTJxhr-34" value="" style="endArrow=classic;html=1;rounded=0;exitX=0;exitY=0.5;exitDx=0;exitDy=0;entryX=1.003;entryY=0.205;entryDx=0;entryDy=0;entryPerimeter=0;" edge="1" parent="1" source="PoH1Uvr-TJmtBWjTJxhr-30" target="Fu-hgY2Prab3ta5RPqmp-11">
          <mxGeometry width="50" height="50" relative="1" as="geometry">
            <mxPoint x="1108" y="30" as="sourcePoint" />
            <mxPoint x="850" y="192" as="targetPoint" />
          </mxGeometry>
        </mxCell>
        <mxCell id="PoH1Uvr-TJmtBWjTJxhr-35" value="" style="endArrow=classic;html=1;rounded=0;entryX=0;entryY=0.75;entryDx=0;entryDy=0;" edge="1" parent="1">
          <mxGeometry width="50" height="50" relative="1" as="geometry">
            <mxPoint x="810" y="175" as="sourcePoint" />
            <mxPoint x="1060" y="175.25" as="targetPoint" />
          </mxGeometry>
        </mxCell>
        <mxCell id="PoH1Uvr-TJmtBWjTJxhr-37" value="- 상품 등록, 수정&lt;div&gt;- 물류 관련 , 출고, 배송완료 처리 등&lt;/div&gt;&lt;div&gt;- 정산&lt;/div&gt;&lt;div&gt;- 반품, 교환, 취소 등 CS 프로세스(정의 필요)&lt;/div&gt;" style="text;html=1;align=left;verticalAlign=middle;whiteSpace=wrap;rounded=0;" vertex="1" parent="1">
          <mxGeometry x="827" y="80" width="223" height="70" as="geometry" />
        </mxCell>
      </root>
    </mxGraphModel>
  </diagram>
</mxfile>
